<?xml version="1.0" encoding="utf-8" standalone="no"?>
<!DOCTYPE svg PUBLIC "-//W3C//DTD SVG 1.1//EN"
  "http://www.w3.org/Graphics/SVG/1.1/DTD/svg11.dtd">
<svg xmlns:xlink="http://www.w3.org/1999/xlink" width="1304.39952pt" height="440.39952pt" viewBox="0 0 1304.39952 440.39952" xmlns="http://www.w3.org/2000/svg" version="1.1">
 <metadata>
  <rdf:RDF xmlns:dc="http://purl.org/dc/elements/1.1/" xmlns:cc="http://creativecommons.org/ns#" xmlns:rdf="http://www.w3.org/1999/02/22-rdf-syntax-ns#">
   <cc:Work>
    <dc:type rdf:resource="http://purl.org/dc/dcmitype/StillImage"/>
    <dc:date>2026-05-27T12:27:27.900932</dc:date>
    <dc:format>image/svg+xml</dc:format>
    <dc:creator>
     <cc:Agent>
      <dc:title>Matplotlib v3.10.0, https://matplotlib.org/</dc:title>
     </cc:Agent>
    </dc:creator>
   </cc:Work>
  </rdf:RDF>
 </metadata>
 <defs>
  <style type="text/css">*{stroke-linejoin: round; stroke-linecap: butt}</style>
 </defs>
 <g id="figure_1">
  <g id="patch_1">
   <path d="M 0 440.39952 
L 1304.39952 440.39952 
L 1304.39952 0 
L 0 0 
z
" style="fill: #ffffff"/>
  </g>
  <g id="axes_1">
   <g id="patch_2">
    <path d="M 61.633594 354.107995 
L 257.285395 354.107995 
L 257.285395 32.874062 
L 61.633594 32.874062 
z
" style="fill: #ffffff"/>
   </g>
   <g id="FillBetweenPolyCollection_1">
    <path d="M 102.980352 307.307116 
L 94.337082 307.307116 
L 94.337082 304.682556 
L 94.337082 302.057995 
L 94.337082 299.433434 
L 94.337082 296.808874 
L 94.337082 294.184313 
L 94.337082 291.559752 
L 94.337082 288.935191 
L 94.337082 286.310631 
L 94.337082 283.68607 
L 94.337082 281.061509 
L 94.337082 278.436948 
L 94.337082 275.812388 
L 94.337082 273.187827 
L 94.337082 270.563266 
L 94.337082 267.938706 
L 94.337082 265.314145 
L 94.337082 262.689584 
L 94.337082 260.065023 
L 94.337082 257.440463 
L 94.337082 254.815902 
L 94.337082 252.191341 
L 94.337082 249.566781 
L 94.337082 246.94222 
L 94.337082 244.317659 
L 94.337082 241.693098 
L 94.337082 239.068538 
L 94.337082 236.443977 
L 94.337082 233.819416 
L 94.337082 231.194855 
L 94.337082 228.570295 
L 94.337082 225.945734 
L 94.337082 223.321173 
L 94.337082 220.696613 
L 94.337082 218.072052 
L 94.337082 215.447491 
L 94.337082 212.82293 
L 94.337082 210.19837 
L 94.337082 207.573809 
L 94.337082 204.949248 
L 94.337082 202.324688 
L 94.337082 199.700127 
L 94.337082 197.075566 
L 94.337082 194.451005 
L 94.337082 191.826445 
L 94.337082 189.201884 
L 94.337082 186.577323 
L 94.337082 183.952762 
L 94.337082 181.328202 
L 94.337082 178.703641 
L 94.337082 176.07908 
L 94.337082 173.45452 
L 94.337082 170.829959 
L 94.337082 168.205398 
L 94.337082 165.580837 
L 94.337082 162.956277 
L 94.337082 160.331716 
L 94.337082 157.707155 
L 94.337082 155.082594 
L 94.337082 152.458034 
L 94.337082 149.833473 
L 94.337082 147.208912 
L 94.337082 144.584352 
L 94.337082 141.959791 
L 94.337082 139.33523 
L 94.337082 136.710669 
L 94.337082 134.086109 
L 94.337082 131.461548 
L 94.337082 128.836987 
L 94.337082 126.212427 
L 94.337082 123.587866 
L 94.337082 120.963305 
L 94.337082 118.338744 
L 94.337082 115.714184 
L 94.337082 113.089623 
L 94.337082 110.465062 
L 94.337082 107.840501 
L 94.337082 105.215941 
L 94.337082 102.59138 
L 94.337082 99.966819 
L 94.337082 97.342259 
L 94.337082 94.717698 
L 94.337082 92.093137 
L 94.337082 89.468576 
L 94.337082 86.844016 
L 94.337082 84.219455 
L 94.337082 81.594894 
L 94.337082 78.970334 
L 94.337082 76.345773 
L 94.337082 73.721212 
L 94.337082 71.096651 
L 94.337082 68.472091 
L 94.337082 65.84753 
L 94.337082 63.222969 
L 94.337082 60.598408 
L 94.337082 57.973848 
L 94.337082 55.349287 
L 94.337082 52.724726 
L 94.337082 50.100166 
L 94.337082 47.475605 
L 96.02155 47.475605 
L 96.02155 47.475605 
L 96.016639 50.100166 
L 96.001086 52.724726 
L 95.975236 55.349287 
L 95.939633 57.973848 
L 95.89501 60.598408 
L 95.84227 63.222969 
L 95.782462 65.84753 
L 95.716762 68.472091 
L 95.646446 71.096651 
L 95.572859 73.721212 
L 95.497392 76.345773 
L 95.421458 78.970334 
L 95.346465 81.594894 
L 95.273798 84.219455 
L 95.204802 86.844016 
L 95.14077 89.468576 
L 95.082929 92.093137 
L 95.032442 94.717698 
L 94.990398 97.342259 
L 94.95782 99.966819 
L 94.935665 102.59138 
L 94.924829 105.215941 
L 94.926159 107.840501 
L 94.940456 110.465062 
L 94.968486 113.089623 
L 95.010988 115.714184 
L 95.068683 118.338744 
L 95.142277 120.963305 
L 95.232473 123.587866 
L 95.339965 126.212427 
L 95.465453 128.836987 
L 95.609632 131.461548 
L 95.7732 134.086109 
L 95.956854 136.710669 
L 96.161285 139.33523 
L 96.387171 141.959791 
L 96.635177 144.584352 
L 96.905937 147.208912 
L 97.200053 149.833473 
L 97.518073 152.458034 
L 97.860483 155.082594 
L 98.227684 157.707155 
L 98.619975 160.331716 
L 99.037529 162.956277 
L 99.480364 165.580837 
L 99.948322 168.205398 
L 100.441033 170.829959 
L 100.957888 173.45452 
L 101.498007 176.07908 
L 102.060212 178.703641 
L 102.642993 181.328202 
L 103.244493 183.952762 
L 103.862482 186.577323 
L 104.49435 189.201884 
L 105.1371 191.826445 
L 105.787354 194.451005 
L 106.441372 197.075566 
L 107.095074 199.700127 
L 107.744082 202.324688 
L 108.383768 204.949248 
L 109.009316 207.573809 
L 109.615789 210.19837 
L 110.198211 212.82293 
L 110.751648 215.447491 
L 111.271295 218.072052 
L 111.752569 220.696613 
L 112.191189 223.321173 
L 112.583263 225.945734 
L 112.925358 228.570295 
L 113.214566 231.194855 
L 113.448554 233.819416 
L 113.625601 236.443977 
L 113.74462 239.068538 
L 113.805162 241.693098 
L 113.807407 244.317659 
L 113.75214 246.94222 
L 113.640708 249.566781 
L 113.474975 252.191341 
L 113.257256 254.815902 
L 112.990257 257.440463 
L 112.677 260.065023 
L 112.320753 262.689584 
L 111.92496 265.314145 
L 111.493176 267.938706 
L 111.029007 270.563266 
L 110.536057 273.187827 
L 110.017887 275.812388 
L 109.477976 278.436948 
L 108.919702 281.061509 
L 108.34632 283.68607 
L 107.760957 286.310631 
L 107.166606 288.935191 
L 106.566132 291.559752 
L 105.962275 294.184313 
L 105.357657 296.808874 
L 104.754793 299.433434 
L 104.156095 302.057995 
L 103.563876 304.682556 
L 102.980352 307.307116 
z
" clip-path="url(#p87755e36fe)" style="fill: #e69f00; fill-opacity: 0.25"/>
   </g>
   <g id="FillBetweenPolyCollection_2">
    <path d="M 168.445827 326.966358 
L 159.568542 326.966358 
L 159.568542 324.67078 
L 159.568542 322.375201 
L 159.568542 320.079623 
L 159.568542 317.784044 
L 159.568542 315.488465 
L 159.568542 313.192887 
L 159.568542 310.897308 
L 159.568542 308.60173 
L 159.568542 306.306151 
L 159.568542 304.010572 
L 159.568542 301.714994 
L 159.568542 299.419415 
L 159.568542 297.123837 
L 159.568542 294.828258 
L 159.568542 292.53268 
L 159.568542 290.237101 
L 159.568542 287.941522 
L 159.568542 285.645944 
L 159.568542 283.350365 
L 159.568542 281.054787 
L 159.568542 278.759208 
L 159.568542 276.46363 
L 159.568542 274.168051 
L 159.568542 271.872472 
L 159.568542 269.576894 
L 159.568542 267.281315 
L 159.568542 264.985737 
L 159.568542 262.690158 
L 159.568542 260.39458 
L 159.568542 258.099001 
L 159.568542 255.803422 
L 159.568542 253.507844 
L 159.568542 251.212265 
L 159.568542 248.916687 
L 159.568542 246.621108 
L 159.568542 244.32553 
L 159.568542 242.029951 
L 159.568542 239.734372 
L 159.568542 237.438794 
L 159.568542 235.143215 
L 159.568542 232.847637 
L 159.568542 230.552058 
L 159.568542 228.25648 
L 159.568542 225.960901 
L 159.568542 223.665322 
L 159.568542 221.369744 
L 159.568542 219.074165 
L 159.568542 216.778587 
L 159.568542 214.483008 
L 159.568542 212.18743 
L 159.568542 209.891851 
L 159.568542 207.596272 
L 159.568542 205.300694 
L 159.568542 203.005115 
L 159.568542 200.709537 
L 159.568542 198.413958 
L 159.568542 196.118379 
L 159.568542 193.822801 
L 159.568542 191.527222 
L 159.568542 189.231644 
L 159.568542 186.936065 
L 159.568542 184.640487 
L 159.568542 182.344908 
L 159.568542 180.049329 
L 159.568542 177.753751 
L 159.568542 175.458172 
L 159.568542 173.162594 
L 159.568542 170.867015 
L 159.568542 168.571437 
L 159.568542 166.275858 
L 159.568542 163.980279 
L 159.568542 161.684701 
L 159.568542 159.389122 
L 159.568542 157.093544 
L 159.568542 154.797965 
L 159.568542 152.502387 
L 159.568542 150.206808 
L 159.568542 147.911229 
L 159.568542 145.615651 
L 159.568542 143.320072 
L 159.568542 141.024494 
L 159.568542 138.728915 
L 159.568542 136.433337 
L 159.568542 134.137758 
L 159.568542 131.842179 
L 159.568542 129.546601 
L 159.568542 127.251022 
L 159.568542 124.955444 
L 159.568542 122.659865 
L 159.568542 120.364287 
L 159.568542 118.068708 
L 159.568542 115.773129 
L 159.568542 113.477551 
L 159.568542 111.181972 
L 159.568542 108.886394 
L 159.568542 106.590815 
L 159.568542 104.295236 
L 159.568542 101.999658 
L 159.568542 99.704079 
L 163.623586 99.704079 
L 163.623586 99.704079 
L 163.784751 101.999658 
L 163.944814 104.295236 
L 164.103846 106.590815 
L 164.262002 108.886394 
L 164.419514 111.181972 
L 164.576686 113.477551 
L 164.733885 115.773129 
L 164.891534 118.068708 
L 165.050096 120.364287 
L 165.210066 122.659865 
L 165.371954 124.955444 
L 165.536275 127.251022 
L 165.703534 129.546601 
L 165.874212 131.842179 
L 166.048759 134.137758 
L 166.227578 136.433337 
L 166.41102 138.728915 
L 166.599378 141.024494 
L 166.792884 143.320072 
L 166.991705 145.615651 
L 167.195947 147.911229 
L 167.405659 150.206808 
L 167.620835 152.502387 
L 167.84143 154.797965 
L 168.06736 157.093544 
L 168.29852 159.389122 
L 168.534794 161.684701 
L 168.776064 163.980279 
L 169.022222 166.275858 
L 169.273179 168.571437 
L 169.528873 170.867015 
L 169.789273 173.162594 
L 170.054384 175.458172 
L 170.324243 177.753751 
L 170.598916 180.049329 
L 170.878492 182.344908 
L 171.163071 184.640487 
L 171.452748 186.936065 
L 171.747602 189.231644 
L 172.047673 191.527222 
L 172.352943 193.822801 
L 172.663313 196.118379 
L 172.978589 198.413958 
L 173.298454 200.709537 
L 173.622452 203.005115 
L 173.949975 205.300694 
L 174.280248 207.596272 
L 174.612319 209.891851 
L 174.945055 212.18743 
L 175.277145 214.483008 
L 175.607102 216.778587 
L 175.933274 219.074165 
L 176.253861 221.369744 
L 176.566934 223.665322 
L 176.870456 225.960901 
L 177.162317 228.25648 
L 177.440359 230.552058 
L 177.702413 232.847637 
L 177.946329 235.143215 
L 178.170018 237.438794 
L 178.371479 239.734372 
L 178.548837 242.029951 
L 178.700375 244.32553 
L 178.824556 246.621108 
L 178.920054 248.916687 
L 178.985768 251.212265 
L 179.020842 253.507844 
L 179.024675 255.803422 
L 178.99692 258.099001 
L 178.937493 260.39458 
L 178.846561 262.690158 
L 178.724537 264.985737 
L 178.572062 267.281315 
L 178.389991 269.576894 
L 178.17937 271.872472 
L 177.941413 274.168051 
L 177.677478 276.46363 
L 177.389042 278.759208 
L 177.077671 281.054787 
L 176.744998 283.350365 
L 176.392697 285.645944 
L 176.022461 287.941522 
L 175.635981 290.237101 
L 175.234926 292.53268 
L 174.820932 294.828258 
L 174.395584 297.123837 
L 173.960413 299.419415 
L 173.516889 301.714994 
L 173.066412 304.010572 
L 172.610321 306.306151 
L 172.149888 308.60173 
L 171.686327 310.897308 
L 171.220795 313.192887 
L 170.754402 315.488465 
L 170.288218 317.784044 
L 169.823275 320.079623 
L 169.360577 322.375201 
L 168.901107 324.67078 
L 168.445827 326.966358 
z
" clip-path="url(#p87755e36fe)" style="fill: #e69f00; fill-opacity: 0.25"/>
   </g>
   <g id="FillBetweenPolyCollection_3">
    <path d="M 226.569738 339.506453 
L 224.737758 339.506453 
L 224.737758 337.5584 
L 224.737758 335.610348 
L 224.737758 333.662296 
L 224.737758 331.714244 
L 224.737758 329.766192 
L 224.737758 327.81814 
L 224.737758 325.870088 
L 224.737758 323.922036 
L 224.737758 321.973983 
L 224.737758 320.025931 
L 224.737758 318.077879 
L 224.737758 316.129827 
L 224.737758 314.181775 
L 224.737758 312.233723 
L 224.737758 310.285671 
L 224.737758 308.337619 
L 224.737758 306.389566 
L 224.737758 304.441514 
L 224.737758 302.493462 
L 224.737758 300.54541 
L 224.737758 298.597358 
L 224.737758 296.649306 
L 224.737758 294.701254 
L 224.737758 292.753202 
L 224.737758 290.805149 
L 224.737758 288.857097 
L 224.737758 286.909045 
L 224.737758 284.960993 
L 224.737758 283.012941 
L 224.737758 281.064889 
L 224.737758 279.116837 
L 224.737758 277.168785 
L 224.737758 275.220732 
L 224.737758 273.27268 
L 224.737758 271.324628 
L 224.737758 269.376576 
L 224.737758 267.428524 
L 224.737758 265.480472 
L 224.737758 263.53242 
L 224.737758 261.584368 
L 224.737758 259.636315 
L 224.737758 257.688263 
L 224.737758 255.740211 
L 224.737758 253.792159 
L 224.737758 251.844107 
L 224.737758 249.896055 
L 224.737758 247.948003 
L 224.737758 245.999951 
L 224.737758 244.051899 
L 224.737758 242.103846 
L 224.737758 240.155794 
L 224.737758 238.207742 
L 224.737758 236.25969 
L 224.737758 234.311638 
L 224.737758 232.363586 
L 224.737758 230.415534 
L 224.737758 228.467482 
L 224.737758 226.519429 
L 224.737758 224.571377 
L 224.737758 222.623325 
L 224.737758 220.675273 
L 224.737758 218.727221 
L 224.737758 216.779169 
L 224.737758 214.831117 
L 224.737758 212.883065 
L 224.737758 210.935012 
L 224.737758 208.98696 
L 224.737758 207.038908 
L 224.737758 205.090856 
L 224.737758 203.142804 
L 224.737758 201.194752 
L 224.737758 199.2467 
L 224.737758 197.298648 
L 224.737758 195.350595 
L 224.737758 193.402543 
L 224.737758 191.454491 
L 224.737758 189.506439 
L 224.737758 187.558387 
L 224.737758 185.610335 
L 224.737758 183.662283 
L 224.737758 181.714231 
L 224.737758 179.766178 
L 224.737758 177.818126 
L 224.737758 175.870074 
L 224.737758 173.922022 
L 224.737758 171.97397 
L 224.737758 170.025918 
L 224.737758 168.077866 
L 224.737758 166.129814 
L 224.737758 164.181761 
L 224.737758 162.233709 
L 224.737758 160.285657 
L 224.737758 158.337605 
L 224.737758 156.389553 
L 224.737758 154.441501 
L 224.737758 152.493449 
L 224.737758 150.545397 
L 224.737758 148.597344 
L 224.737758 146.649292 
L 233.273186 146.649292 
L 233.273186 146.649292 
L 233.929986 148.597344 
L 234.60495 150.545397 
L 235.294448 152.493449 
L 235.994341 154.441501 
L 236.700003 156.389553 
L 237.406364 158.337605 
L 238.107963 160.285657 
L 238.799019 162.233709 
L 239.473512 164.181761 
L 240.125284 166.129814 
L 240.748144 168.077866 
L 241.335988 170.025918 
L 241.882917 171.97397 
L 242.383365 173.922022 
L 242.832214 175.870074 
L 243.224914 177.818126 
L 243.55759 179.766178 
L 243.827127 181.714231 
L 244.03125 183.662283 
L 244.168575 185.610335 
L 244.238646 187.558387 
L 244.241942 189.506439 
L 244.179859 191.454491 
L 244.054682 193.402543 
L 243.869514 195.350595 
L 243.628205 197.298648 
L 243.335251 199.2467 
L 242.995684 201.194752 
L 242.614948 203.142804 
L 242.198779 205.090856 
L 241.753069 207.038908 
L 241.283741 208.98696 
L 240.796629 210.935012 
L 240.297366 212.883065 
L 239.791281 214.831117 
L 239.283316 216.779169 
L 238.777954 218.727221 
L 238.279166 220.675273 
L 237.790373 222.623325 
L 237.314426 224.571377 
L 236.8536 226.519429 
L 236.409605 228.467482 
L 235.983606 230.415534 
L 235.576254 232.363586 
L 235.187733 234.311638 
L 234.817801 236.25969 
L 234.465848 238.207742 
L 234.130952 240.155794 
L 233.811934 242.103846 
L 233.507418 244.051899 
L 233.215891 245.999951 
L 232.935755 247.948003 
L 232.665379 249.896055 
L 232.403152 251.844107 
L 232.147524 253.792159 
L 231.897051 255.740211 
L 231.650425 257.688263 
L 231.406512 259.636315 
L 231.164372 261.584368 
L 230.923279 263.53242 
L 230.682737 265.480472 
L 230.442486 267.428524 
L 230.202502 269.376576 
L 229.962995 271.324628 
L 229.724396 273.27268 
L 229.487341 275.220732 
L 229.25265 277.168785 
L 229.021296 279.116837 
L 228.794382 281.064889 
L 228.573097 283.012941 
L 228.358689 284.960993 
L 228.152419 286.909045 
L 227.955526 288.857097 
L 227.76919 290.805149 
L 227.594493 292.753202 
L 227.432387 294.701254 
L 227.283666 296.649306 
L 227.148937 298.597358 
L 227.028602 300.54541 
L 226.922842 302.493462 
L 226.831613 304.441514 
L 226.754634 306.389566 
L 226.6914 308.337619 
L 226.641186 310.285671 
L 226.603067 312.233723 
L 226.575931 314.181775 
L 226.558511 316.129827 
L 226.549411 318.077879 
L 226.547137 320.025931 
L 226.550134 321.973983 
L 226.556814 323.922036 
L 226.565601 325.870088 
L 226.574956 327.81814 
L 226.583417 329.766192 
L 226.589623 331.714244 
L 226.592347 333.662296 
L 226.590512 335.610348 
L 226.583215 337.5584 
L 226.569738 339.506453 
z
" clip-path="url(#p87755e36fe)" style="fill: #e69f00; fill-opacity: 0.25"/>
   </g>
   <g id="matplotlib.axis_1">
    <g id="xtick_1">
     <g id="line2d_1">
      <defs>
       <path id="mb98b262961" d="M 0 0 
L 0 3.5 
" style="stroke: #000000; stroke-width: 0.8"/>
      </defs>
      <g>
       <use xlink:href="#mb98b262961" x="94.242227" y="354.107995" style="stroke: #000000; stroke-width: 0.8"/>
      </g>
     </g>
     <g id="text_1">
      <text style="font-size: 14px; font-family: 'Helvetica'" transform="translate(53.100545 407.287592) rotate(-45)">Sedation</text>
     </g>
    </g>
    <g id="xtick_2">
     <g id="line2d_2">
      <g>
       <use xlink:href="#mb98b262961" x="159.459494" y="354.107995" style="stroke: #000000; stroke-width: 0.8"/>
      </g>
     </g>
     <g id="text_2">
      <text style="font-size: 14px; font-family: 'Helvetica'" transform="translate(133.731635 391.873769) rotate(-45)">Deep</text>
     </g>
    </g>
    <g id="xtick_3">
     <g id="line2d_3">
      <g>
       <use xlink:href="#mb98b262961" x="224.676761" y="354.107995" style="stroke: #000000; stroke-width: 0.8"/>
      </g>
     </g>
     <g id="text_3">
      <text style="font-size: 14px; font-family: 'Helvetica'" transform="translate(180.744659 410.019234) rotate(-45)">Recovery</text>
     </g>
    </g>
   </g>
   <g id="matplotlib.axis_2">
    <g id="ytick_1">
     <g id="line2d_4">
      <defs>
       <path id="m9d247a283f" d="M 0 0 
L -3.5 0 
" style="stroke: #000000; stroke-width: 0.8"/>
      </defs>
      <g>
       <use xlink:href="#m9d247a283f" x="61.633594" y="305.37403" style="stroke: #000000; stroke-width: 0.8"/>
      </g>
     </g>
     <g id="text_4">
      <text style="font-size: 14px; font-family: 'Helvetica'; text-anchor: end" x="54.633594" y="310.395436" transform="rotate(-0 54.633594 310.395436)">−0.2</text>
     </g>
    </g>
    <g id="ytick_2">
     <g id="line2d_5">
      <g>
       <use xlink:href="#m9d247a283f" x="61.633594" y="253.369489" style="stroke: #000000; stroke-width: 0.8"/>
      </g>
     </g>
     <g id="text_5">
      <text style="font-size: 14px; font-family: 'Helvetica'; text-anchor: end" x="54.633594" y="258.390895" transform="rotate(-0 54.633594 258.390895)">−0.1</text>
     </g>
    </g>
    <g id="ytick_3">
     <g id="line2d_6">
      <g>
       <use xlink:href="#m9d247a283f" x="61.633594" y="201.364948" style="stroke: #000000; stroke-width: 0.8"/>
      </g>
     </g>
     <g id="text_6">
      <text style="font-size: 14px; font-family: 'Helvetica'; text-anchor: end" x="54.633594" y="206.386354" transform="rotate(-0 54.633594 206.386354)">0.0</text>
     </g>
    </g>
    <g id="ytick_4">
     <g id="line2d_7">
      <g>
       <use xlink:href="#m9d247a283f" x="61.633594" y="149.360406" style="stroke: #000000; stroke-width: 0.8"/>
      </g>
     </g>
     <g id="text_7">
      <text style="font-size: 14px; font-family: 'Helvetica'; text-anchor: end" x="54.633594" y="154.381812" transform="rotate(-0 54.633594 154.381812)">0.1</text>
     </g>
    </g>
    <g id="ytick_5">
     <g id="line2d_8">
      <g>
       <use xlink:href="#m9d247a283f" x="61.633594" y="97.355865" style="stroke: #000000; stroke-width: 0.8"/>
      </g>
     </g>
     <g id="text_8">
      <text style="font-size: 14px; font-family: 'Helvetica'; text-anchor: end" x="54.633594" y="102.377271" transform="rotate(-0 54.633594 102.377271)">0.2</text>
     </g>
    </g>
    <g id="ytick_6">
     <g id="line2d_9">
      <g>
       <use xlink:href="#m9d247a283f" x="61.633594" y="45.351324" style="stroke: #000000; stroke-width: 0.8"/>
      </g>
     </g>
     <g id="text_9">
      <text style="font-size: 14px; font-family: 'Helvetica'; text-anchor: end" x="54.633594" y="50.37273" transform="rotate(-0 54.633594 50.37273)">0.3</text>
     </g>
    </g>
    <g id="text_10">
     <!-- $\Delta$SE -->
     <g transform="translate(19.434688 210.661029) rotate(-90)">
      <text>
       <tspan x="0" y="-0.390625" style="font-size: 17px; font-family: 'DejaVu Sans'">Δ</tspan>
       <tspan x="11.629395" y="-0.390625" style="font-weight: 700; font-size: 17px; font-family: 'Helvetica'">S</tspan>
       <tspan x="22.968262" y="-0.390625" style="font-weight: 700; font-size: 17px; font-family: 'Helvetica'">E</tspan>
      </text>
     </g>
    </g>
   </g>
   <g id="line2d_10">
    <path d="M 61.633594 201.364948 
L 257.285395 201.364948 
" clip-path="url(#p87755e36fe)" style="fill: none; stroke-dasharray: 5.55,2.4; stroke-dashoffset: 0; stroke: #808080; stroke-opacity: 0.7; stroke-width: 1.5"/>
   </g>
   <g id="PathCollection_1">
    <defs>
     <path id="C0_0_ade682211c" d="M 0 3.872983 
C 1.027127 3.872983 2.012324 3.464901 2.738613 2.738613 
C 3.464901 2.012324 3.872983 1.027127 3.872983 -0 
C 3.872983 -1.027127 3.464901 -2.012324 2.738613 -2.738613 
C 2.012324 -3.464901 1.027127 -3.872983 0 -3.872983 
C -1.027127 -3.872983 -2.012324 -3.464901 -2.738613 -2.738613 
C -3.464901 -2.012324 -3.872983 -1.027127 -3.872983 0 
C -3.872983 1.027127 -3.464901 2.012324 -2.738613 2.738613 
C -2.012324 3.464901 -1.027127 3.872983 0 3.872983 
z
"/>
    </defs>
    <g clip-path="url(#p87755e36fe)">
     <use xlink:href="#C0_0_ade682211c" x="93.260369" y="259.475677" style="fill: #e69f00; fill-opacity: 0.6"/>
    </g>
    <g clip-path="url(#p87755e36fe)">
     <use xlink:href="#C0_0_ade682211c" x="97.76955" y="229.7949" style="fill: #e69f00; fill-opacity: 0.6"/>
    </g>
    <g clip-path="url(#p87755e36fe)">
     <use xlink:href="#C0_0_ade682211c" x="96.057829" y="47.475605" style="fill: #e69f00; fill-opacity: 0.6"/>
    </g>
    <g clip-path="url(#p87755e36fe)">
     <use xlink:href="#C0_0_ade682211c" x="95.014336" y="241.000827" style="fill: #e69f00; fill-opacity: 0.6"/>
    </g>
    <g clip-path="url(#p87755e36fe)">
     <use xlink:href="#C0_0_ade682211c" x="91.550204" y="278.075229" style="fill: #e69f00; fill-opacity: 0.6"/>
    </g>
    <g clip-path="url(#p87755e36fe)">
     <use xlink:href="#C0_0_ade682211c" x="91.550016" y="216.074104" style="fill: #e69f00; fill-opacity: 0.6"/>
    </g>
    <g clip-path="url(#p87755e36fe)">
     <use xlink:href="#C0_0_ade682211c" x="90.783758" y="266.305389" style="fill: #e69f00; fill-opacity: 0.6"/>
    </g>
    <g clip-path="url(#p87755e36fe)">
     <use xlink:href="#C0_0_ade682211c" x="97.107948" y="201.607749" style="fill: #e69f00; fill-opacity: 0.6"/>
    </g>
    <g clip-path="url(#p87755e36fe)">
     <use xlink:href="#C0_0_ade682211c" x="95.033561" y="278.757071" style="fill: #e69f00; fill-opacity: 0.6"/>
    </g>
    <g clip-path="url(#p87755e36fe)">
     <use xlink:href="#C0_0_ade682211c" x="95.870618" y="239.622775" style="fill: #e69f00; fill-opacity: 0.6"/>
    </g>
    <g clip-path="url(#p87755e36fe)">
     <use xlink:href="#C0_0_ade682211c" x="90.490287" y="173.270966" style="fill: #e69f00; fill-opacity: 0.6"/>
    </g>
    <g clip-path="url(#p87755e36fe)">
     <use xlink:href="#C0_0_ade682211c" x="97.919776" y="208.113837" style="fill: #e69f00; fill-opacity: 0.6"/>
    </g>
    <g clip-path="url(#p87755e36fe)">
     <use xlink:href="#C0_0_ade682211c" x="96.843947" y="237.200496" style="fill: #e69f00; fill-opacity: 0.6"/>
    </g>
    <g clip-path="url(#p87755e36fe)">
     <use xlink:href="#C0_0_ade682211c" x="91.990972" y="307.307116" style="fill: #e69f00; fill-opacity: 0.6"/>
    </g>
    <g clip-path="url(#p87755e36fe)">
     <use xlink:href="#C0_0_ade682211c" x="91.752167" y="242.345838" style="fill: #e69f00; fill-opacity: 0.6"/>
    </g>
    <g clip-path="url(#p87755e36fe)">
     <use xlink:href="#C0_0_ade682211c" x="91.764528" y="297.07754" style="fill: #e69f00; fill-opacity: 0.6"/>
    </g>
    <g clip-path="url(#p87755e36fe)">
     <use xlink:href="#C0_0_ade682211c" x="92.710213" y="236.168793" style="fill: #e69f00; fill-opacity: 0.6"/>
    </g>
   </g>
   <g id="PathCollection_2">
    <defs>
     <path id="C1_0_5d532613b2" d="M 0 3.872983 
C 1.027127 3.872983 2.012324 3.464901 2.738613 2.738613 
C 3.464901 2.012324 3.872983 1.027127 3.872983 -0 
C 3.872983 -1.027127 3.464901 -2.012324 2.738613 -2.738613 
C 2.012324 -3.464901 1.027127 -3.872983 0 -3.872983 
C -1.027127 -3.872983 -2.012324 -3.464901 -2.738613 -2.738613 
C -3.464901 -2.012324 -3.872983 -1.027127 -3.872983 0 
C -3.872983 1.027127 -3.464901 2.012324 -2.738613 2.738613 
C -2.012324 3.464901 -1.027127 3.872983 0 3.872983 
z
"/>
    </defs>
    <g clip-path="url(#p87755e36fe)">
     <use xlink:href="#C1_0_5d532613b2" x="159.65324" y="189.232046" style="fill: #e69f00; fill-opacity: 0.6"/>
    </g>
    <g clip-path="url(#p87755e36fe)">
     <use xlink:href="#C1_0_5d532613b2" x="158.926891" y="260.488827" style="fill: #e69f00; fill-opacity: 0.6"/>
    </g>
    <g clip-path="url(#p87755e36fe)">
     <use xlink:href="#C1_0_5d532613b2" x="157.825639" y="131.874994" style="fill: #e69f00; fill-opacity: 0.6"/>
    </g>
    <g clip-path="url(#p87755e36fe)">
     <use xlink:href="#C1_0_5d532613b2" x="160.334863" y="238.50588" style="fill: #e69f00; fill-opacity: 0.6"/>
    </g>
    <g clip-path="url(#p87755e36fe)">
     <use xlink:href="#C1_0_5d532613b2" x="156.638147" y="268.069577" style="fill: #e69f00; fill-opacity: 0.6"/>
    </g>
    <g clip-path="url(#p87755e36fe)">
     <use xlink:href="#C1_0_5d532613b2" x="157.832803" y="99.704079" style="fill: #e69f00; fill-opacity: 0.6"/>
    </g>
    <g clip-path="url(#p87755e36fe)">
     <use xlink:href="#C1_0_5d532613b2" x="158.413633" y="223.349567" style="fill: #e69f00; fill-opacity: 0.6"/>
    </g>
    <g clip-path="url(#p87755e36fe)">
     <use xlink:href="#C1_0_5d532613b2" x="159.115695" y="242.197645" style="fill: #e69f00; fill-opacity: 0.6"/>
    </g>
    <g clip-path="url(#p87755e36fe)">
     <use xlink:href="#C1_0_5d532613b2" x="161.691302" y="293.198157" style="fill: #e69f00; fill-opacity: 0.6"/>
    </g>
    <g clip-path="url(#p87755e36fe)">
     <use xlink:href="#C1_0_5d532613b2" x="157.10912" y="179.968808" style="fill: #e69f00; fill-opacity: 0.6"/>
    </g>
    <g clip-path="url(#p87755e36fe)">
     <use xlink:href="#C1_0_5d532613b2" x="159.570894" y="266.174101" style="fill: #e69f00; fill-opacity: 0.6"/>
    </g>
    <g clip-path="url(#p87755e36fe)">
     <use xlink:href="#C1_0_5d532613b2" x="160.182737" y="256.031961" style="fill: #e69f00; fill-opacity: 0.6"/>
    </g>
    <g clip-path="url(#p87755e36fe)">
     <use xlink:href="#C1_0_5d532613b2" x="155.909983" y="172.95516" style="fill: #e69f00; fill-opacity: 0.6"/>
    </g>
    <g clip-path="url(#p87755e36fe)">
     <use xlink:href="#C1_0_5d532613b2" x="160.301148" y="317.909194" style="fill: #e69f00; fill-opacity: 0.6"/>
    </g>
    <g clip-path="url(#p87755e36fe)">
     <use xlink:href="#C1_0_5d532613b2" x="156.880992" y="289.897654" style="fill: #e69f00; fill-opacity: 0.6"/>
    </g>
    <g clip-path="url(#p87755e36fe)">
     <use xlink:href="#C1_0_5d532613b2" x="156.055557" y="326.966358" style="fill: #e69f00; fill-opacity: 0.6"/>
    </g>
    <g clip-path="url(#p87755e36fe)">
     <use xlink:href="#C1_0_5d532613b2" x="162.972505" y="225.990537" style="fill: #e69f00; fill-opacity: 0.6"/>
    </g>
   </g>
   <g id="PathCollection_3">
    <defs>
     <path id="C2_0_13c676536a" d="M 0 3.872983 
C 1.027127 3.872983 2.012324 3.464901 2.738613 2.738613 
C 3.464901 2.012324 3.872983 1.027127 3.872983 -0 
C 3.872983 -1.027127 3.464901 -2.012324 2.738613 -2.738613 
C 2.012324 -3.464901 1.027127 -3.872983 0 -3.872983 
C -1.027127 -3.872983 -2.012324 -3.464901 -2.738613 -2.738613 
C -3.464901 -2.012324 -3.872983 -1.027127 -3.872983 0 
C -3.872983 1.027127 -3.464901 2.012324 -2.738613 2.738613 
C -2.012324 3.464901 -1.027127 3.872983 0 3.872983 
z
"/>
    </defs>
    <g clip-path="url(#p87755e36fe)">
     <use xlink:href="#C2_0_13c676536a" x="228.320831" y="232.988806" style="fill: #e69f00; fill-opacity: 0.6"/>
    </g>
    <g clip-path="url(#p87755e36fe)">
     <use xlink:href="#C2_0_13c676536a" x="227.090301" y="185.572717" style="fill: #e69f00; fill-opacity: 0.6"/>
    </g>
    <g clip-path="url(#p87755e36fe)">
     <use xlink:href="#C2_0_13c676536a" x="223.147655" y="178.298213" style="fill: #e69f00; fill-opacity: 0.6"/>
    </g>
    <g clip-path="url(#p87755e36fe)">
     <use xlink:href="#C2_0_13c676536a" x="221.528114" y="181.086922" style="fill: #e69f00; fill-opacity: 0.6"/>
    </g>
    <g clip-path="url(#p87755e36fe)">
     <use xlink:href="#C2_0_13c676536a" x="226.118582" y="267.725853" style="fill: #e69f00; fill-opacity: 0.6"/>
    </g>
    <g clip-path="url(#p87755e36fe)">
     <use xlink:href="#C2_0_13c676536a" x="224.208391" y="146.649292" style="fill: #e69f00; fill-opacity: 0.6"/>
    </g>
    <g clip-path="url(#p87755e36fe)">
     <use xlink:href="#C2_0_13c676536a" x="221.718805" y="184.425312" style="fill: #e69f00; fill-opacity: 0.6"/>
    </g>
    <g clip-path="url(#p87755e36fe)">
     <use xlink:href="#C2_0_13c676536a" x="224.639016" y="164.749874" style="fill: #e69f00; fill-opacity: 0.6"/>
    </g>
    <g clip-path="url(#p87755e36fe)">
     <use xlink:href="#C2_0_13c676536a" x="221.032852" y="193.145954" style="fill: #e69f00; fill-opacity: 0.6"/>
    </g>
    <g clip-path="url(#p87755e36fe)">
     <use xlink:href="#C2_0_13c676536a" x="227.880132" y="187.273726" style="fill: #e69f00; fill-opacity: 0.6"/>
    </g>
    <g clip-path="url(#p87755e36fe)">
     <use xlink:href="#C2_0_13c676536a" x="222.788956" y="183.868285" style="fill: #e69f00; fill-opacity: 0.6"/>
    </g>
    <g clip-path="url(#p87755e36fe)">
     <use xlink:href="#C2_0_13c676536a" x="225.948673" y="192.777552" style="fill: #e69f00; fill-opacity: 0.6"/>
    </g>
    <g clip-path="url(#p87755e36fe)">
     <use xlink:href="#C2_0_13c676536a" x="223.203199" y="198.837455" style="fill: #e69f00; fill-opacity: 0.6"/>
    </g>
    <g clip-path="url(#p87755e36fe)">
     <use xlink:href="#C2_0_13c676536a" x="224.833815" y="234.071587" style="fill: #e69f00; fill-opacity: 0.6"/>
    </g>
    <g clip-path="url(#p87755e36fe)">
     <use xlink:href="#C2_0_13c676536a" x="225.042319" y="216.126575" style="fill: #e69f00; fill-opacity: 0.6"/>
    </g>
    <g clip-path="url(#p87755e36fe)">
     <use xlink:href="#C2_0_13c676536a" x="222.21041" y="339.506453" style="fill: #e69f00; fill-opacity: 0.6"/>
    </g>
    <g clip-path="url(#p87755e36fe)">
     <use xlink:href="#C2_0_13c676536a" x="228.351765" y="264.294588" style="fill: #e69f00; fill-opacity: 0.6"/>
    </g>
   </g>
   <g id="patch_3">
    <path d="M 61.633594 354.107995 
L 61.633594 32.874062 
" style="fill: none; stroke: #000000; stroke-width: 1.5; stroke-linejoin: miter; stroke-linecap: square"/>
   </g>
   <g id="patch_4">
    <path d="M 61.633594 354.107995 
L 257.285395 354.107995 
" style="fill: none; stroke: #000000; stroke-width: 1.5; stroke-linejoin: miter; stroke-linecap: square"/>
   </g>
   <g id="LineCollection_1">
    <path d="M 94.242227 247.22882 
L 94.242227 218.61517 
" clip-path="url(#p87755e36fe)" style="fill: none; stroke: #000000; stroke-width: 2"/>
    <path d="M 159.459494 249.493517 
L 159.459494 219.037606 
" clip-path="url(#p87755e36fe)" style="fill: none; stroke: #000000; stroke-width: 2"/>
    <path d="M 224.676761 220.287327 
L 224.676761 197.52434 
" clip-path="url(#p87755e36fe)" style="fill: none; stroke: #000000; stroke-width: 2"/>
   </g>
   <g id="line2d_11">
    <defs>
     <path id="md1532c039c" d="M 8 0 
L -8 -0 
" style="stroke: #000000"/>
    </defs>
    <g clip-path="url(#p87755e36fe)">
     <use xlink:href="#md1532c039c" x="94.242227" y="247.22882" style="stroke: #000000"/>
     <use xlink:href="#md1532c039c" x="159.459494" y="249.493517" style="stroke: #000000"/>
     <use xlink:href="#md1532c039c" x="224.676761" y="220.287327" style="stroke: #000000"/>
    </g>
   </g>
   <g id="line2d_12">
    <g clip-path="url(#p87755e36fe)">
     <use xlink:href="#md1532c039c" x="94.242227" y="218.61517" style="stroke: #000000"/>
     <use xlink:href="#md1532c039c" x="159.459494" y="219.037606" style="stroke: #000000"/>
     <use xlink:href="#md1532c039c" x="224.676761" y="197.52434" style="stroke: #000000"/>
    </g>
   </g>
   <g id="text_11">
    <text style="font-weight: 700; font-size: 18px; font-family: 'Helvetica'; text-anchor: middle" x="94.242227" y="22.917521" transform="rotate(-0 94.242227 22.917521)">**</text>
   </g>
   <g id="text_12">
    <text style="font-weight: 700; font-size: 19px; font-family: 'Helvetica'; text-anchor: start" x="61.633594" y="20.874062" transform="rotate(-0 61.633594 20.874062)">A</text>
   </g>
   <g id="PathCollection_4">
    <defs>
     <path id="m98e0c128b7" d="M 0 5 
C 1.326016 5 2.597899 4.473168 3.535534 3.535534 
C 4.473168 2.597899 5 1.326016 5 0 
C 5 -1.326016 4.473168 -2.597899 3.535534 -3.535534 
C 2.597899 -4.473168 1.326016 -5 0 -5 
C -1.326016 -5 -2.597899 -4.473168 -3.535534 -3.535534 
C -4.473168 -2.597899 -5 -1.326016 -5 0 
C -5 1.326016 -4.473168 2.597899 -3.535534 3.535534 
C -2.597899 4.473168 -1.326016 5 0 5 
z
" style="stroke: #000000"/>
    </defs>
    <g clip-path="url(#p87755e36fe)">
     <use xlink:href="#m98e0c128b7" x="94.242227" y="232.921995" style="stroke: #000000"/>
     <use xlink:href="#m98e0c128b7" x="159.459494" y="234.265562" style="stroke: #000000"/>
     <use xlink:href="#m98e0c128b7" x="224.676761" y="208.905833" style="stroke: #000000"/>
    </g>
   </g>
  </g>
  <g id="axes_2">
   <g id="patch_5">
    <path d="M 325.504781 354.107995 
L 521.156582 354.107995 
L 521.156582 32.874062 
L 325.504781 32.874062 
z
" style="fill: #ffffff"/>
   </g>
   <g id="FillBetweenPolyCollection_4">
    <path d="M 445.835059 339.506453 
L 423.618286 339.506453 
L 423.618286 336.556646 
L 423.618286 333.606839 
L 423.618286 330.657033 
L 423.618286 327.707226 
L 423.618286 324.75742 
L 423.618286 321.807613 
L 423.618286 318.857807 
L 423.618286 315.908 
L 423.618286 312.958194 
L 423.618286 310.008387 
L 423.618286 307.058581 
L 423.618286 304.108774 
L 423.618286 301.158967 
L 423.618286 298.209161 
L 423.618286 295.259354 
L 423.618286 292.309548 
L 423.618286 289.359741 
L 423.618286 286.409935 
L 423.618286 283.460128 
L 423.618286 280.510322 
L 423.618286 277.560515 
L 423.618286 274.610709 
L 423.618286 271.660902 
L 423.618286 268.711096 
L 423.618286 265.761289 
L 423.618286 262.811482 
L 423.618286 259.861676 
L 423.618286 256.911869 
L 423.618286 253.962063 
L 423.618286 251.012256 
L 423.618286 248.06245 
L 423.618286 245.112643 
L 423.618286 242.162837 
L 423.618286 239.21303 
L 423.618286 236.263224 
L 423.618286 233.313417 
L 423.618286 230.36361 
L 423.618286 227.413804 
L 423.618286 224.463997 
L 423.618286 221.514191 
L 423.618286 218.564384 
L 423.618286 215.614578 
L 423.618286 212.664771 
L 423.618286 209.714965 
L 423.618286 206.765158 
L 423.618286 203.815352 
L 423.618286 200.865545 
L 423.618286 197.915739 
L 423.618286 194.965932 
L 423.618286 192.016125 
L 423.618286 189.066319 
L 423.618286 186.116512 
L 423.618286 183.166706 
L 423.618286 180.216899 
L 423.618286 177.267093 
L 423.618286 174.317286 
L 423.618286 171.36748 
L 423.618286 168.417673 
L 423.618286 165.467867 
L 423.618286 162.51806 
L 423.618286 159.568253 
L 423.618286 156.618447 
L 423.618286 153.66864 
L 423.618286 150.718834 
L 423.618286 147.769027 
L 423.618286 144.819221 
L 423.618286 141.869414 
L 423.618286 138.919608 
L 423.618286 135.969801 
L 423.618286 133.019995 
L 423.618286 130.070188 
L 423.618286 127.120382 
L 423.618286 124.170575 
L 423.618286 121.220768 
L 423.618286 118.270962 
L 423.618286 115.321155 
L 423.618286 112.371349 
L 423.618286 109.421542 
L 423.618286 106.471736 
L 423.618286 103.521929 
L 423.618286 100.572123 
L 423.618286 97.622316 
L 423.618286 94.67251 
L 423.618286 91.722703 
L 423.618286 88.772896 
L 423.618286 85.82309 
L 423.618286 82.873283 
L 423.618286 79.923477 
L 423.618286 76.97367 
L 423.618286 74.023864 
L 423.618286 71.074057 
L 423.618286 68.124251 
L 423.618286 65.174444 
L 423.618286 62.224638 
L 423.618286 59.274831 
L 423.618286 56.325025 
L 423.618286 53.375218 
L 423.618286 50.425411 
L 423.618286 47.475605 
L 436.705506 47.475605 
L 436.705506 47.475605 
L 436.853718 50.425411 
L 436.981828 53.375218 
L 437.090152 56.325025 
L 437.179202 59.274831 
L 437.249691 62.224638 
L 437.302523 65.174444 
L 437.33879 68.124251 
L 437.359758 71.074057 
L 437.366859 74.023864 
L 437.361679 76.97367 
L 437.345939 79.923477 
L 437.321483 82.873283 
L 437.290255 85.82309 
L 437.254285 88.772896 
L 437.215667 91.722703 
L 437.176539 94.67251 
L 437.139062 97.622316 
L 437.105398 100.572123 
L 437.077695 103.521929 
L 437.058061 106.471736 
L 437.048548 109.421542 
L 437.051131 112.371349 
L 437.067697 115.321155 
L 437.100021 118.270962 
L 437.149757 121.220768 
L 437.218425 124.170575 
L 437.307398 127.120382 
L 437.417893 130.070188 
L 437.550962 133.019995 
L 437.707489 135.969801 
L 437.888182 138.919608 
L 438.093576 141.869414 
L 438.324023 144.819221 
L 438.5797 147.769027 
L 438.860607 150.718834 
L 439.166571 153.66864 
L 439.497251 156.618447 
L 439.85214 159.568253 
L 440.230573 162.51806 
L 440.631734 165.467867 
L 441.054661 168.417673 
L 441.498257 171.36748 
L 441.961294 174.317286 
L 442.442423 177.267093 
L 442.940181 180.216899 
L 443.453004 183.166706 
L 443.979226 186.116512 
L 444.517097 189.066319 
L 445.064783 192.016125 
L 445.620379 194.965932 
L 446.181915 197.915739 
L 446.747361 200.865545 
L 447.314637 203.815352 
L 447.881623 206.765158 
L 448.446158 209.714965 
L 449.006055 212.664771 
L 449.559105 215.614578 
L 450.103083 218.564384 
L 450.635759 221.514191 
L 451.154903 224.463997 
L 451.658292 227.413804 
L 452.143723 230.36361 
L 452.609015 233.313417 
L 453.052024 236.263224 
L 453.470649 239.21303 
L 453.862841 242.162837 
L 454.226616 245.112643 
L 454.560063 248.06245 
L 454.861355 251.012256 
L 455.128761 253.962063 
L 455.360655 256.911869 
L 455.555528 259.861676 
L 455.711999 262.811482 
L 455.828824 265.761289 
L 455.904908 268.711096 
L 455.939315 271.660902 
L 455.931275 274.610709 
L 455.880193 277.560515 
L 455.785659 280.510322 
L 455.647448 283.460128 
L 455.465534 286.409935 
L 455.240087 289.359741 
L 454.971477 292.309548 
L 454.660276 295.259354 
L 454.307256 298.209161 
L 453.91339 301.158967 
L 453.479843 304.108774 
L 453.00797 307.058581 
L 452.499306 310.008387 
L 451.955563 312.958194 
L 451.37861 315.908 
L 450.77047 318.857807 
L 450.133302 321.807613 
L 449.469389 324.75742 
L 448.781118 327.707226 
L 448.070971 330.657033 
L 447.341499 333.606839 
L 446.595313 336.556646 
L 445.835059 339.506453 
z
" clip-path="url(#p860ed9145e)" style="fill: #f0e442; fill-opacity: 0.25"/>
   </g>
   <g id="matplotlib.axis_3">
    <g id="xtick_4">
     <g id="line2d_13">
      <g>
       <use xlink:href="#mb98b262961" x="423.330682" y="354.107995" style="stroke: #000000; stroke-width: 0.8"/>
      </g>
     </g>
     <g id="text_13">
      <text style="font-size: 14px; font-family: 'Helvetica'" transform="translate(381.652261 407.82433) rotate(-45)">Modafinil</text>
     </g>
    </g>
   </g>
   <g id="matplotlib.axis_4">
    <g id="ytick_7">
     <g id="line2d_14">
      <g>
       <use xlink:href="#m9d247a283f" x="325.504781" y="288.441699" style="stroke: #000000; stroke-width: 0.8"/>
      </g>
     </g>
     <g id="text_14">
      <text style="font-size: 14px; font-family: 'Helvetica'; text-anchor: end" x="318.504781" y="293.463105" transform="rotate(-0 318.504781 293.463105)">−0.05</text>
     </g>
    </g>
    <g id="ytick_8">
     <g id="line2d_15">
      <g>
       <use xlink:href="#m9d247a283f" x="325.504781" y="218.175574" style="stroke: #000000; stroke-width: 0.8"/>
      </g>
     </g>
     <g id="text_15">
      <text style="font-size: 14px; font-family: 'Helvetica'; text-anchor: end" x="318.504781" y="223.19698" transform="rotate(-0 318.504781 223.19698)">0.00</text>
     </g>
    </g>
    <g id="ytick_9">
     <g id="line2d_16">
      <g>
       <use xlink:href="#m9d247a283f" x="325.504781" y="147.909449" style="stroke: #000000; stroke-width: 0.8"/>
      </g>
     </g>
     <g id="text_16">
      <text style="font-size: 14px; font-family: 'Helvetica'; text-anchor: end" x="318.504781" y="152.930855" transform="rotate(-0 318.504781 152.930855)">0.05</text>
     </g>
    </g>
    <g id="ytick_10">
     <g id="line2d_17">
      <g>
       <use xlink:href="#m9d247a283f" x="325.504781" y="77.643323" style="stroke: #000000; stroke-width: 0.8"/>
      </g>
     </g>
     <g id="text_17">
      <text style="font-size: 14px; font-family: 'Helvetica'; text-anchor: end" x="318.504781" y="82.66473" transform="rotate(-0 318.504781 82.66473)">0.10</text>
     </g>
    </g>
    <g id="text_18">
     <!-- $\Delta$SE -->
     <g transform="translate(275.520563 210.661029) rotate(-90)">
      <text>
       <tspan x="0" y="-0.390625" style="font-size: 17px; font-family: 'DejaVu Sans'">Δ</tspan>
       <tspan x="11.629395" y="-0.390625" style="font-weight: 700; font-size: 17px; font-family: 'Helvetica'">S</tspan>
       <tspan x="22.968262" y="-0.390625" style="font-weight: 700; font-size: 17px; font-family: 'Helvetica'">E</tspan>
      </text>
     </g>
    </g>
   </g>
   <g id="line2d_18">
    <path d="M 325.504781 218.175574 
L 521.156582 218.175574 
" clip-path="url(#p860ed9145e)" style="fill: none; stroke-dasharray: 5.55,2.4; stroke-dashoffset: 0; stroke: #808080; stroke-opacity: 0.7; stroke-width: 1.5"/>
   </g>
   <g id="PathCollection_5">
    <defs>
     <path id="C3_0_f7be6fac9a" d="M 0 3.872983 
C 1.027127 3.872983 2.012324 3.464901 2.738613 2.738613 
C 3.464901 2.012324 3.872983 1.027127 3.872983 -0 
C 3.872983 -1.027127 3.464901 -2.012324 2.738613 -2.738613 
C 2.012324 -3.464901 1.027127 -3.872983 0 -3.872983 
C -1.027127 -3.872983 -2.012324 -3.464901 -2.738613 -2.738613 
C -3.464901 -2.012324 -3.872983 -1.027127 -3.872983 0 
C -3.872983 1.027127 -3.464901 2.012324 -2.738613 2.738613 
C -2.012324 3.464901 -1.027127 3.872983 0 3.872983 
z
"/>
    </defs>
    <g clip-path="url(#p860ed9145e)">
     <use xlink:href="#C3_0_f7be6fac9a" x="421.694252" y="65.461805" style="fill: #f0e442; fill-opacity: 0.6"/>
    </g>
    <g clip-path="url(#p860ed9145e)">
     <use xlink:href="#C3_0_f7be6fac9a" x="429.209553" y="295.19424" style="fill: #f0e442; fill-opacity: 0.6"/>
    </g>
    <g clip-path="url(#p860ed9145e)">
     <use xlink:href="#C3_0_f7be6fac9a" x="426.356684" y="243.520469" style="fill: #f0e442; fill-opacity: 0.6"/>
    </g>
    <g clip-path="url(#p860ed9145e)">
     <use xlink:href="#C3_0_f7be6fac9a" x="424.617529" y="47.475605" style="fill: #f0e442; fill-opacity: 0.6"/>
    </g>
    <g clip-path="url(#p860ed9145e)">
     <use xlink:href="#C3_0_f7be6fac9a" x="418.843977" y="339.506453" style="fill: #f0e442; fill-opacity: 0.6"/>
    </g>
    <g clip-path="url(#p860ed9145e)">
     <use xlink:href="#C3_0_f7be6fac9a" x="418.843662" y="51.365226" style="fill: #f0e442; fill-opacity: 0.6"/>
    </g>
    <g clip-path="url(#p860ed9145e)">
     <use xlink:href="#C3_0_f7be6fac9a" x="417.566566" y="223.845977" style="fill: #f0e442; fill-opacity: 0.6"/>
    </g>
    <g clip-path="url(#p860ed9145e)">
     <use xlink:href="#C3_0_f7be6fac9a" x="428.106883" y="167.630214" style="fill: #f0e442; fill-opacity: 0.6"/>
    </g>
    <g clip-path="url(#p860ed9145e)">
     <use xlink:href="#C3_0_f7be6fac9a" x="424.649571" y="314.344439" style="fill: #f0e442; fill-opacity: 0.6"/>
    </g>
    <g clip-path="url(#p860ed9145e)">
     <use xlink:href="#C3_0_f7be6fac9a" x="426.044667" y="214.233713" style="fill: #f0e442; fill-opacity: 0.6"/>
    </g>
    <g clip-path="url(#p860ed9145e)">
     <use xlink:href="#C3_0_f7be6fac9a" x="417.077448" y="277.919833" style="fill: #f0e442; fill-opacity: 0.6"/>
    </g>
    <g clip-path="url(#p860ed9145e)">
     <use xlink:href="#C3_0_f7be6fac9a" x="429.459929" y="298.69816" style="fill: #f0e442; fill-opacity: 0.6"/>
    </g>
    <g clip-path="url(#p860ed9145e)">
     <use xlink:href="#C3_0_f7be6fac9a" x="427.666882" y="276.77883" style="fill: #f0e442; fill-opacity: 0.6"/>
    </g>
   </g>
   <g id="patch_6">
    <path d="M 325.504781 354.107995 
L 325.504781 32.874062 
" style="fill: none; stroke: #000000; stroke-width: 1.5; stroke-linejoin: miter; stroke-linecap: square"/>
   </g>
   <g id="patch_7">
    <path d="M 325.504781 354.107995 
L 521.156582 354.107995 
" style="fill: none; stroke: #000000; stroke-width: 1.5; stroke-linejoin: miter; stroke-linecap: square"/>
   </g>
   <g id="LineCollection_2">
    <path d="M 423.330682 245.133351 
L 423.330682 188.093566 
" clip-path="url(#p860ed9145e)" style="fill: none; stroke: #000000; stroke-width: 2"/>
   </g>
   <g id="line2d_19">
    <g clip-path="url(#p860ed9145e)">
     <use xlink:href="#md1532c039c" x="423.330682" y="245.133351" style="stroke: #000000"/>
    </g>
   </g>
   <g id="line2d_20">
    <g clip-path="url(#p860ed9145e)">
     <use xlink:href="#md1532c039c" x="423.330682" y="188.093566" style="stroke: #000000"/>
    </g>
   </g>
   <g id="text_19">
    <text style="font-weight: 700; font-size: 19px; font-family: 'Helvetica'; text-anchor: start" x="325.504781" y="20.874062" transform="rotate(-0 325.504781 20.874062)">B</text>
   </g>
   <g id="PathCollection_6">
    <g clip-path="url(#p860ed9145e)">
     <use xlink:href="#m98e0c128b7" x="423.330682" y="216.613459" style="stroke: #000000"/>
    </g>
   </g>
  </g>
  <g id="axes_3">
   <g id="patch_8">
    <path d="M 589.375969 354.107995 
L 785.02777 354.107995 
L 785.02777 32.874062 
L 589.375969 32.874062 
z
" style="fill: #ffffff"/>
   </g>
   <g id="FillBetweenPolyCollection_5">
    <path d="M 704.928865 339.506453 
L 687.441432 339.506453 
L 687.441432 336.556646 
L 687.441432 333.606839 
L 687.441432 330.657033 
L 687.441432 327.707226 
L 687.441432 324.75742 
L 687.441432 321.807613 
L 687.441432 318.857807 
L 687.441432 315.908 
L 687.441432 312.958194 
L 687.441432 310.008387 
L 687.441432 307.058581 
L 687.441432 304.108774 
L 687.441432 301.158967 
L 687.441432 298.209161 
L 687.441432 295.259354 
L 687.441432 292.309548 
L 687.441432 289.359741 
L 687.441432 286.409935 
L 687.441432 283.460128 
L 687.441432 280.510322 
L 687.441432 277.560515 
L 687.441432 274.610709 
L 687.441432 271.660902 
L 687.441432 268.711096 
L 687.441432 265.761289 
L 687.441432 262.811482 
L 687.441432 259.861676 
L 687.441432 256.911869 
L 687.441432 253.962063 
L 687.441432 251.012256 
L 687.441432 248.06245 
L 687.441432 245.112643 
L 687.441432 242.162837 
L 687.441432 239.21303 
L 687.441432 236.263224 
L 687.441432 233.313417 
L 687.441432 230.36361 
L 687.441432 227.413804 
L 687.441432 224.463997 
L 687.441432 221.514191 
L 687.441432 218.564384 
L 687.441432 215.614578 
L 687.441432 212.664771 
L 687.441432 209.714965 
L 687.441432 206.765158 
L 687.441432 203.815352 
L 687.441432 200.865545 
L 687.441432 197.915739 
L 687.441432 194.965932 
L 687.441432 192.016125 
L 687.441432 189.066319 
L 687.441432 186.116512 
L 687.441432 183.166706 
L 687.441432 180.216899 
L 687.441432 177.267093 
L 687.441432 174.317286 
L 687.441432 171.36748 
L 687.441432 168.417673 
L 687.441432 165.467867 
L 687.441432 162.51806 
L 687.441432 159.568253 
L 687.441432 156.618447 
L 687.441432 153.66864 
L 687.441432 150.718834 
L 687.441432 147.769027 
L 687.441432 144.819221 
L 687.441432 141.869414 
L 687.441432 138.919608 
L 687.441432 135.969801 
L 687.441432 133.019995 
L 687.441432 130.070188 
L 687.441432 127.120382 
L 687.441432 124.170575 
L 687.441432 121.220768 
L 687.441432 118.270962 
L 687.441432 115.321155 
L 687.441432 112.371349 
L 687.441432 109.421542 
L 687.441432 106.471736 
L 687.441432 103.521929 
L 687.441432 100.572123 
L 687.441432 97.622316 
L 687.441432 94.67251 
L 687.441432 91.722703 
L 687.441432 88.772896 
L 687.441432 85.82309 
L 687.441432 82.873283 
L 687.441432 79.923477 
L 687.441432 76.97367 
L 687.441432 74.023864 
L 687.441432 71.074057 
L 687.441432 68.124251 
L 687.441432 65.174444 
L 687.441432 62.224638 
L 687.441432 59.274831 
L 687.441432 56.325025 
L 687.441432 53.375218 
L 687.441432 50.425411 
L 687.441432 47.475605 
L 700.379145 47.475605 
L 700.379145 47.475605 
L 700.712046 50.425411 
L 701.03204 53.375218 
L 701.338722 56.325025 
L 701.631826 59.274831 
L 701.91123 62.224638 
L 702.176952 65.174444 
L 702.429154 68.124251 
L 702.668134 71.074057 
L 702.894327 74.023864 
L 703.108301 76.97367 
L 703.310749 79.923477 
L 703.502486 82.873283 
L 703.684441 85.82309 
L 703.857652 88.772896 
L 704.023254 91.722703 
L 704.182477 94.67251 
L 704.336635 97.622316 
L 704.487117 100.572123 
L 704.635375 103.521929 
L 704.782922 106.471736 
L 704.931312 109.421542 
L 705.082136 112.371349 
L 705.237007 115.321155 
L 705.397544 118.270962 
L 705.565363 121.220768 
L 705.742059 124.170575 
L 705.92919 127.120382 
L 706.128261 130.070188 
L 706.340701 133.019995 
L 706.56785 135.969801 
L 706.810935 138.919608 
L 707.07105 141.869414 
L 707.349136 144.819221 
L 707.645958 147.769027 
L 707.96209 150.718834 
L 708.29789 153.66864 
L 708.653483 156.618447 
L 709.028751 159.568253 
L 709.42331 162.51806 
L 709.836506 165.467867 
L 710.267406 168.417673 
L 710.71479 171.36748 
L 711.177158 174.317286 
L 711.652727 177.267093 
L 712.139445 180.216899 
L 712.635002 183.166706 
L 713.136851 186.116512 
L 713.642225 189.066319 
L 714.14817 192.016125 
L 714.651571 194.965932 
L 715.149189 197.915739 
L 715.637698 200.865545 
L 716.113725 203.815352 
L 716.57389 206.765158 
L 717.014849 209.714965 
L 717.433337 212.664771 
L 717.82621 215.614578 
L 718.190482 218.564384 
L 718.523365 221.514191 
L 718.822305 224.463997 
L 719.085009 227.413804 
L 719.309474 230.36361 
L 719.494005 233.313417 
L 719.637236 236.263224 
L 719.738134 239.21303 
L 719.796007 242.162837 
L 719.810503 245.112643 
L 719.781599 248.06245 
L 719.709594 251.012256 
L 719.595086 253.962063 
L 719.438955 256.911869 
L 719.242332 259.861676 
L 719.006576 262.811482 
L 718.733239 265.761289 
L 718.424033 268.711096 
L 718.080801 271.660902 
L 717.705477 274.610709 
L 717.300057 277.560515 
L 716.86657 280.510322 
L 716.407045 283.460128 
L 715.923487 286.409935 
L 715.417855 289.359741 
L 714.89204 292.309548 
L 714.347854 295.259354 
L 713.787015 298.209161 
L 713.211142 301.158967 
L 712.621751 304.108774 
L 712.020255 307.058581 
L 711.407968 310.008387 
L 710.786111 312.958194 
L 710.155823 315.908 
L 709.518169 318.857807 
L 708.874158 321.807613 
L 708.224749 324.75742 
L 707.570871 327.707226 
L 706.913435 330.657033 
L 706.253346 333.606839 
L 705.591513 336.556646 
L 704.928865 339.506453 
z
" clip-path="url(#p40bc46e79b)" style="fill: #009e73; fill-opacity: 0.25"/>
   </g>
   <g id="matplotlib.axis_5">
    <g id="xtick_5">
     <g id="line2d_21">
      <g>
       <use xlink:href="#mb98b262961" x="687.201869" y="354.107995" style="stroke: #000000; stroke-width: 0.8"/>
      </g>
     </g>
     <g id="text_20">
      <text style="font-size: 14px; font-family: 'Helvetica'" transform="translate(665.880832 387.466947) rotate(-45)">LSD</text>
     </g>
    </g>
   </g>
   <g id="matplotlib.axis_6">
    <g id="ytick_11">
     <g id="line2d_22">
      <g>
       <use xlink:href="#m9d247a283f" x="589.375969" y="334.527647" style="stroke: #000000; stroke-width: 0.8"/>
      </g>
     </g>
     <g id="text_21">
      <text style="font-size: 14px; font-family: 'Helvetica'; text-anchor: end" x="582.375969" y="339.549053" transform="rotate(-0 582.375969 339.549053)">−0.15</text>
     </g>
    </g>
    <g id="ytick_12">
     <g id="line2d_23">
      <g>
       <use xlink:href="#m9d247a283f" x="589.375969" y="264.673645" style="stroke: #000000; stroke-width: 0.8"/>
      </g>
     </g>
     <g id="text_22">
      <text style="font-size: 14px; font-family: 'Helvetica'; text-anchor: end" x="582.375969" y="269.695051" transform="rotate(-0 582.375969 269.695051)">−0.10</text>
     </g>
    </g>
    <g id="ytick_13">
     <g id="line2d_24">
      <g>
       <use xlink:href="#m9d247a283f" x="589.375969" y="194.819644" style="stroke: #000000; stroke-width: 0.8"/>
      </g>
     </g>
     <g id="text_23">
      <text style="font-size: 14px; font-family: 'Helvetica'; text-anchor: end" x="582.375969" y="199.84105" transform="rotate(-0 582.375969 199.84105)">−0.05</text>
     </g>
    </g>
    <g id="ytick_14">
     <g id="line2d_25">
      <g>
       <use xlink:href="#m9d247a283f" x="589.375969" y="124.965642" style="stroke: #000000; stroke-width: 0.8"/>
      </g>
     </g>
     <g id="text_24">
      <text style="font-size: 14px; font-family: 'Helvetica'; text-anchor: end" x="582.375969" y="129.987048" transform="rotate(-0 582.375969 129.987048)">0.00</text>
     </g>
    </g>
    <g id="ytick_15">
     <g id="line2d_26">
      <g>
       <use xlink:href="#m9d247a283f" x="589.375969" y="55.11164" style="stroke: #000000; stroke-width: 0.8"/>
      </g>
     </g>
     <g id="text_25">
      <text style="font-size: 14px; font-family: 'Helvetica'; text-anchor: end" x="582.375969" y="60.133047" transform="rotate(-0 582.375969 60.133047)">0.05</text>
     </g>
    </g>
    <g id="text_26">
     <!-- $\Delta$SE -->
     <g transform="translate(539.39175 210.661029) rotate(-90)">
      <text>
       <tspan x="0" y="-0.390625" style="font-size: 17px; font-family: 'DejaVu Sans'">Δ</tspan>
       <tspan x="11.629395" y="-0.390625" style="font-weight: 700; font-size: 17px; font-family: 'Helvetica'">S</tspan>
       <tspan x="22.968262" y="-0.390625" style="font-weight: 700; font-size: 17px; font-family: 'Helvetica'">E</tspan>
      </text>
     </g>
    </g>
   </g>
   <g id="line2d_27">
    <path d="M 589.375969 124.965642 
L 785.02777 124.965642 
" clip-path="url(#p40bc46e79b)" style="fill: none; stroke-dasharray: 5.55,2.4; stroke-dashoffset: 0; stroke: #808080; stroke-opacity: 0.7; stroke-width: 1.5"/>
   </g>
   <g id="PathCollection_7">
    <defs>
     <path id="C4_0_5e5c76abb9" d="M 0 3.872983 
C 1.027127 3.872983 2.012324 3.464901 2.738613 2.738613 
C 3.464901 2.012324 3.872983 1.027127 3.872983 -0 
C 3.872983 -1.027127 3.464901 -2.012324 2.738613 -2.738613 
C 2.012324 -3.464901 1.027127 -3.872983 0 -3.872983 
C -1.027127 -3.872983 -2.012324 -3.464901 -2.738613 -2.738613 
C -3.464901 -2.012324 -3.872983 -1.027127 -3.872983 0 
C -3.872983 1.027127 -3.464901 2.012324 -2.738613 2.738613 
C -2.012324 3.464901 -1.027127 3.872983 0 3.872983 
z
"/>
    </defs>
    <g clip-path="url(#p40bc46e79b)">
     <use xlink:href="#C4_0_5e5c76abb9" x="685.565439" y="271.106874" style="fill: #009e73; fill-opacity: 0.6"/>
    </g>
    <g clip-path="url(#p40bc46e79b)">
     <use xlink:href="#C4_0_5e5c76abb9" x="693.08074" y="339.506453" style="fill: #009e73; fill-opacity: 0.6"/>
    </g>
    <g clip-path="url(#p40bc46e79b)">
     <use xlink:href="#C4_0_5e5c76abb9" x="690.227872" y="94.657439" style="fill: #009e73; fill-opacity: 0.6"/>
    </g>
    <g clip-path="url(#p40bc46e79b)">
     <use xlink:href="#C4_0_5e5c76abb9" x="688.488717" y="135.181922" style="fill: #009e73; fill-opacity: 0.6"/>
    </g>
    <g clip-path="url(#p40bc46e79b)">
     <use xlink:href="#C4_0_5e5c76abb9" x="682.715165" y="236.441437" style="fill: #009e73; fill-opacity: 0.6"/>
    </g>
    <g clip-path="url(#p40bc46e79b)">
     <use xlink:href="#C4_0_5e5c76abb9" x="682.71485" y="49.486092" style="fill: #009e73; fill-opacity: 0.6"/>
    </g>
    <g clip-path="url(#p40bc46e79b)">
     <use xlink:href="#C4_0_5e5c76abb9" x="681.437754" y="322.531178" style="fill: #009e73; fill-opacity: 0.6"/>
    </g>
    <g clip-path="url(#p40bc46e79b)">
     <use xlink:href="#C4_0_5e5c76abb9" x="691.978071" y="224.138038" style="fill: #009e73; fill-opacity: 0.6"/>
    </g>
    <g clip-path="url(#p40bc46e79b)">
     <use xlink:href="#C4_0_5e5c76abb9" x="688.520758" y="241.175562" style="fill: #009e73; fill-opacity: 0.6"/>
    </g>
    <g clip-path="url(#p40bc46e79b)">
     <use xlink:href="#C4_0_5e5c76abb9" x="689.915854" y="238.527337" style="fill: #009e73; fill-opacity: 0.6"/>
    </g>
    <g clip-path="url(#p40bc46e79b)">
     <use xlink:href="#C4_0_5e5c76abb9" x="680.948636" y="47.475605" style="fill: #009e73; fill-opacity: 0.6"/>
    </g>
    <g clip-path="url(#p40bc46e79b)">
     <use xlink:href="#C4_0_5e5c76abb9" x="693.331117" y="246.34169" style="fill: #009e73; fill-opacity: 0.6"/>
    </g>
    <g clip-path="url(#p40bc46e79b)">
     <use xlink:href="#C4_0_5e5c76abb9" x="691.538069" y="144.636703" style="fill: #009e73; fill-opacity: 0.6"/>
    </g>
    <g clip-path="url(#p40bc46e79b)">
     <use xlink:href="#C4_0_5e5c76abb9" x="683.449778" y="319.954419" style="fill: #009e73; fill-opacity: 0.6"/>
    </g>
    <g clip-path="url(#p40bc46e79b)">
     <use xlink:href="#C4_0_5e5c76abb9" x="683.051768" y="207.702052" style="fill: #009e73; fill-opacity: 0.6"/>
    </g>
   </g>
   <g id="patch_9">
    <path d="M 589.375969 354.107995 
L 589.375969 32.874062 
" style="fill: none; stroke: #000000; stroke-width: 1.5; stroke-linejoin: miter; stroke-linecap: square"/>
   </g>
   <g id="patch_10">
    <path d="M 589.375969 354.107995 
L 785.02777 354.107995 
" style="fill: none; stroke: #000000; stroke-width: 1.5; stroke-linejoin: miter; stroke-linecap: square"/>
   </g>
   <g id="LineCollection_3">
    <path d="M 687.201869 232.278539 
L 687.201869 183.569834 
" clip-path="url(#p40bc46e79b)" style="fill: none; stroke: #000000; stroke-width: 2"/>
   </g>
   <g id="line2d_28">
    <g clip-path="url(#p40bc46e79b)">
     <use xlink:href="#md1532c039c" x="687.201869" y="232.278539" style="stroke: #000000"/>
    </g>
   </g>
   <g id="line2d_29">
    <g clip-path="url(#p40bc46e79b)">
     <use xlink:href="#md1532c039c" x="687.201869" y="183.569834" style="stroke: #000000"/>
    </g>
   </g>
   <g id="text_27">
    <text style="font-weight: 700; font-size: 18px; font-family: 'Helvetica'; text-anchor: middle" x="687.201869" y="20.341575" transform="rotate(-0 687.201869 20.341575)">**</text>
   </g>
   <g id="text_28">
    <text style="font-weight: 700; font-size: 19px; font-family: 'Helvetica'; text-anchor: start" x="589.375969" y="20.874062" transform="rotate(-0 589.375969 20.874062)">C</text>
   </g>
   <g id="PathCollection_8">
    <g clip-path="url(#p40bc46e79b)">
     <use xlink:href="#m98e0c128b7" x="687.201869" y="207.924187" style="stroke: #000000"/>
    </g>
   </g>
  </g>
  <g id="axes_4">
   <g id="patch_11">
    <path d="M 845.461844 354.107995 
L 1041.113645 354.107995 
L 1041.113645 32.874062 
L 845.461844 32.874062 
z
" style="fill: #ffffff"/>
   </g>
   <g id="FillBetweenPolyCollection_6">
    <path d="M 946.243697 339.506453 
L 943.344262 339.506453 
L 943.344262 336.556646 
L 943.344262 333.606839 
L 943.344262 330.657033 
L 943.344262 327.707226 
L 943.344262 324.75742 
L 943.344262 321.807613 
L 943.344262 318.857807 
L 943.344262 315.908 
L 943.344262 312.958194 
L 943.344262 310.008387 
L 943.344262 307.058581 
L 943.344262 304.108774 
L 943.344262 301.158967 
L 943.344262 298.209161 
L 943.344262 295.259354 
L 943.344262 292.309548 
L 943.344262 289.359741 
L 943.344262 286.409935 
L 943.344262 283.460128 
L 943.344262 280.510322 
L 943.344262 277.560515 
L 943.344262 274.610709 
L 943.344262 271.660902 
L 943.344262 268.711096 
L 943.344262 265.761289 
L 943.344262 262.811482 
L 943.344262 259.861676 
L 943.344262 256.911869 
L 943.344262 253.962063 
L 943.344262 251.012256 
L 943.344262 248.06245 
L 943.344262 245.112643 
L 943.344262 242.162837 
L 943.344262 239.21303 
L 943.344262 236.263224 
L 943.344262 233.313417 
L 943.344262 230.36361 
L 943.344262 227.413804 
L 943.344262 224.463997 
L 943.344262 221.514191 
L 943.344262 218.564384 
L 943.344262 215.614578 
L 943.344262 212.664771 
L 943.344262 209.714965 
L 943.344262 206.765158 
L 943.344262 203.815352 
L 943.344262 200.865545 
L 943.344262 197.915739 
L 943.344262 194.965932 
L 943.344262 192.016125 
L 943.344262 189.066319 
L 943.344262 186.116512 
L 943.344262 183.166706 
L 943.344262 180.216899 
L 943.344262 177.267093 
L 943.344262 174.317286 
L 943.344262 171.36748 
L 943.344262 168.417673 
L 943.344262 165.467867 
L 943.344262 162.51806 
L 943.344262 159.568253 
L 943.344262 156.618447 
L 943.344262 153.66864 
L 943.344262 150.718834 
L 943.344262 147.769027 
L 943.344262 144.819221 
L 943.344262 141.869414 
L 943.344262 138.919608 
L 943.344262 135.969801 
L 943.344262 133.019995 
L 943.344262 130.070188 
L 943.344262 127.120382 
L 943.344262 124.170575 
L 943.344262 121.220768 
L 943.344262 118.270962 
L 943.344262 115.321155 
L 943.344262 112.371349 
L 943.344262 109.421542 
L 943.344262 106.471736 
L 943.344262 103.521929 
L 943.344262 100.572123 
L 943.344262 97.622316 
L 943.344262 94.67251 
L 943.344262 91.722703 
L 943.344262 88.772896 
L 943.344262 85.82309 
L 943.344262 82.873283 
L 943.344262 79.923477 
L 943.344262 76.97367 
L 943.344262 74.023864 
L 943.344262 71.074057 
L 943.344262 68.124251 
L 943.344262 65.174444 
L 943.344262 62.224638 
L 943.344262 59.274831 
L 943.344262 56.325025 
L 943.344262 53.375218 
L 943.344262 50.425411 
L 943.344262 47.475605 
L 948.848999 47.475605 
L 948.848999 47.475605 
L 949.08718 50.425411 
L 949.316595 53.375218 
L 949.53848 56.325025 
L 949.754825 59.274831 
L 949.968369 62.224638 
L 950.182586 65.174444 
L 950.401635 68.124251 
L 950.630293 71.074057 
L 950.873854 74.023864 
L 951.138017 76.97367 
L 951.428744 79.923477 
L 951.752109 82.873283 
L 952.114131 85.82309 
L 952.520598 88.772896 
L 952.976886 91.722703 
L 953.487781 94.67251 
L 954.057302 97.622316 
L 954.688539 100.572123 
L 955.383495 103.521929 
L 956.142957 106.471736 
L 956.966388 109.421542 
L 957.85184 112.371349 
L 958.795907 115.321155 
L 959.79371 118.270962 
L 960.838917 121.220768 
L 961.923809 124.170575 
L 963.039376 127.120382 
L 964.175465 130.070188 
L 965.320955 133.019995 
L 966.463966 135.969801 
L 967.592103 138.919608 
L 968.692709 141.869414 
L 969.753143 144.819221 
L 970.761045 147.769027 
L 971.704614 150.718834 
L 972.572849 153.66864 
L 973.355783 156.618447 
L 974.04467 159.568253 
L 974.632138 162.51806 
L 975.112302 165.467867 
L 975.480823 168.417673 
L 975.734923 171.36748 
L 975.873365 174.317286 
L 975.896378 177.267093 
L 975.805567 180.216899 
L 975.603784 183.166706 
L 975.294987 186.116512 
L 974.884092 189.066319 
L 974.376818 192.016125 
L 973.779537 194.965932 
L 973.099142 197.915739 
L 972.342914 200.865545 
L 971.518416 203.815352 
L 970.6334 206.765158 
L 969.695721 209.714965 
L 968.713273 212.664771 
L 967.693929 215.614578 
L 966.645487 218.564384 
L 965.575627 221.514191 
L 964.491856 224.463997 
L 963.401469 227.413804 
L 962.311493 230.36361 
L 961.228646 233.313417 
L 960.159282 236.263224 
L 959.109351 239.21303 
L 958.084348 242.162837 
L 957.089282 245.112643 
L 956.128644 248.06245 
L 955.206385 251.012256 
L 954.325904 253.962063 
L 953.490049 256.911869 
L 952.70112 259.861676 
L 951.96089 262.811482 
L 951.270618 265.761289 
L 950.631082 268.711096 
L 950.042599 271.660902 
L 949.505059 274.610709 
L 949.017941 277.560515 
L 948.580342 280.510322 
L 948.190992 283.460128 
L 947.848269 286.409935 
L 947.550213 289.359741 
L 947.294535 292.309548 
L 947.078633 295.259354 
L 946.899602 298.209161 
L 946.75426 301.158967 
L 946.639171 304.108774 
L 946.550685 307.058581 
L 946.484975 310.008387 
L 946.438101 312.958194 
L 946.406063 315.908 
L 946.384878 318.857807 
L 946.370652 321.807613 
L 946.359659 324.75742 
L 946.348415 327.707226 
L 946.333755 330.657033 
L 946.312898 333.606839 
L 946.283499 336.556646 
L 946.243697 339.506453 
z
" clip-path="url(#p1b1ff9300d)" style="fill: #cc79a7; fill-opacity: 0.25"/>
   </g>
   <g id="matplotlib.axis_7">
    <g id="xtick_6">
     <g id="line2d_30">
      <g>
       <use xlink:href="#mb98b262961" x="943.287744" y="354.107995" style="stroke: #000000; stroke-width: 0.8"/>
      </g>
     </g>
     <g id="text_29">
      <text style="font-size: 14px; font-family: 'Helvetica'" transform="translate(919.782631 389.651023) rotate(-45)">DMT</text>
     </g>
    </g>
   </g>
   <g id="matplotlib.axis_8">
    <g id="ytick_16">
     <g id="line2d_31">
      <g>
       <use xlink:href="#m9d247a283f" x="845.461844" y="327.636026" style="stroke: #000000; stroke-width: 0.8"/>
      </g>
     </g>
     <g id="text_30">
      <text style="font-size: 14px; font-family: 'Helvetica'; text-anchor: end" x="838.461844" y="332.657432" transform="rotate(-0 838.461844 332.657432)">−0.4</text>
     </g>
    </g>
    <g id="ytick_17">
     <g id="line2d_32">
      <g>
       <use xlink:href="#m9d247a283f" x="845.461844" y="278.335296" style="stroke: #000000; stroke-width: 0.8"/>
      </g>
     </g>
     <g id="text_31">
      <text style="font-size: 14px; font-family: 'Helvetica'; text-anchor: end" x="838.461844" y="283.356702" transform="rotate(-0 838.461844 283.356702)">−0.3</text>
     </g>
    </g>
    <g id="ytick_18">
     <g id="line2d_33">
      <g>
       <use xlink:href="#m9d247a283f" x="845.461844" y="229.034567" style="stroke: #000000; stroke-width: 0.8"/>
      </g>
     </g>
     <g id="text_32">
      <text style="font-size: 14px; font-family: 'Helvetica'; text-anchor: end" x="838.461844" y="234.055973" transform="rotate(-0 838.461844 234.055973)">−0.2</text>
     </g>
    </g>
    <g id="ytick_19">
     <g id="line2d_34">
      <g>
       <use xlink:href="#m9d247a283f" x="845.461844" y="179.733837" style="stroke: #000000; stroke-width: 0.8"/>
      </g>
     </g>
     <g id="text_33">
      <text style="font-size: 14px; font-family: 'Helvetica'; text-anchor: end" x="838.461844" y="184.755243" transform="rotate(-0 838.461844 184.755243)">−0.1</text>
     </g>
    </g>
    <g id="ytick_20">
     <g id="line2d_35">
      <g>
       <use xlink:href="#m9d247a283f" x="845.461844" y="130.433108" style="stroke: #000000; stroke-width: 0.8"/>
      </g>
     </g>
     <g id="text_34">
      <text style="font-size: 14px; font-family: 'Helvetica'; text-anchor: end" x="838.461844" y="135.454514" transform="rotate(-0 838.461844 135.454514)">0.0</text>
     </g>
    </g>
    <g id="ytick_21">
     <g id="line2d_36">
      <g>
       <use xlink:href="#m9d247a283f" x="845.461844" y="81.132378" style="stroke: #000000; stroke-width: 0.8"/>
      </g>
     </g>
     <g id="text_35">
      <text style="font-size: 14px; font-family: 'Helvetica'; text-anchor: end" x="838.461844" y="86.153785" transform="rotate(-0 838.461844 86.153785)">0.1</text>
     </g>
    </g>
    <g id="text_36">
     <!-- $\Delta$SE -->
     <g transform="translate(803.262938 210.661029) rotate(-90)">
      <text>
       <tspan x="0" y="-0.390625" style="font-size: 17px; font-family: 'DejaVu Sans'">Δ</tspan>
       <tspan x="11.629395" y="-0.390625" style="font-weight: 700; font-size: 17px; font-family: 'Helvetica'">S</tspan>
       <tspan x="22.968262" y="-0.390625" style="font-weight: 700; font-size: 17px; font-family: 'Helvetica'">E</tspan>
      </text>
     </g>
    </g>
   </g>
   <g id="line2d_37">
    <path d="M 845.461844 130.433108 
L 1041.113645 130.433108 
" clip-path="url(#p1b1ff9300d)" style="fill: none; stroke-dasharray: 5.55,2.4; stroke-dashoffset: 0; stroke: #808080; stroke-opacity: 0.7; stroke-width: 1.5"/>
   </g>
   <g id="PathCollection_9">
    <defs>
     <path id="C5_0_01ffb44adf" d="M 0 3.872983 
C 1.027127 3.872983 2.012324 3.464901 2.738613 2.738613 
C 3.464901 2.012324 3.872983 1.027127 3.872983 -0 
C 3.872983 -1.027127 3.464901 -2.012324 2.738613 -2.738613 
C 2.012324 -3.464901 1.027127 -3.872983 0 -3.872983 
C -1.027127 -3.872983 -2.012324 -3.464901 -2.738613 -2.738613 
C -3.464901 -2.012324 -3.872983 -1.027127 -3.872983 0 
C -3.872983 1.027127 -3.464901 2.012324 -2.738613 2.738613 
C -2.012324 3.464901 -1.027127 3.872983 0 3.872983 
z
"/>
    </defs>
    <g clip-path="url(#p1b1ff9300d)">
     <use xlink:href="#C5_0_01ffb44adf" x="941.651314" y="159.23836" style="fill: #cc79a7; fill-opacity: 0.6"/>
    </g>
    <g clip-path="url(#p1b1ff9300d)">
     <use xlink:href="#C5_0_01ffb44adf" x="949.166615" y="219.488268" style="fill: #cc79a7; fill-opacity: 0.6"/>
    </g>
    <g clip-path="url(#p1b1ff9300d)">
     <use xlink:href="#C5_0_01ffb44adf" x="946.313747" y="163.396723" style="fill: #cc79a7; fill-opacity: 0.6"/>
    </g>
    <g clip-path="url(#p1b1ff9300d)">
     <use xlink:href="#C5_0_01ffb44adf" x="944.574592" y="132.749694" style="fill: #cc79a7; fill-opacity: 0.6"/>
    </g>
    <g clip-path="url(#p1b1ff9300d)">
     <use xlink:href="#C5_0_01ffb44adf" x="938.80104" y="115.594134" style="fill: #cc79a7; fill-opacity: 0.6"/>
    </g>
    <g clip-path="url(#p1b1ff9300d)">
     <use xlink:href="#C5_0_01ffb44adf" x="938.800725" y="181.682403" style="fill: #cc79a7; fill-opacity: 0.6"/>
    </g>
    <g clip-path="url(#p1b1ff9300d)">
     <use xlink:href="#C5_0_01ffb44adf" x="937.523629" y="159.396358" style="fill: #cc79a7; fill-opacity: 0.6"/>
    </g>
    <g clip-path="url(#p1b1ff9300d)">
     <use xlink:href="#C5_0_01ffb44adf" x="948.063946" y="218.590306" style="fill: #cc79a7; fill-opacity: 0.6"/>
    </g>
    <g clip-path="url(#p1b1ff9300d)">
     <use xlink:href="#C5_0_01ffb44adf" x="944.606633" y="47.475605" style="fill: #cc79a7; fill-opacity: 0.6"/>
    </g>
    <g clip-path="url(#p1b1ff9300d)">
     <use xlink:href="#C5_0_01ffb44adf" x="946.001729" y="160.525223" style="fill: #cc79a7; fill-opacity: 0.6"/>
    </g>
    <g clip-path="url(#p1b1ff9300d)">
     <use xlink:href="#C5_0_01ffb44adf" x="937.034511" y="160.439517" style="fill: #cc79a7; fill-opacity: 0.6"/>
    </g>
    <g clip-path="url(#p1b1ff9300d)">
     <use xlink:href="#C5_0_01ffb44adf" x="949.416992" y="339.506453" style="fill: #cc79a7; fill-opacity: 0.6"/>
    </g>
    <g clip-path="url(#p1b1ff9300d)">
     <use xlink:href="#C5_0_01ffb44adf" x="947.623944" y="207.197553" style="fill: #cc79a7; fill-opacity: 0.6"/>
    </g>
    <g clip-path="url(#p1b1ff9300d)">
     <use xlink:href="#C5_0_01ffb44adf" x="939.535653" y="218.414086" style="fill: #cc79a7; fill-opacity: 0.6"/>
    </g>
    <g clip-path="url(#p1b1ff9300d)">
     <use xlink:href="#C5_0_01ffb44adf" x="939.137643" y="177.714217" style="fill: #cc79a7; fill-opacity: 0.6"/>
    </g>
    <g clip-path="url(#p1b1ff9300d)">
     <use xlink:href="#C5_0_01ffb44adf" x="939.158246" y="189.042303" style="fill: #cc79a7; fill-opacity: 0.6"/>
    </g>
    <g clip-path="url(#p1b1ff9300d)">
     <use xlink:href="#C5_0_01ffb44adf" x="940.734387" y="198.018163" style="fill: #cc79a7; fill-opacity: 0.6"/>
    </g>
    <g clip-path="url(#p1b1ff9300d)">
     <use xlink:href="#C5_0_01ffb44adf" x="943.610654" y="260.126391" style="fill: #cc79a7; fill-opacity: 0.6"/>
    </g>
    <g clip-path="url(#p1b1ff9300d)">
     <use xlink:href="#C5_0_01ffb44adf" x="942.400072" y="156.626994" style="fill: #cc79a7; fill-opacity: 0.6"/>
    </g>
    <g clip-path="url(#p1b1ff9300d)">
     <use xlink:href="#C5_0_01ffb44adf" x="940.564651" y="70.243531" style="fill: #cc79a7; fill-opacity: 0.6"/>
    </g>
   </g>
   <g id="patch_12">
    <path d="M 845.461844 354.107995 
L 845.461844 32.874062 
" style="fill: none; stroke: #000000; stroke-width: 1.5; stroke-linejoin: miter; stroke-linecap: square"/>
   </g>
   <g id="patch_13">
    <path d="M 845.461844 354.107995 
L 1041.113645 354.107995 
" style="fill: none; stroke: #000000; stroke-width: 1.5; stroke-linejoin: miter; stroke-linecap: square"/>
   </g>
   <g id="LineCollection_4">
    <path d="M 943.287744 190.893287 
L 943.287744 162.653341 
" clip-path="url(#p1b1ff9300d)" style="fill: none; stroke: #000000; stroke-width: 2"/>
   </g>
   <g id="line2d_38">
    <g clip-path="url(#p1b1ff9300d)">
     <use xlink:href="#md1532c039c" x="943.287744" y="190.893287" style="stroke: #000000"/>
    </g>
   </g>
   <g id="line2d_39">
    <g clip-path="url(#p1b1ff9300d)">
     <use xlink:href="#md1532c039c" x="943.287744" y="162.653341" style="stroke: #000000"/>
    </g>
   </g>
   <g id="text_37">
    <text style="font-weight: 700; font-size: 18px; font-family: 'Helvetica'; text-anchor: middle" x="943.287744" y="20.341575" transform="rotate(-0 943.287744 20.341575)">**</text>
   </g>
   <g id="text_38">
    <text style="font-weight: 700; font-size: 19px; font-family: 'Helvetica'; text-anchor: start" x="845.461844" y="20.874062" transform="rotate(-0 845.461844 20.874062)">D</text>
   </g>
   <g id="PathCollection_10">
    <g clip-path="url(#p1b1ff9300d)">
     <use xlink:href="#m98e0c128b7" x="943.287744" y="176.773314" style="stroke: #000000"/>
    </g>
   </g>
  </g>
  <g id="axes_5">
   <g id="patch_14">
    <path d="M 1101.547719 354.107995 
L 1297.19952 354.107995 
L 1297.19952 32.874062 
L 1101.547719 32.874062 
z
" style="fill: #ffffff"/>
   </g>
   <g id="FillBetweenPolyCollection_7">
    <path d="M 1204.112389 339.506453 
L 1199.429029 339.506453 
L 1199.429029 336.556646 
L 1199.429029 333.606839 
L 1199.429029 330.657033 
L 1199.429029 327.707226 
L 1199.429029 324.75742 
L 1199.429029 321.807613 
L 1199.429029 318.857807 
L 1199.429029 315.908 
L 1199.429029 312.958194 
L 1199.429029 310.008387 
L 1199.429029 307.058581 
L 1199.429029 304.108774 
L 1199.429029 301.158967 
L 1199.429029 298.209161 
L 1199.429029 295.259354 
L 1199.429029 292.309548 
L 1199.429029 289.359741 
L 1199.429029 286.409935 
L 1199.429029 283.460128 
L 1199.429029 280.510322 
L 1199.429029 277.560515 
L 1199.429029 274.610709 
L 1199.429029 271.660902 
L 1199.429029 268.711096 
L 1199.429029 265.761289 
L 1199.429029 262.811482 
L 1199.429029 259.861676 
L 1199.429029 256.911869 
L 1199.429029 253.962063 
L 1199.429029 251.012256 
L 1199.429029 248.06245 
L 1199.429029 245.112643 
L 1199.429029 242.162837 
L 1199.429029 239.21303 
L 1199.429029 236.263224 
L 1199.429029 233.313417 
L 1199.429029 230.36361 
L 1199.429029 227.413804 
L 1199.429029 224.463997 
L 1199.429029 221.514191 
L 1199.429029 218.564384 
L 1199.429029 215.614578 
L 1199.429029 212.664771 
L 1199.429029 209.714965 
L 1199.429029 206.765158 
L 1199.429029 203.815352 
L 1199.429029 200.865545 
L 1199.429029 197.915739 
L 1199.429029 194.965932 
L 1199.429029 192.016125 
L 1199.429029 189.066319 
L 1199.429029 186.116512 
L 1199.429029 183.166706 
L 1199.429029 180.216899 
L 1199.429029 177.267093 
L 1199.429029 174.317286 
L 1199.429029 171.36748 
L 1199.429029 168.417673 
L 1199.429029 165.467867 
L 1199.429029 162.51806 
L 1199.429029 159.568253 
L 1199.429029 156.618447 
L 1199.429029 153.66864 
L 1199.429029 150.718834 
L 1199.429029 147.769027 
L 1199.429029 144.819221 
L 1199.429029 141.869414 
L 1199.429029 138.919608 
L 1199.429029 135.969801 
L 1199.429029 133.019995 
L 1199.429029 130.070188 
L 1199.429029 127.120382 
L 1199.429029 124.170575 
L 1199.429029 121.220768 
L 1199.429029 118.270962 
L 1199.429029 115.321155 
L 1199.429029 112.371349 
L 1199.429029 109.421542 
L 1199.429029 106.471736 
L 1199.429029 103.521929 
L 1199.429029 100.572123 
L 1199.429029 97.622316 
L 1199.429029 94.67251 
L 1199.429029 91.722703 
L 1199.429029 88.772896 
L 1199.429029 85.82309 
L 1199.429029 82.873283 
L 1199.429029 79.923477 
L 1199.429029 76.97367 
L 1199.429029 74.023864 
L 1199.429029 71.074057 
L 1199.429029 68.124251 
L 1199.429029 65.174444 
L 1199.429029 62.224638 
L 1199.429029 59.274831 
L 1199.429029 56.325025 
L 1199.429029 53.375218 
L 1199.429029 50.425411 
L 1199.429029 47.475605 
L 1201.144142 47.475605 
L 1201.144142 47.475605 
L 1201.218743 50.425411 
L 1201.290126 53.375218 
L 1201.360317 56.325025 
L 1201.431844 59.274831 
L 1201.507656 62.224638 
L 1201.591025 65.174444 
L 1201.68544 68.124251 
L 1201.794494 71.074057 
L 1201.921775 74.023864 
L 1202.070764 76.97367 
L 1202.244729 79.923477 
L 1202.446638 82.873283 
L 1202.679066 85.82309 
L 1202.944107 88.772896 
L 1203.243298 91.722703 
L 1203.57754 94.67251 
L 1203.947038 97.622316 
L 1204.351258 100.572123 
L 1204.788911 103.521929 
L 1205.257969 106.471736 
L 1205.755736 109.421542 
L 1206.278955 112.371349 
L 1206.823977 115.321155 
L 1207.386966 118.270962 
L 1207.964148 121.220768 
L 1208.552082 124.170575 
L 1209.147924 127.120382 
L 1209.749681 130.070188 
L 1210.35642 133.019995 
L 1210.968409 135.969801 
L 1211.587181 138.919608 
L 1212.215504 141.869414 
L 1212.857252 144.819221 
L 1213.517177 147.769027 
L 1214.200603 150.718834 
L 1214.913042 153.66864 
L 1215.659764 156.618447 
L 1216.445345 159.568253 
L 1217.273216 162.51806 
L 1218.145246 165.467867 
L 1219.061378 168.417673 
L 1220.019343 171.36748 
L 1221.014476 174.317286 
L 1222.03964 177.267093 
L 1223.085269 180.216899 
L 1224.139539 183.166706 
L 1225.188653 186.116512 
L 1226.217241 189.066319 
L 1227.208854 192.016125 
L 1228.146528 194.965932 
L 1229.013407 197.915739 
L 1229.793371 200.865545 
L 1230.471663 203.815352 
L 1231.035467 206.765158 
L 1231.474404 209.714965 
L 1231.780932 212.664771 
L 1231.950615 215.614578 
L 1231.982253 218.564384 
L 1231.877864 221.514191 
L 1231.642518 224.463997 
L 1231.284037 227.413804 
L 1230.812574 230.36361 
L 1230.240111 233.313417 
L 1229.579883 236.263224 
L 1228.845786 239.21303 
L 1228.051783 242.162837 
L 1227.211361 245.112643 
L 1226.337052 248.06245 
L 1225.440053 251.012256 
L 1224.529961 253.962063 
L 1223.614633 256.911869 
L 1222.700165 259.861676 
L 1221.790999 262.811482 
L 1220.890121 265.761289 
L 1219.999343 268.711096 
L 1219.119628 271.660902 
L 1218.251433 274.610709 
L 1217.395039 277.560515 
L 1216.550828 280.510322 
L 1215.719496 283.460128 
L 1214.902177 286.409935 
L 1214.10048 289.359741 
L 1213.316432 292.309548 
L 1212.552345 295.259354 
L 1211.810637 298.209161 
L 1211.093608 301.158967 
L 1210.403233 304.108774 
L 1209.740965 307.058581 
L 1209.1076 310.008387 
L 1208.503196 312.958194 
L 1207.927075 315.908 
L 1207.377893 318.857807 
L 1206.853772 321.807613 
L 1206.352486 324.75742 
L 1205.871671 327.707226 
L 1205.409038 330.657033 
L 1204.962573 333.606839 
L 1204.530699 336.556646 
L 1204.112389 339.506453 
z
" clip-path="url(#p83a7840edf)" style="fill: #0072b2; fill-opacity: 0.25"/>
   </g>
   <g id="matplotlib.axis_9">
    <g id="xtick_7">
     <g id="line2d_40">
      <g>
       <use xlink:href="#mb98b262961" x="1199.373619" y="354.107995" style="stroke: #000000; stroke-width: 0.8"/>
      </g>
     </g>
     <g id="text_39">
      <text style="font-size: 14px; font-family: 'Helvetica'" transform="translate(1134.576785 431.136094) rotate(-45)">Schizophrenia</text>
     </g>
    </g>
   </g>
   <g id="matplotlib.axis_10">
    <g id="ytick_22">
     <g id="line2d_41">
      <g>
       <use xlink:href="#m9d247a283f" x="1101.547719" y="328.683733" style="stroke: #000000; stroke-width: 0.8"/>
      </g>
     </g>
     <g id="text_40">
      <text style="font-size: 14px; font-family: 'Helvetica'; text-anchor: end" x="1094.547719" y="333.70514" transform="rotate(-0 1094.547719 333.70514)">−0.1</text>
     </g>
    </g>
    <g id="ytick_23">
     <g id="line2d_42">
      <g>
       <use xlink:href="#m9d247a283f" x="1101.547719" y="265.102279" style="stroke: #000000; stroke-width: 0.8"/>
      </g>
     </g>
     <g id="text_41">
      <text style="font-size: 14px; font-family: 'Helvetica'; text-anchor: end" x="1094.547719" y="270.123686" transform="rotate(-0 1094.547719 270.123686)">0.0</text>
     </g>
    </g>
    <g id="ytick_24">
     <g id="line2d_43">
      <g>
       <use xlink:href="#m9d247a283f" x="1101.547719" y="201.520825" style="stroke: #000000; stroke-width: 0.8"/>
      </g>
     </g>
     <g id="text_42">
      <text style="font-size: 14px; font-family: 'Helvetica'; text-anchor: end" x="1094.547719" y="206.542232" transform="rotate(-0 1094.547719 206.542232)">0.1</text>
     </g>
    </g>
    <g id="ytick_25">
     <g id="line2d_44">
      <g>
       <use xlink:href="#m9d247a283f" x="1101.547719" y="137.939371" style="stroke: #000000; stroke-width: 0.8"/>
      </g>
     </g>
     <g id="text_43">
      <text style="font-size: 14px; font-family: 'Helvetica'; text-anchor: end" x="1094.547719" y="142.960778" transform="rotate(-0 1094.547719 142.960778)">0.2</text>
     </g>
    </g>
    <g id="ytick_26">
     <g id="line2d_45">
      <g>
       <use xlink:href="#m9d247a283f" x="1101.547719" y="74.357918" style="stroke: #000000; stroke-width: 0.8"/>
      </g>
     </g>
     <g id="text_44">
      <text style="font-size: 14px; font-family: 'Helvetica'; text-anchor: end" x="1094.547719" y="79.379324" transform="rotate(-0 1094.547719 79.379324)">0.3</text>
     </g>
    </g>
    <g id="text_45">
     <!-- $\Delta$SE -->
     <g transform="translate(1059.348812 210.661029) rotate(-90)">
      <text>
       <tspan x="0" y="-0.390625" style="font-size: 17px; font-family: 'DejaVu Sans'">Δ</tspan>
       <tspan x="11.629395" y="-0.390625" style="font-weight: 700; font-size: 17px; font-family: 'Helvetica'">S</tspan>
       <tspan x="22.968262" y="-0.390625" style="font-weight: 700; font-size: 17px; font-family: 'Helvetica'">E</tspan>
      </text>
     </g>
    </g>
   </g>
   <g id="line2d_46">
    <path d="M 1101.547719 265.102279 
L 1297.19952 265.102279 
" clip-path="url(#p83a7840edf)" style="fill: none; stroke-dasharray: 5.55,2.4; stroke-dashoffset: 0; stroke: #808080; stroke-opacity: 0.7; stroke-width: 1.5"/>
   </g>
   <g id="PathCollection_11">
    <defs>
     <path id="C6_0_4ef1e54ede" d="M 0 3.872983 
C 1.027127 3.872983 2.012324 3.464901 2.738613 2.738613 
C 3.464901 2.012324 3.872983 1.027127 3.872983 -0 
C 3.872983 -1.027127 3.464901 -2.012324 2.738613 -2.738613 
C 2.012324 -3.464901 1.027127 -3.872983 0 -3.872983 
C -1.027127 -3.872983 -2.012324 -3.464901 -2.738613 -2.738613 
C -3.464901 -2.012324 -3.872983 -1.027127 -3.872983 0 
C -3.872983 1.027127 -3.464901 2.012324 -2.738613 2.738613 
C -2.012324 3.464901 -1.027127 3.872983 0 3.872983 
z
"/>
    </defs>
    <g clip-path="url(#p83a7840edf)">
     <use xlink:href="#C6_0_4ef1e54ede" x="1197.737189" y="238.52517" style="fill: #0072b2; fill-opacity: 0.6"/>
    </g>
    <g clip-path="url(#p83a7840edf)">
     <use xlink:href="#C6_0_4ef1e54ede" x="1205.25249" y="290.422828" style="fill: #0072b2; fill-opacity: 0.6"/>
    </g>
    <g clip-path="url(#p83a7840edf)">
     <use xlink:href="#C6_0_4ef1e54ede" x="1202.399622" y="145.877224" style="fill: #0072b2; fill-opacity: 0.6"/>
    </g>
    <g clip-path="url(#p83a7840edf)">
     <use xlink:href="#C6_0_4ef1e54ede" x="1200.660467" y="204.041266" style="fill: #0072b2; fill-opacity: 0.6"/>
    </g>
    <g clip-path="url(#p83a7840edf)">
     <use xlink:href="#C6_0_4ef1e54ede" x="1194.886915" y="186.778273" style="fill: #0072b2; fill-opacity: 0.6"/>
    </g>
    <g clip-path="url(#p83a7840edf)">
     <use xlink:href="#C6_0_4ef1e54ede" x="1194.8866" y="197.672453" style="fill: #0072b2; fill-opacity: 0.6"/>
    </g>
    <g clip-path="url(#p83a7840edf)">
     <use xlink:href="#C6_0_4ef1e54ede" x="1193.609504" y="223.942751" style="fill: #0072b2; fill-opacity: 0.6"/>
    </g>
    <g clip-path="url(#p83a7840edf)">
     <use xlink:href="#C6_0_4ef1e54ede" x="1204.149821" y="220.202885" style="fill: #0072b2; fill-opacity: 0.6"/>
    </g>
    <g clip-path="url(#p83a7840edf)">
     <use xlink:href="#C6_0_4ef1e54ede" x="1200.692508" y="199.483436" style="fill: #0072b2; fill-opacity: 0.6"/>
    </g>
    <g clip-path="url(#p83a7840edf)">
     <use xlink:href="#C6_0_4ef1e54ede" x="1202.087604" y="184.319574" style="fill: #0072b2; fill-opacity: 0.6"/>
    </g>
    <g clip-path="url(#p83a7840edf)">
     <use xlink:href="#C6_0_4ef1e54ede" x="1193.120386" y="172.567072" style="fill: #0072b2; fill-opacity: 0.6"/>
    </g>
    <g clip-path="url(#p83a7840edf)">
     <use xlink:href="#C6_0_4ef1e54ede" x="1205.502867" y="47.475605" style="fill: #0072b2; fill-opacity: 0.6"/>
    </g>
    <g clip-path="url(#p83a7840edf)">
     <use xlink:href="#C6_0_4ef1e54ede" x="1203.709819" y="325.284618" style="fill: #0072b2; fill-opacity: 0.6"/>
    </g>
    <g clip-path="url(#p83a7840edf)">
     <use xlink:href="#C6_0_4ef1e54ede" x="1195.621528" y="163.766083" style="fill: #0072b2; fill-opacity: 0.6"/>
    </g>
    <g clip-path="url(#p83a7840edf)">
     <use xlink:href="#C6_0_4ef1e54ede" x="1195.223518" y="220.318534" style="fill: #0072b2; fill-opacity: 0.6"/>
    </g>
    <g clip-path="url(#p83a7840edf)">
     <use xlink:href="#C6_0_4ef1e54ede" x="1195.244121" y="127.037242" style="fill: #0072b2; fill-opacity: 0.6"/>
    </g>
    <g clip-path="url(#p83a7840edf)">
     <use xlink:href="#C6_0_4ef1e54ede" x="1196.820262" y="130.581897" style="fill: #0072b2; fill-opacity: 0.6"/>
    </g>
    <g clip-path="url(#p83a7840edf)">
     <use xlink:href="#C6_0_4ef1e54ede" x="1199.696529" y="277.845946" style="fill: #0072b2; fill-opacity: 0.6"/>
    </g>
    <g clip-path="url(#p83a7840edf)">
     <use xlink:href="#C6_0_4ef1e54ede" x="1198.485947" y="154.991106" style="fill: #0072b2; fill-opacity: 0.6"/>
    </g>
    <g clip-path="url(#p83a7840edf)">
     <use xlink:href="#C6_0_4ef1e54ede" x="1196.650526" y="243.235521" style="fill: #0072b2; fill-opacity: 0.6"/>
    </g>
    <g clip-path="url(#p83a7840edf)">
     <use xlink:href="#C6_0_4ef1e54ede" x="1200.832567" y="205.284306" style="fill: #0072b2; fill-opacity: 0.6"/>
    </g>
    <g clip-path="url(#p83a7840edf)">
     <use xlink:href="#C6_0_4ef1e54ede" x="1194.671374" y="272.733107" style="fill: #0072b2; fill-opacity: 0.6"/>
    </g>
    <g clip-path="url(#p83a7840edf)">
     <use xlink:href="#C6_0_4ef1e54ede" x="1196.662468" y="339.506453" style="fill: #0072b2; fill-opacity: 0.6"/>
    </g>
    <g clip-path="url(#p83a7840edf)">
     <use xlink:href="#C6_0_4ef1e54ede" x="1197.630516" y="172.229448" style="fill: #0072b2; fill-opacity: 0.6"/>
    </g>
    <g clip-path="url(#p83a7840edf)">
     <use xlink:href="#C6_0_4ef1e54ede" x="1198.80062" y="234.497202" style="fill: #0072b2; fill-opacity: 0.6"/>
    </g>
    <g clip-path="url(#p83a7840edf)">
     <use xlink:href="#C6_0_4ef1e54ede" x="1203.093299" y="144.623803" style="fill: #0072b2; fill-opacity: 0.6"/>
    </g>
    <g clip-path="url(#p83a7840edf)">
     <use xlink:href="#C6_0_4ef1e54ede" x="1195.456328" y="186.405834" style="fill: #0072b2; fill-opacity: 0.6"/>
    </g>
    <g clip-path="url(#p83a7840edf)">
     <use xlink:href="#C6_0_4ef1e54ede" x="1199.559286" y="318.14994" style="fill: #0072b2; fill-opacity: 0.6"/>
    </g>
    <g clip-path="url(#p83a7840edf)">
     <use xlink:href="#C6_0_4ef1e54ede" x="1200.579024" y="255.844275" style="fill: #0072b2; fill-opacity: 0.6"/>
    </g>
    <g clip-path="url(#p83a7840edf)">
     <use xlink:href="#C6_0_4ef1e54ede" x="1193.457766" y="130.17285" style="fill: #0072b2; fill-opacity: 0.6"/>
    </g>
    <g clip-path="url(#p83a7840edf)">
     <use xlink:href="#C6_0_4ef1e54ede" x="1200.776376" y="203.277525" style="fill: #0072b2; fill-opacity: 0.6"/>
    </g>
    <g clip-path="url(#p83a7840edf)">
     <use xlink:href="#C6_0_4ef1e54ede" x="1195.076116" y="217.840532" style="fill: #0072b2; fill-opacity: 0.6"/>
    </g>
    <g clip-path="url(#p83a7840edf)">
     <use xlink:href="#C6_0_4ef1e54ede" x="1193.70039" y="249.869897" style="fill: #0072b2; fill-opacity: 0.6"/>
    </g>
    <g clip-path="url(#p83a7840edf)">
     <use xlink:href="#C6_0_4ef1e54ede" x="1205.228637" y="242.112876" style="fill: #0072b2; fill-opacity: 0.6"/>
    </g>
    <g clip-path="url(#p83a7840edf)">
     <use xlink:href="#C6_0_4ef1e54ede" x="1205.447069" y="290.957729" style="fill: #0072b2; fill-opacity: 0.6"/>
    </g>
    <g clip-path="url(#p83a7840edf)">
     <use xlink:href="#C6_0_4ef1e54ede" x="1203.396186" y="276.060111" style="fill: #0072b2; fill-opacity: 0.6"/>
    </g>
    <g clip-path="url(#p83a7840edf)">
     <use xlink:href="#C6_0_4ef1e54ede" x="1196.825108" y="242.450268" style="fill: #0072b2; fill-opacity: 0.6"/>
    </g>
    <g clip-path="url(#p83a7840edf)">
     <use xlink:href="#C6_0_4ef1e54ede" x="1194.125874" y="186.405834" style="fill: #0072b2; fill-opacity: 0.6"/>
    </g>
    <g clip-path="url(#p83a7840edf)">
     <use xlink:href="#C6_0_4ef1e54ede" x="1201.776654" y="208.095358" style="fill: #0072b2; fill-opacity: 0.6"/>
    </g>
    <g clip-path="url(#p83a7840edf)">
     <use xlink:href="#C6_0_4ef1e54ede" x="1198.593001" y="288.942467" style="fill: #0072b2; fill-opacity: 0.6"/>
    </g>
    <g clip-path="url(#p83a7840edf)">
     <use xlink:href="#C6_0_4ef1e54ede" x="1194.443693" y="243.572688" style="fill: #0072b2; fill-opacity: 0.6"/>
    </g>
    <g clip-path="url(#p83a7840edf)">
     <use xlink:href="#C6_0_4ef1e54ede" x="1199.31071" y="207.887283" style="fill: #0072b2; fill-opacity: 0.6"/>
    </g>
    <g clip-path="url(#p83a7840edf)">
     <use xlink:href="#C6_0_4ef1e54ede" x="1193.300438" y="230.995785" style="fill: #0072b2; fill-opacity: 0.6"/>
    </g>
    <g clip-path="url(#p83a7840edf)">
     <use xlink:href="#C6_0_4ef1e54ede" x="1204.712571" y="216.49505" style="fill: #0072b2; fill-opacity: 0.6"/>
    </g>
    <g clip-path="url(#p83a7840edf)">
     <use xlink:href="#C6_0_4ef1e54ede" x="1196.227277" y="265.202633" style="fill: #0072b2; fill-opacity: 0.6"/>
    </g>
    <g clip-path="url(#p83a7840edf)">
     <use xlink:href="#C6_0_4ef1e54ede" x="1201.493471" y="213.203712" style="fill: #0072b2; fill-opacity: 0.6"/>
    </g>
    <g clip-path="url(#p83a7840edf)">
     <use xlink:href="#C6_0_4ef1e54ede" x="1196.917682" y="93.032823" style="fill: #0072b2; fill-opacity: 0.6"/>
    </g>
    <g clip-path="url(#p83a7840edf)">
     <use xlink:href="#C6_0_4ef1e54ede" x="1199.635376" y="269.009344" style="fill: #0072b2; fill-opacity: 0.6"/>
    </g>
    <g clip-path="url(#p83a7840edf)">
     <use xlink:href="#C6_0_4ef1e54ede" x="1199.982883" y="217.991245" style="fill: #0072b2; fill-opacity: 0.6"/>
    </g>
    <g clip-path="url(#p83a7840edf)">
     <use xlink:href="#C6_0_4ef1e54ede" x="1195.263033" y="220.419844" style="fill: #0072b2; fill-opacity: 0.6"/>
    </g>
   </g>
   <g id="patch_15">
    <path d="M 1101.547719 354.107995 
L 1101.547719 32.874062 
" style="fill: none; stroke: #000000; stroke-width: 1.5; stroke-linejoin: miter; stroke-linecap: square"/>
   </g>
   <g id="patch_16">
    <path d="M 1101.547719 354.107995 
L 1297.19952 354.107995 
" style="fill: none; stroke: #000000; stroke-width: 1.5; stroke-linejoin: miter; stroke-linecap: square"/>
   </g>
   <g id="LineCollection_5">
    <path d="M 1199.373619 224.232272 
L 1199.373619 207.673316 
" clip-path="url(#p83a7840edf)" style="fill: none; stroke: #000000; stroke-width: 2"/>
   </g>
   <g id="line2d_47">
    <g clip-path="url(#p83a7840edf)">
     <use xlink:href="#md1532c039c" x="1199.373619" y="224.232272" style="stroke: #000000"/>
    </g>
   </g>
   <g id="line2d_48">
    <g clip-path="url(#p83a7840edf)">
     <use xlink:href="#md1532c039c" x="1199.373619" y="207.673316" style="stroke: #000000"/>
    </g>
   </g>
   <g id="text_46">
    <text style="font-weight: 700; font-size: 18px; font-family: 'Helvetica'; text-anchor: middle" x="1199.373619" y="20.341575" transform="rotate(-0 1199.373619 20.341575)">***</text>
   </g>
   <g id="text_47">
    <text style="font-weight: 700; font-size: 19px; font-family: 'Helvetica'; text-anchor: start" x="1101.547719" y="20.874062" transform="rotate(-0 1101.547719 20.874062)">E</text>
   </g>
   <g id="PathCollection_12">
    <g clip-path="url(#p83a7840edf)">
     <use xlink:href="#m98e0c128b7" x="1199.373619" y="215.952794" style="stroke: #000000"/>
    </g>
   </g>
  </g>
 </g>
 <defs>
  <clipPath id="p87755e36fe">
   <rect x="61.633594" y="32.874062" width="195.651801" height="321.233932"/>
  </clipPath>
  <clipPath id="p860ed9145e">
   <rect x="325.504781" y="32.874062" width="195.651801" height="321.233932"/>
  </clipPath>
  <clipPath id="p40bc46e79b">
   <rect x="589.375969" y="32.874062" width="195.651801" height="321.233932"/>
  </clipPath>
  <clipPath id="p1b1ff9300d">
   <rect x="845.461844" y="32.874062" width="195.651801" height="321.233932"/>
  </clipPath>
  <clipPath id="p83a7840edf">
   <rect x="1101.547719" y="32.874062" width="195.651801" height="321.233932"/>
  </clipPath>
 </defs>
</svg>
