<?xml version="1.0" encoding="utf-8" standalone="no"?>
<!DOCTYPE svg PUBLIC "-//W3C//DTD SVG 1.1//EN"
  "http://www.w3.org/Graphics/SVG/1.1/DTD/svg11.dtd">
<svg xmlns:xlink="http://www.w3.org/1999/xlink" width="1304.39952pt" height="440.39952pt" viewBox="0 0 1304.39952 440.39952" xmlns="http://www.w3.org/2000/svg" version="1.1">
 <metadata>
  <rdf:RDF xmlns:dc="http://purl.org/dc/elements/1.1/" xmlns:cc="http://creativecommons.org/ns#" xmlns:rdf="http://www.w3.org/1999/02/22-rdf-syntax-ns#">
   <cc:Work>
    <dc:type rdf:resource="http://purl.org/dc/dcmitype/StillImage"/>
    <dc:date>2026-05-27T12:27:27.222642</dc:date>
    <dc:format>image/svg+xml</dc:format>
    <dc:creator>
     <cc:Agent>
      <dc:title>Matplotlib v3.10.0, https://matplotlib.org/</dc:title>
     </cc:Agent>
    </dc:creator>
   </cc:Work>
  </rdf:RDF>
 </metadata>
 <defs>
  <style type="text/css">*{stroke-linejoin: round; stroke-linecap: butt}</style>
 </defs>
 <g id="figure_1">
  <g id="patch_1">
   <path d="M 0 440.39952 
L 1304.39952 440.39952 
L 1304.39952 0 
L 0 0 
z
" style="fill: #ffffff"/>
  </g>
  <g id="axes_1">
   <g id="patch_2">
    <path d="M 61.633594 354.107995 
L 258.842458 354.107995 
L 258.842458 32.874062 
L 61.633594 32.874062 
z
" style="fill: #ffffff"/>
   </g>
   <g id="FillBetweenPolyCollection_1">
    <path d="M 103.449283 313.059856 
L 94.606278 313.059856 
L 94.606278 310.93913 
L 94.606278 308.818404 
L 94.606278 306.697678 
L 94.606278 304.576952 
L 94.606278 302.456226 
L 94.606278 300.3355 
L 94.606278 298.214774 
L 94.606278 296.094048 
L 94.606278 293.973322 
L 94.606278 291.852596 
L 94.606278 289.731869 
L 94.606278 287.611143 
L 94.606278 285.490417 
L 94.606278 283.369691 
L 94.606278 281.248965 
L 94.606278 279.128239 
L 94.606278 277.007513 
L 94.606278 274.886787 
L 94.606278 272.766061 
L 94.606278 270.645335 
L 94.606278 268.524609 
L 94.606278 266.403882 
L 94.606278 264.283156 
L 94.606278 262.16243 
L 94.606278 260.041704 
L 94.606278 257.920978 
L 94.606278 255.800252 
L 94.606278 253.679526 
L 94.606278 251.5588 
L 94.606278 249.438074 
L 94.606278 247.317348 
L 94.606278 245.196622 
L 94.606278 243.075895 
L 94.606278 240.955169 
L 94.606278 238.834443 
L 94.606278 236.713717 
L 94.606278 234.592991 
L 94.606278 232.472265 
L 94.606278 230.351539 
L 94.606278 228.230813 
L 94.606278 226.110087 
L 94.606278 223.989361 
L 94.606278 221.868635 
L 94.606278 219.747908 
L 94.606278 217.627182 
L 94.606278 215.506456 
L 94.606278 213.38573 
L 94.606278 211.265004 
L 94.606278 209.144278 
L 94.606278 207.023552 
L 94.606278 204.902826 
L 94.606278 202.7821 
L 94.606278 200.661374 
L 94.606278 198.540648 
L 94.606278 196.419921 
L 94.606278 194.299195 
L 94.606278 192.178469 
L 94.606278 190.057743 
L 94.606278 187.937017 
L 94.606278 185.816291 
L 94.606278 183.695565 
L 94.606278 181.574839 
L 94.606278 179.454113 
L 94.606278 177.333387 
L 94.606278 175.212661 
L 94.606278 173.091934 
L 94.606278 170.971208 
L 94.606278 168.850482 
L 94.606278 166.729756 
L 94.606278 164.60903 
L 94.606278 162.488304 
L 94.606278 160.367578 
L 94.606278 158.246852 
L 94.606278 156.126126 
L 94.606278 154.0054 
L 94.606278 151.884674 
L 94.606278 149.763947 
L 94.606278 147.643221 
L 94.606278 145.522495 
L 94.606278 143.401769 
L 94.606278 141.281043 
L 94.606278 139.160317 
L 94.606278 137.039591 
L 94.606278 134.918865 
L 94.606278 132.798139 
L 94.606278 130.677413 
L 94.606278 128.556687 
L 94.606278 126.435961 
L 94.606278 124.315234 
L 94.606278 122.194508 
L 94.606278 120.073782 
L 94.606278 117.953056 
L 94.606278 115.83233 
L 94.606278 113.711604 
L 94.606278 111.590878 
L 94.606278 109.470152 
L 94.606278 107.349426 
L 94.606278 105.2287 
L 94.606278 103.107974 
L 97.828241 103.107974 
L 97.828241 103.107974 
L 97.974995 105.2287 
L 98.129041 107.349426 
L 98.291719 109.470152 
L 98.464458 111.590878 
L 98.648757 113.711604 
L 98.846158 115.83233 
L 99.058214 117.953056 
L 99.286454 120.073782 
L 99.532354 122.194508 
L 99.797292 124.315234 
L 100.082519 126.435961 
L 100.389117 128.556687 
L 100.717966 130.677413 
L 101.069709 132.798139 
L 101.444722 134.918865 
L 101.843087 137.039591 
L 102.26457 139.160317 
L 102.708599 141.281043 
L 103.174255 143.401769 
L 103.660269 145.522495 
L 104.165012 147.643221 
L 104.686513 149.763947 
L 105.222464 151.884674 
L 105.770245 154.0054 
L 106.326947 156.126126 
L 106.889409 158.246852 
L 107.45425 160.367578 
L 108.01792 162.488304 
L 108.576743 164.60903 
L 109.126967 166.729756 
L 109.664823 168.850482 
L 110.186576 170.971208 
L 110.688582 173.091934 
L 111.167343 175.212661 
L 111.61956 177.333387 
L 112.042184 179.454113 
L 112.432459 181.574839 
L 112.787966 183.695565 
L 113.106656 185.816291 
L 113.386879 187.937017 
L 113.627404 190.057743 
L 113.827435 192.178469 
L 113.986613 194.299195 
L 114.105015 196.419921 
L 114.183145 198.540648 
L 114.221915 200.661374 
L 114.222624 202.7821 
L 114.186923 204.902826 
L 114.116783 207.023552 
L 114.014455 209.144278 
L 113.882427 211.265004 
L 113.723378 213.38573 
L 113.540134 215.506456 
L 113.335617 217.627182 
L 113.112804 219.747908 
L 112.874681 221.868635 
L 112.624197 223.989361 
L 112.364232 226.110087 
L 112.097553 228.230813 
L 111.826789 230.351539 
L 111.554398 232.472265 
L 111.282643 234.592991 
L 111.013573 236.713717 
L 110.749007 238.834443 
L 110.490518 240.955169 
L 110.23943 243.075895 
L 109.996807 245.196622 
L 109.763454 247.317348 
L 109.539916 249.438074 
L 109.326485 251.5588 
L 109.123203 253.679526 
L 108.929875 255.800252 
L 108.746075 257.920978 
L 108.571166 260.041704 
L 108.404314 262.16243 
L 108.244503 264.283156 
L 108.090561 266.403882 
L 107.941179 268.524609 
L 107.794932 270.645335 
L 107.650311 272.766061 
L 107.505744 274.886787 
L 107.359626 277.007513 
L 107.210344 279.128239 
L 107.056311 281.248965 
L 106.895988 283.369691 
L 106.727914 285.490417 
L 106.550733 287.611143 
L 106.363216 289.731869 
L 106.164287 291.852596 
L 105.953041 293.973322 
L 105.728761 296.094048 
L 105.490933 298.214774 
L 105.239257 300.3355 
L 104.973653 302.456226 
L 104.694262 304.576952 
L 104.401447 306.697678 
L 104.095789 308.818404 
L 103.778075 310.93913 
L 103.449283 313.059856 
z
" clip-path="url(#p2e880aee8e)" style="fill: #e69f00; fill-opacity: 0.25"/>
   </g>
   <g id="FillBetweenPolyCollection_2">
    <path d="M 165.806358 339.506453 
L 160.304051 339.506453 
L 160.304051 336.556646 
L 160.304051 333.606839 
L 160.304051 330.657033 
L 160.304051 327.707226 
L 160.304051 324.75742 
L 160.304051 321.807613 
L 160.304051 318.857807 
L 160.304051 315.908 
L 160.304051 312.958194 
L 160.304051 310.008387 
L 160.304051 307.058581 
L 160.304051 304.108774 
L 160.304051 301.158967 
L 160.304051 298.209161 
L 160.304051 295.259354 
L 160.304051 292.309548 
L 160.304051 289.359741 
L 160.304051 286.409935 
L 160.304051 283.460128 
L 160.304051 280.510322 
L 160.304051 277.560515 
L 160.304051 274.610709 
L 160.304051 271.660902 
L 160.304051 268.711096 
L 160.304051 265.761289 
L 160.304051 262.811482 
L 160.304051 259.861676 
L 160.304051 256.911869 
L 160.304051 253.962063 
L 160.304051 251.012256 
L 160.304051 248.06245 
L 160.304051 245.112643 
L 160.304051 242.162837 
L 160.304051 239.21303 
L 160.304051 236.263224 
L 160.304051 233.313417 
L 160.304051 230.36361 
L 160.304051 227.413804 
L 160.304051 224.463997 
L 160.304051 221.514191 
L 160.304051 218.564384 
L 160.304051 215.614578 
L 160.304051 212.664771 
L 160.304051 209.714965 
L 160.304051 206.765158 
L 160.304051 203.815352 
L 160.304051 200.865545 
L 160.304051 197.915739 
L 160.304051 194.965932 
L 160.304051 192.016125 
L 160.304051 189.066319 
L 160.304051 186.116512 
L 160.304051 183.166706 
L 160.304051 180.216899 
L 160.304051 177.267093 
L 160.304051 174.317286 
L 160.304051 171.36748 
L 160.304051 168.417673 
L 160.304051 165.467867 
L 160.304051 162.51806 
L 160.304051 159.568253 
L 160.304051 156.618447 
L 160.304051 153.66864 
L 160.304051 150.718834 
L 160.304051 147.769027 
L 160.304051 144.819221 
L 160.304051 141.869414 
L 160.304051 138.919608 
L 160.304051 135.969801 
L 160.304051 133.019995 
L 160.304051 130.070188 
L 160.304051 127.120382 
L 160.304051 124.170575 
L 160.304051 121.220768 
L 160.304051 118.270962 
L 160.304051 115.321155 
L 160.304051 112.371349 
L 160.304051 109.421542 
L 160.304051 106.471736 
L 160.304051 103.521929 
L 160.304051 100.572123 
L 160.304051 97.622316 
L 160.304051 94.67251 
L 160.304051 91.722703 
L 160.304051 88.772896 
L 160.304051 85.82309 
L 160.304051 82.873283 
L 160.304051 79.923477 
L 160.304051 76.97367 
L 160.304051 74.023864 
L 160.304051 71.074057 
L 160.304051 68.124251 
L 160.304051 65.174444 
L 160.304051 62.224638 
L 160.304051 59.274831 
L 160.304051 56.325025 
L 160.304051 53.375218 
L 160.304051 50.425411 
L 160.304051 47.475605 
L 162.504483 47.475605 
L 162.504483 47.475605 
L 162.560241 50.425411 
L 162.610752 53.375218 
L 162.656149 56.325025 
L 162.696646 59.274831 
L 162.73253 62.224638 
L 162.764139 65.174444 
L 162.791857 68.124251 
L 162.816097 71.074057 
L 162.83729 74.023864 
L 162.855877 76.97367 
L 162.872305 79.923477 
L 162.887021 82.873283 
L 162.900476 85.82309 
L 162.913133 88.772896 
L 162.925472 91.722703 
L 162.938003 94.67251 
L 162.951284 97.622316 
L 162.965933 100.572123 
L 162.982649 103.521929 
L 163.002226 106.471736 
L 163.025571 109.421542 
L 163.053715 112.371349 
L 163.087823 115.321155 
L 163.129201 118.270962 
L 163.179294 121.220768 
L 163.239683 124.170575 
L 163.312074 127.120382 
L 163.398284 130.070188 
L 163.500216 133.019995 
L 163.619832 135.969801 
L 163.759128 138.919608 
L 163.920089 141.869414 
L 164.104657 144.819221 
L 164.314688 147.769027 
L 164.551905 150.718834 
L 164.81786 153.66864 
L 165.113885 156.618447 
L 165.44105 159.568253 
L 165.800123 162.51806 
L 166.19153 165.467867 
L 166.615321 168.417673 
L 167.071139 171.36748 
L 167.558191 174.317286 
L 168.075236 177.267093 
L 168.620563 180.216899 
L 169.191991 183.166706 
L 169.78687 186.116512 
L 170.402091 189.066319 
L 171.034104 192.016125 
L 171.678949 194.965932 
L 172.332289 197.915739 
L 172.989459 200.865545 
L 173.645517 203.815352 
L 174.295303 206.765158 
L 174.933511 209.714965 
L 175.554756 212.664771 
L 176.153651 215.614578 
L 176.724885 218.564384 
L 177.263303 221.514191 
L 177.763979 224.463997 
L 178.222295 227.413804 
L 178.634007 230.36361 
L 178.995308 233.313417 
L 179.302889 236.263224 
L 179.553981 239.21303 
L 179.746396 242.162837 
L 179.878553 245.112643 
L 179.9495 248.06245 
L 179.958912 251.012256 
L 179.907096 253.962063 
L 179.79497 256.911869 
L 179.624043 259.861676 
L 179.396381 262.811482 
L 179.114565 265.761289 
L 178.781645 268.711096 
L 178.401082 271.660902 
L 177.976694 274.610709 
L 177.512589 277.560515 
L 177.013102 280.510322 
L 176.482729 283.460128 
L 175.926058 286.409935 
L 175.347706 289.359741 
L 174.752254 292.309548 
L 174.144191 295.259354 
L 173.527855 298.209161 
L 172.907386 301.158967 
L 172.286679 304.108774 
L 171.669352 307.058581 
L 171.058714 310.008387 
L 170.457742 312.958194 
L 169.869071 315.908 
L 169.294984 318.857807 
L 168.737416 321.807613 
L 168.197958 324.75742 
L 167.677876 327.707226 
L 167.178127 330.657033 
L 166.699385 333.606839 
L 166.242066 336.556646 
L 165.806358 339.506453 
z
" clip-path="url(#p2e880aee8e)" style="fill: #e69f00; fill-opacity: 0.25"/>
   </g>
   <g id="FillBetweenPolyCollection_3">
    <path d="M 231.786304 314.033535 
L 226.068596 314.033535 
L 226.068596 311.708111 
L 226.068596 309.382687 
L 226.068596 307.057262 
L 226.068596 304.731838 
L 226.068596 302.406414 
L 226.068596 300.08099 
L 226.068596 297.755566 
L 226.068596 295.430142 
L 226.068596 293.104718 
L 226.068596 290.779294 
L 226.068596 288.45387 
L 226.068596 286.128446 
L 226.068596 283.803021 
L 226.068596 281.477597 
L 226.068596 279.152173 
L 226.068596 276.826749 
L 226.068596 274.501325 
L 226.068596 272.175901 
L 226.068596 269.850477 
L 226.068596 267.525053 
L 226.068596 265.199629 
L 226.068596 262.874204 
L 226.068596 260.54878 
L 226.068596 258.223356 
L 226.068596 255.897932 
L 226.068596 253.572508 
L 226.068596 251.247084 
L 226.068596 248.92166 
L 226.068596 246.596236 
L 226.068596 244.270812 
L 226.068596 241.945388 
L 226.068596 239.619963 
L 226.068596 237.294539 
L 226.068596 234.969115 
L 226.068596 232.643691 
L 226.068596 230.318267 
L 226.068596 227.992843 
L 226.068596 225.667419 
L 226.068596 223.341995 
L 226.068596 221.016571 
L 226.068596 218.691146 
L 226.068596 216.365722 
L 226.068596 214.040298 
L 226.068596 211.714874 
L 226.068596 209.38945 
L 226.068596 207.064026 
L 226.068596 204.738602 
L 226.068596 202.413178 
L 226.068596 200.087754 
L 226.068596 197.76233 
L 226.068596 195.436905 
L 226.068596 193.111481 
L 226.068596 190.786057 
L 226.068596 188.460633 
L 226.068596 186.135209 
L 226.068596 183.809785 
L 226.068596 181.484361 
L 226.068596 179.158937 
L 226.068596 176.833513 
L 226.068596 174.508088 
L 226.068596 172.182664 
L 226.068596 169.85724 
L 226.068596 167.531816 
L 226.068596 165.206392 
L 226.068596 162.880968 
L 226.068596 160.555544 
L 226.068596 158.23012 
L 226.068596 155.904696 
L 226.068596 153.579272 
L 226.068596 151.253847 
L 226.068596 148.928423 
L 226.068596 146.602999 
L 226.068596 144.277575 
L 226.068596 141.952151 
L 226.068596 139.626727 
L 226.068596 137.301303 
L 226.068596 134.975879 
L 226.068596 132.650455 
L 226.068596 130.325031 
L 226.068596 127.999606 
L 226.068596 125.674182 
L 226.068596 123.348758 
L 226.068596 121.023334 
L 226.068596 118.69791 
L 226.068596 116.372486 
L 226.068596 114.047062 
L 226.068596 111.721638 
L 226.068596 109.396214 
L 226.068596 107.070789 
L 226.068596 104.745365 
L 226.068596 102.419941 
L 226.068596 100.094517 
L 226.068596 97.769093 
L 226.068596 95.443669 
L 226.068596 93.118245 
L 226.068596 90.792821 
L 226.068596 88.467397 
L 226.068596 86.141973 
L 226.068596 83.816548 
L 233.489627 83.816548 
L 233.489627 83.816548 
L 233.7311 86.141973 
L 233.963396 88.467397 
L 234.186403 90.792821 
L 234.400252 93.118245 
L 234.605318 95.443669 
L 234.802218 97.769093 
L 234.991813 100.094517 
L 235.17519 102.419941 
L 235.353651 104.745365 
L 235.528687 107.070789 
L 235.701956 109.396214 
L 235.875246 111.721638 
L 236.050442 114.047062 
L 236.229487 116.372486 
L 236.414337 118.69791 
L 236.606914 121.023334 
L 236.809066 123.348758 
L 237.022516 125.674182 
L 237.248815 127.999606 
L 237.489304 130.325031 
L 237.745064 132.650455 
L 238.016887 134.975879 
L 238.305238 137.301303 
L 238.610229 139.626727 
L 238.931599 141.952151 
L 239.268699 144.277575 
L 239.620485 146.602999 
L 239.985523 148.928423 
L 240.361995 151.253847 
L 240.747716 153.579272 
L 241.140166 155.904696 
L 241.536515 158.23012 
L 241.933667 160.555544 
L 242.328307 162.880968 
L 242.716953 165.206392 
L 243.096009 167.531816 
L 243.461828 169.85724 
L 243.81077 172.182664 
L 244.139268 174.508088 
L 244.443884 176.833513 
L 244.721374 179.158937 
L 244.96874 181.484361 
L 245.183281 183.809785 
L 245.362643 186.135209 
L 245.504853 188.460633 
L 245.608353 190.786057 
L 245.672024 193.111481 
L 245.6952 195.436905 
L 245.677675 197.76233 
L 245.619701 200.087754 
L 245.521974 202.413178 
L 245.385621 204.738602 
L 245.212168 207.064026 
L 245.003509 209.38945 
L 244.761869 211.714874 
L 244.489757 214.040298 
L 244.189922 216.365722 
L 243.8653 218.691146 
L 243.518966 221.016571 
L 243.15408 223.341995 
L 242.773838 225.667419 
L 242.381422 227.992843 
L 241.979955 230.318267 
L 241.572456 232.643691 
L 241.161806 234.969115 
L 240.75071 237.294539 
L 240.341667 239.619963 
L 239.936953 241.945388 
L 239.538594 244.270812 
L 239.148359 246.596236 
L 238.767748 248.92166 
L 238.397991 251.247084 
L 238.040049 253.572508 
L 237.694618 255.897932 
L 237.36214 258.223356 
L 237.042813 260.54878 
L 236.736611 262.874204 
L 236.443297 265.199629 
L 236.162446 267.525053 
L 235.893465 269.850477 
L 235.635615 272.175901 
L 235.388039 274.501325 
L 235.149777 276.826749 
L 234.9198 279.152173 
L 234.697027 281.477597 
L 234.480349 283.803021 
L 234.268654 286.128446 
L 234.060845 288.45387 
L 233.855863 290.779294 
L 233.652706 293.104718 
L 233.45044 295.430142 
L 233.248223 297.755566 
L 233.045308 300.08099 
L 232.841063 302.406414 
L 232.634974 304.731838 
L 232.426649 307.057262 
L 232.21583 309.382687 
L 232.002382 311.708111 
L 231.786304 314.033535 
z
" clip-path="url(#p2e880aee8e)" style="fill: #e69f00; fill-opacity: 0.25"/>
   </g>
   <g id="matplotlib.axis_1">
    <g id="xtick_1">
     <g id="line2d_1">
      <defs>
       <path id="mec3b44d115" d="M 0 0 
L 0 3.5 
" style="stroke: #000000; stroke-width: 0.8"/>
      </defs>
      <g>
       <use xlink:href="#mec3b44d115" x="94.501738" y="354.107995" style="stroke: #000000; stroke-width: 0.8"/>
      </g>
     </g>
     <g id="text_1">
      <text style="font-size: 14px; font-family: 'Helvetica'" transform="translate(53.360055 407.287592) rotate(-45)">Sedation</text>
     </g>
    </g>
    <g id="xtick_2">
     <g id="line2d_2">
      <g>
       <use xlink:href="#mec3b44d115" x="160.238026" y="354.107995" style="stroke: #000000; stroke-width: 0.8"/>
      </g>
     </g>
     <g id="text_2">
      <text style="font-size: 14px; font-family: 'Helvetica'" transform="translate(134.510166 391.873769) rotate(-45)">Deep</text>
     </g>
    </g>
    <g id="xtick_3">
     <g id="line2d_3">
      <g>
       <use xlink:href="#mec3b44d115" x="225.974314" y="354.107995" style="stroke: #000000; stroke-width: 0.8"/>
      </g>
     </g>
     <g id="text_3">
      <text style="font-size: 14px; font-family: 'Helvetica'" transform="translate(182.042211 410.019234) rotate(-45)">Recovery</text>
     </g>
    </g>
   </g>
   <g id="matplotlib.axis_2">
    <g id="ytick_1">
     <g id="line2d_4">
      <defs>
       <path id="m7f011c76cc" d="M 0 0 
L -3.5 0 
" style="stroke: #000000; stroke-width: 0.8"/>
      </defs>
      <g>
       <use xlink:href="#m7f011c76cc" x="61.633594" y="313.450765" style="stroke: #000000; stroke-width: 0.8"/>
      </g>
     </g>
     <g id="text_4">
      <text style="font-size: 14px; font-family: 'Helvetica'; text-anchor: end" x="54.633594" y="318.472171" transform="rotate(-0 54.633594 318.472171)">−0.4</text>
     </g>
    </g>
    <g id="ytick_2">
     <g id="line2d_5">
      <g>
       <use xlink:href="#m7f011c76cc" x="61.633594" y="253.008183" style="stroke: #000000; stroke-width: 0.8"/>
      </g>
     </g>
     <g id="text_5">
      <text style="font-size: 14px; font-family: 'Helvetica'; text-anchor: end" x="54.633594" y="258.029589" transform="rotate(-0 54.633594 258.029589)">−0.2</text>
     </g>
    </g>
    <g id="ytick_3">
     <g id="line2d_6">
      <g>
       <use xlink:href="#m7f011c76cc" x="61.633594" y="192.565601" style="stroke: #000000; stroke-width: 0.8"/>
      </g>
     </g>
     <g id="text_6">
      <text style="font-size: 14px; font-family: 'Helvetica'; text-anchor: end" x="54.633594" y="197.587007" transform="rotate(-0 54.633594 197.587007)">0.0</text>
     </g>
    </g>
    <g id="ytick_4">
     <g id="line2d_7">
      <g>
       <use xlink:href="#m7f011c76cc" x="61.633594" y="132.123019" style="stroke: #000000; stroke-width: 0.8"/>
      </g>
     </g>
     <g id="text_7">
      <text style="font-size: 14px; font-family: 'Helvetica'; text-anchor: end" x="54.633594" y="137.144425" transform="rotate(-0 54.633594 137.144425)">0.2</text>
     </g>
    </g>
    <g id="ytick_5">
     <g id="line2d_8">
      <g>
       <use xlink:href="#m7f011c76cc" x="61.633594" y="71.680437" style="stroke: #000000; stroke-width: 0.8"/>
      </g>
     </g>
     <g id="text_8">
      <text style="font-size: 14px; font-family: 'Helvetica'; text-anchor: end" x="54.633594" y="76.701843" transform="rotate(-0 54.633594 76.701843)">0.4</text>
     </g>
    </g>
    <g id="text_9">
     <!-- $\Delta$SE -->
     <g transform="translate(19.434688 210.661029) rotate(-90)">
      <text>
       <tspan x="0" y="-0.390625" style="font-size: 17px; font-family: 'DejaVu Sans'">Δ</tspan>
       <tspan x="11.629395" y="-0.390625" style="font-weight: 700; font-size: 17px; font-family: 'Helvetica'">S</tspan>
       <tspan x="22.968262" y="-0.390625" style="font-weight: 700; font-size: 17px; font-family: 'Helvetica'">E</tspan>
      </text>
     </g>
    </g>
   </g>
   <g id="line2d_9">
    <path d="M 61.633594 192.565601 
L 258.842458 192.565601 
" clip-path="url(#p2e880aee8e)" style="fill: none; stroke-dasharray: 5.55,2.4; stroke-dashoffset: 0; stroke: #808080; stroke-opacity: 0.7; stroke-width: 1.5"/>
   </g>
   <g id="PathCollection_1">
    <defs>
     <path id="C0_0_3eb20406f7" d="M 0 3.872983 
C 1.027127 3.872983 2.012324 3.464901 2.738613 2.738613 
C 3.464901 2.012324 3.872983 1.027127 3.872983 -0 
C 3.872983 -1.027127 3.464901 -2.012324 2.738613 -2.738613 
C 2.012324 -3.464901 1.027127 -3.872983 0 -3.872983 
C -1.027127 -3.872983 -2.012324 -3.464901 -2.738613 -2.738613 
C -3.464901 -2.012324 -3.872983 -1.027127 -3.872983 0 
C -3.872983 1.027127 -3.464901 2.012324 -2.738613 2.738613 
C -2.012324 3.464901 -1.027127 3.872983 0 3.872983 
z
"/>
    </defs>
    <g clip-path="url(#p2e880aee8e)">
     <use xlink:href="#C0_0_3eb20406f7" x="93.512066" y="157.936195" style="fill: #e69f00; fill-opacity: 0.6"/>
    </g>
    <g clip-path="url(#p2e880aee8e)">
     <use xlink:href="#C0_0_3eb20406f7" x="98.057132" y="192.419065" style="fill: #e69f00; fill-opacity: 0.6"/>
    </g>
    <g clip-path="url(#p2e880aee8e)">
     <use xlink:href="#C0_0_3eb20406f7" x="96.331788" y="103.107974" style="fill: #e69f00; fill-opacity: 0.6"/>
    </g>
    <g clip-path="url(#p2e880aee8e)">
     <use xlink:href="#C0_0_3eb20406f7" x="95.279991" y="238.313129" style="fill: #e69f00; fill-opacity: 0.6"/>
    </g>
    <g clip-path="url(#p2e880aee8e)">
     <use xlink:href="#C0_0_3eb20406f7" x="91.788291" y="238.441187" style="fill: #e69f00; fill-opacity: 0.6"/>
    </g>
    <g clip-path="url(#p2e880aee8e)">
     <use xlink:href="#C0_0_3eb20406f7" x="91.788101" y="173.947652" style="fill: #e69f00; fill-opacity: 0.6"/>
    </g>
    <g clip-path="url(#p2e880aee8e)">
     <use xlink:href="#C0_0_3eb20406f7" x="91.015745" y="179.218514" style="fill: #e69f00; fill-opacity: 0.6"/>
    </g>
    <g clip-path="url(#p2e880aee8e)">
     <use xlink:href="#C0_0_3eb20406f7" x="97.390265" y="201.091736" style="fill: #e69f00; fill-opacity: 0.6"/>
    </g>
    <g clip-path="url(#p2e880aee8e)">
     <use xlink:href="#C0_0_3eb20406f7" x="95.299369" y="313.059856" style="fill: #e69f00; fill-opacity: 0.6"/>
    </g>
    <g clip-path="url(#p2e880aee8e)">
     <use xlink:href="#C0_0_3eb20406f7" x="96.143088" y="193.52266" style="fill: #e69f00; fill-opacity: 0.6"/>
    </g>
    <g clip-path="url(#p2e880aee8e)">
     <use xlink:href="#C0_0_3eb20406f7" x="90.719938" y="232.633354" style="fill: #e69f00; fill-opacity: 0.6"/>
    </g>
    <g clip-path="url(#p2e880aee8e)">
     <use xlink:href="#C0_0_3eb20406f7" x="98.208553" y="202.975186" style="fill: #e69f00; fill-opacity: 0.6"/>
    </g>
    <g clip-path="url(#p2e880aee8e)">
     <use xlink:href="#C0_0_3eb20406f7" x="97.124163" y="268.229083" style="fill: #e69f00; fill-opacity: 0.6"/>
    </g>
    <g clip-path="url(#p2e880aee8e)">
     <use xlink:href="#C0_0_3eb20406f7" x="92.232567" y="310.829705" style="fill: #e69f00; fill-opacity: 0.6"/>
    </g>
    <g clip-path="url(#p2e880aee8e)">
     <use xlink:href="#C0_0_3eb20406f7" x="91.99186" y="200.201245" style="fill: #e69f00; fill-opacity: 0.6"/>
    </g>
    <g clip-path="url(#p2e880aee8e)">
     <use xlink:href="#C0_0_3eb20406f7" x="92.00432" y="281.898521" style="fill: #e69f00; fill-opacity: 0.6"/>
    </g>
    <g clip-path="url(#p2e880aee8e)">
     <use xlink:href="#C0_0_3eb20406f7" x="92.957531" y="287.994657" style="fill: #e69f00; fill-opacity: 0.6"/>
    </g>
   </g>
   <g id="PathCollection_2">
    <defs>
     <path id="C1_0_2494f980c0" d="M 0 3.872983 
C 1.027127 3.872983 2.012324 3.464901 2.738613 2.738613 
C 3.464901 2.012324 3.872983 1.027127 3.872983 -0 
C 3.872983 -1.027127 3.464901 -2.012324 2.738613 -2.738613 
C 2.012324 -3.464901 1.027127 -3.872983 0 -3.872983 
C -1.027127 -3.872983 -2.012324 -3.464901 -2.738613 -2.738613 
C -3.464901 -2.012324 -3.872983 -1.027127 -3.872983 0 
C -3.872983 1.027127 -3.464901 2.012324 -2.738613 2.738613 
C -2.012324 3.464901 -1.027127 3.872983 0 3.872983 
z
"/>
    </defs>
    <g clip-path="url(#p2e880aee8e)">
     <use xlink:href="#C1_0_2494f980c0" x="160.433313" y="220.844164" style="fill: #e69f00; fill-opacity: 0.6"/>
    </g>
    <g clip-path="url(#p2e880aee8e)">
     <use xlink:href="#C1_0_2494f980c0" x="159.701184" y="229.261853" style="fill: #e69f00; fill-opacity: 0.6"/>
    </g>
    <g clip-path="url(#p2e880aee8e)">
     <use xlink:href="#C1_0_2494f980c0" x="158.591167" y="211.952285" style="fill: #e69f00; fill-opacity: 0.6"/>
    </g>
    <g clip-path="url(#p2e880aee8e)">
     <use xlink:href="#C1_0_2494f980c0" x="161.120361" y="237.782118" style="fill: #e69f00; fill-opacity: 0.6"/>
    </g>
    <g clip-path="url(#p2e880aee8e)">
     <use xlink:href="#C1_0_2494f980c0" x="157.394225" y="267.225277" style="fill: #e69f00; fill-opacity: 0.6"/>
    </g>
    <g clip-path="url(#p2e880aee8e)">
     <use xlink:href="#C1_0_2494f980c0" x="158.598389" y="47.475605" style="fill: #e69f00; fill-opacity: 0.6"/>
    </g>
    <g clip-path="url(#p2e880aee8e)">
     <use xlink:href="#C1_0_2494f980c0" x="159.18384" y="182.295555" style="fill: #e69f00; fill-opacity: 0.6"/>
    </g>
    <g clip-path="url(#p2e880aee8e)">
     <use xlink:href="#C1_0_2494f980c0" x="159.89149" y="266.318545" style="fill: #e69f00; fill-opacity: 0.6"/>
    </g>
    <g clip-path="url(#p2e880aee8e)">
     <use xlink:href="#C1_0_2494f980c0" x="162.487595" y="339.506453" style="fill: #e69f00; fill-opacity: 0.6"/>
    </g>
    <g clip-path="url(#p2e880aee8e)">
     <use xlink:href="#C1_0_2494f980c0" x="157.868946" y="112.515373" style="fill: #e69f00; fill-opacity: 0.6"/>
    </g>
    <g clip-path="url(#p2e880aee8e)">
     <use xlink:href="#C1_0_2494f980c0" x="160.350312" y="282.558341" style="fill: #e69f00; fill-opacity: 0.6"/>
    </g>
    <g clip-path="url(#p2e880aee8e)">
     <use xlink:href="#C1_0_2494f980c0" x="160.967025" y="236.103251" style="fill: #e69f00; fill-opacity: 0.6"/>
    </g>
    <g clip-path="url(#p2e880aee8e)">
     <use xlink:href="#C1_0_2494f980c0" x="156.660266" y="233.618826" style="fill: #e69f00; fill-opacity: 0.6"/>
    </g>
    <g clip-path="url(#p2e880aee8e)">
     <use xlink:href="#C1_0_2494f980c0" x="161.086378" y="254.604085" style="fill: #e69f00; fill-opacity: 0.6"/>
    </g>
    <g clip-path="url(#p2e880aee8e)">
     <use xlink:href="#C1_0_2494f980c0" x="157.639003" y="258.633254" style="fill: #e69f00; fill-opacity: 0.6"/>
    </g>
    <g clip-path="url(#p2e880aee8e)">
     <use xlink:href="#C1_0_2494f980c0" x="156.806998" y="300.628144" style="fill: #e69f00; fill-opacity: 0.6"/>
    </g>
    <g clip-path="url(#p2e880aee8e)">
     <use xlink:href="#C1_0_2494f980c0" x="163.778994" y="287.477983" style="fill: #e69f00; fill-opacity: 0.6"/>
    </g>
   </g>
   <g id="PathCollection_3">
    <defs>
     <path id="C2_0_4933e7075b" d="M 0 3.872983 
C 1.027127 3.872983 2.012324 3.464901 2.738613 2.738613 
C 3.464901 2.012324 3.872983 1.027127 3.872983 -0 
C 3.872983 -1.027127 3.464901 -2.012324 2.738613 -2.738613 
C 2.012324 -3.464901 1.027127 -3.872983 0 -3.872983 
C -1.027127 -3.872983 -2.012324 -3.464901 -2.738613 -2.738613 
C -3.464901 -2.012324 -3.872983 -1.027127 -3.872983 0 
C -3.872983 1.027127 -3.464901 2.012324 -2.738613 2.738613 
C -2.012324 3.464901 -1.027127 3.872983 0 3.872983 
z
"/>
    </defs>
    <g clip-path="url(#p2e880aee8e)">
     <use xlink:href="#C2_0_4933e7075b" x="229.647384" y="165.892379" style="fill: #e69f00; fill-opacity: 0.6"/>
    </g>
    <g clip-path="url(#p2e880aee8e)">
     <use xlink:href="#C2_0_4933e7075b" x="228.407061" y="94.592193" style="fill: #e69f00; fill-opacity: 0.6"/>
    </g>
    <g clip-path="url(#p2e880aee8e)">
     <use xlink:href="#C2_0_4933e7075b" x="224.433038" y="196.913874" style="fill: #e69f00; fill-opacity: 0.6"/>
    </g>
    <g clip-path="url(#p2e880aee8e)">
     <use xlink:href="#C2_0_4933e7075b" x="222.800609" y="210.726806" style="fill: #e69f00; fill-opacity: 0.6"/>
    </g>
    <g clip-path="url(#p2e880aee8e)">
     <use xlink:href="#C2_0_4933e7075b" x="227.427609" y="195.241407" style="fill: #e69f00; fill-opacity: 0.6"/>
    </g>
    <g clip-path="url(#p2e880aee8e)">
     <use xlink:href="#C2_0_4933e7075b" x="225.502215" y="131.555985" style="fill: #e69f00; fill-opacity: 0.6"/>
    </g>
    <g clip-path="url(#p2e880aee8e)">
     <use xlink:href="#C2_0_4933e7075b" x="222.992817" y="83.816548" style="fill: #e69f00; fill-opacity: 0.6"/>
    </g>
    <g clip-path="url(#p2e880aee8e)">
     <use xlink:href="#C2_0_4933e7075b" x="225.936267" y="192.921474" style="fill: #e69f00; fill-opacity: 0.6"/>
    </g>
    <g clip-path="url(#p2e880aee8e)">
     <use xlink:href="#C2_0_4933e7075b" x="222.301405" y="226.437083" style="fill: #e69f00; fill-opacity: 0.6"/>
    </g>
    <g clip-path="url(#p2e880aee8e)">
     <use xlink:href="#C2_0_4933e7075b" x="229.203178" y="104.003886" style="fill: #e69f00; fill-opacity: 0.6"/>
    </g>
    <g clip-path="url(#p2e880aee8e)">
     <use xlink:href="#C2_0_4933e7075b" x="224.071485" y="181.245177" style="fill: #e69f00; fill-opacity: 0.6"/>
    </g>
    <g clip-path="url(#p2e880aee8e)">
     <use xlink:href="#C2_0_4933e7075b" x="227.256347" y="181.840934" style="fill: #e69f00; fill-opacity: 0.6"/>
    </g>
    <g clip-path="url(#p2e880aee8e)">
     <use xlink:href="#C2_0_4933e7075b" x="224.489024" y="265.936068" style="fill: #e69f00; fill-opacity: 0.6"/>
    </g>
    <g clip-path="url(#p2e880aee8e)">
     <use xlink:href="#C2_0_4933e7075b" x="226.132617" y="197.717884" style="fill: #e69f00; fill-opacity: 0.6"/>
    </g>
    <g clip-path="url(#p2e880aee8e)">
     <use xlink:href="#C2_0_4933e7075b" x="226.342781" y="247.669613" style="fill: #e69f00; fill-opacity: 0.6"/>
    </g>
    <g clip-path="url(#p2e880aee8e)">
     <use xlink:href="#C2_0_4933e7075b" x="223.488334" y="298.911887" style="fill: #e69f00; fill-opacity: 0.6"/>
    </g>
    <g clip-path="url(#p2e880aee8e)">
     <use xlink:href="#C2_0_4933e7075b" x="229.678564" y="314.033535" style="fill: #e69f00; fill-opacity: 0.6"/>
    </g>
   </g>
   <g id="patch_3">
    <path d="M 61.633594 354.107995 
L 61.633594 32.874062 
" style="fill: none; stroke: #000000; stroke-width: 1.5; stroke-linejoin: miter; stroke-linecap: square"/>
   </g>
   <g id="patch_4">
    <path d="M 61.633594 354.107995 
L 258.842458 354.107995 
" style="fill: none; stroke: #000000; stroke-width: 1.5; stroke-linejoin: miter; stroke-linecap: square"/>
   </g>
   <g id="LineCollection_1">
    <path d="M 94.501738 235.967059 
L 94.501738 208.247026 
" clip-path="url(#p2e880aee8e)" style="fill: none; stroke: #000000; stroke-width: 2"/>
    <path d="M 160.238026 250.271787 
L 160.238026 216.645991 
" clip-path="url(#p2e880aee8e)" style="fill: none; stroke: #000000; stroke-width: 2"/>
    <path d="M 225.974314 209.533247 
L 225.974314 177.461663 
" clip-path="url(#p2e880aee8e)" style="fill: none; stroke: #000000; stroke-width: 2"/>
   </g>
   <g id="line2d_10">
    <defs>
     <path id="m51cd39994e" d="M 8 0 
L -8 -0 
" style="stroke: #000000"/>
    </defs>
    <g clip-path="url(#p2e880aee8e)">
     <use xlink:href="#m51cd39994e" x="94.501738" y="235.967059" style="stroke: #000000"/>
     <use xlink:href="#m51cd39994e" x="160.238026" y="250.271787" style="stroke: #000000"/>
     <use xlink:href="#m51cd39994e" x="225.974314" y="209.533247" style="stroke: #000000"/>
    </g>
   </g>
   <g id="line2d_11">
    <g clip-path="url(#p2e880aee8e)">
     <use xlink:href="#m51cd39994e" x="94.501738" y="208.247026" style="stroke: #000000"/>
     <use xlink:href="#m51cd39994e" x="160.238026" y="216.645991" style="stroke: #000000"/>
     <use xlink:href="#m51cd39994e" x="225.974314" y="177.461663" style="stroke: #000000"/>
    </g>
   </g>
   <g id="text_10">
    <text style="font-weight: 700; font-size: 18px; font-family: 'Helvetica'; text-anchor: middle" x="160.238026" y="20.341575" transform="rotate(-0 160.238026 20.341575)">*</text>
   </g>
   <g id="text_11">
    <text style="font-weight: 700; font-size: 19px; font-family: 'Helvetica'; text-anchor: start" x="61.633594" y="20.874062" transform="rotate(-0 61.633594 20.874062)">A</text>
   </g>
   <g id="PathCollection_4">
    <defs>
     <path id="m6a220f0530" d="M 0 5 
C 1.326016 5 2.597899 4.473168 3.535534 3.535534 
C 4.473168 2.597899 5 1.326016 5 0 
C 5 -1.326016 4.473168 -2.597899 3.535534 -3.535534 
C 2.597899 -4.473168 1.326016 -5 0 -5 
C -1.326016 -5 -2.597899 -4.473168 -3.535534 -3.535534 
C -4.473168 -2.597899 -5 -1.326016 -5 0 
C -5 1.326016 -4.473168 2.597899 -3.535534 3.535534 
C -2.597899 4.473168 -1.326016 5 0 5 
z
" style="stroke: #000000"/>
    </defs>
    <g clip-path="url(#p2e880aee8e)">
     <use xlink:href="#m6a220f0530" x="94.501738" y="222.107042" style="stroke: #000000"/>
     <use xlink:href="#m6a220f0530" x="160.238026" y="233.458889" style="stroke: #000000"/>
     <use xlink:href="#m6a220f0530" x="225.974314" y="193.497455" style="stroke: #000000"/>
    </g>
   </g>
  </g>
  <g id="axes_2">
   <g id="patch_5">
    <path d="M 327.061844 354.107995 
L 524.270707 354.107995 
L 524.270707 32.874062 
L 327.061844 32.874062 
z
" style="fill: #ffffff"/>
   </g>
   <g id="FillBetweenPolyCollection_4">
    <path d="M 454.392076 339.506453 
L 426.04135 339.506453 
L 426.04135 336.556646 
L 426.04135 333.606839 
L 426.04135 330.657033 
L 426.04135 327.707226 
L 426.04135 324.75742 
L 426.04135 321.807613 
L 426.04135 318.857807 
L 426.04135 315.908 
L 426.04135 312.958194 
L 426.04135 310.008387 
L 426.04135 307.058581 
L 426.04135 304.108774 
L 426.04135 301.158967 
L 426.04135 298.209161 
L 426.04135 295.259354 
L 426.04135 292.309548 
L 426.04135 289.359741 
L 426.04135 286.409935 
L 426.04135 283.460128 
L 426.04135 280.510322 
L 426.04135 277.560515 
L 426.04135 274.610709 
L 426.04135 271.660902 
L 426.04135 268.711096 
L 426.04135 265.761289 
L 426.04135 262.811482 
L 426.04135 259.861676 
L 426.04135 256.911869 
L 426.04135 253.962063 
L 426.04135 251.012256 
L 426.04135 248.06245 
L 426.04135 245.112643 
L 426.04135 242.162837 
L 426.04135 239.21303 
L 426.04135 236.263224 
L 426.04135 233.313417 
L 426.04135 230.36361 
L 426.04135 227.413804 
L 426.04135 224.463997 
L 426.04135 221.514191 
L 426.04135 218.564384 
L 426.04135 215.614578 
L 426.04135 212.664771 
L 426.04135 209.714965 
L 426.04135 206.765158 
L 426.04135 203.815352 
L 426.04135 200.865545 
L 426.04135 197.915739 
L 426.04135 194.965932 
L 426.04135 192.016125 
L 426.04135 189.066319 
L 426.04135 186.116512 
L 426.04135 183.166706 
L 426.04135 180.216899 
L 426.04135 177.267093 
L 426.04135 174.317286 
L 426.04135 171.36748 
L 426.04135 168.417673 
L 426.04135 165.467867 
L 426.04135 162.51806 
L 426.04135 159.568253 
L 426.04135 156.618447 
L 426.04135 153.66864 
L 426.04135 150.718834 
L 426.04135 147.769027 
L 426.04135 144.819221 
L 426.04135 141.869414 
L 426.04135 138.919608 
L 426.04135 135.969801 
L 426.04135 133.019995 
L 426.04135 130.070188 
L 426.04135 127.120382 
L 426.04135 124.170575 
L 426.04135 121.220768 
L 426.04135 118.270962 
L 426.04135 115.321155 
L 426.04135 112.371349 
L 426.04135 109.421542 
L 426.04135 106.471736 
L 426.04135 103.521929 
L 426.04135 100.572123 
L 426.04135 97.622316 
L 426.04135 94.67251 
L 426.04135 91.722703 
L 426.04135 88.772896 
L 426.04135 85.82309 
L 426.04135 82.873283 
L 426.04135 79.923477 
L 426.04135 76.97367 
L 426.04135 74.023864 
L 426.04135 71.074057 
L 426.04135 68.124251 
L 426.04135 65.174444 
L 426.04135 62.224638 
L 426.04135 59.274831 
L 426.04135 56.325025 
L 426.04135 53.375218 
L 426.04135 50.425411 
L 426.04135 47.475605 
L 444.354709 47.475605 
L 444.354709 47.475605 
L 445.011279 50.425411 
L 445.665962 53.375218 
L 446.317173 56.325025 
L 446.963305 59.274831 
L 447.602727 62.224638 
L 448.2338 65.174444 
L 448.854883 68.124251 
L 449.464343 71.074057 
L 450.060563 74.023864 
L 450.641956 76.97367 
L 451.206971 79.923477 
L 451.754105 82.873283 
L 452.281915 85.82309 
L 452.789025 88.772896 
L 453.27414 91.722703 
L 453.736054 94.67251 
L 454.173659 97.622316 
L 454.585957 100.572123 
L 454.972065 103.521929 
L 455.331228 106.471736 
L 455.66282 109.421542 
L 455.96636 112.371349 
L 456.241506 115.321155 
L 456.488072 118.270962 
L 456.706021 121.220768 
L 456.895478 124.170575 
L 457.056721 127.120382 
L 457.190192 130.070188 
L 457.296489 133.019995 
L 457.376365 135.969801 
L 457.43073 138.919608 
L 457.46064 141.869414 
L 457.467296 144.819221 
L 457.452034 147.769027 
L 457.416322 150.718834 
L 457.361744 153.66864 
L 457.289995 156.618447 
L 457.20287 159.568253 
L 457.102246 162.51806 
L 456.990077 165.467867 
L 456.868374 168.417673 
L 456.739192 171.36748 
L 456.604615 174.317286 
L 456.466739 177.267093 
L 456.327659 180.216899 
L 456.189447 183.166706 
L 456.054138 186.116512 
L 455.923711 189.066319 
L 455.800076 192.016125 
L 455.685051 194.965932 
L 455.58035 197.915739 
L 455.487563 200.865545 
L 455.408145 203.815352 
L 455.343394 206.765158 
L 455.294444 209.714965 
L 455.262247 212.664771 
L 455.247565 215.614578 
L 455.250954 218.564384 
L 455.272761 221.514191 
L 455.313112 224.463997 
L 455.371909 227.413804 
L 455.448825 230.36361 
L 455.543302 233.313417 
L 455.654551 236.263224 
L 455.781558 239.21303 
L 455.923081 242.162837 
L 456.077665 245.112643 
L 456.243645 248.06245 
L 456.419162 251.012256 
L 456.602171 253.962063 
L 456.790462 256.911869 
L 456.981672 259.861676 
L 457.173311 262.811482 
L 457.362774 265.761289 
L 457.547372 268.711096 
L 457.72435 271.660902 
L 457.890915 274.610709 
L 458.044261 277.560515 
L 458.181593 280.510322 
L 458.300154 283.460128 
L 458.397256 286.409935 
L 458.470299 289.359741 
L 458.5168 292.309548 
L 458.53442 295.259354 
L 458.52098 298.209161 
L 458.474492 301.158967 
L 458.393171 304.108774 
L 458.275458 307.058581 
L 458.120033 310.008387 
L 457.925832 312.958194 
L 457.692052 315.908 
L 457.418166 318.857807 
L 457.103924 321.807613 
L 456.749356 324.75742 
L 456.354773 327.707226 
L 455.920764 330.657033 
L 455.448188 333.606839 
L 454.938168 336.556646 
L 454.392076 339.506453 
z
" clip-path="url(#pcc2ea1c202)" style="fill: #f0e442; fill-opacity: 0.25"/>
   </g>
   <g id="matplotlib.axis_3">
    <g id="xtick_4">
     <g id="line2d_12">
      <g>
       <use xlink:href="#mec3b44d115" x="425.666276" y="354.107995" style="stroke: #000000; stroke-width: 0.8"/>
      </g>
     </g>
     <g id="text_12">
      <text style="font-size: 14px; font-family: 'Helvetica'" transform="translate(383.987855 407.82433) rotate(-45)">Modafinil</text>
     </g>
    </g>
   </g>
   <g id="matplotlib.axis_4">
    <g id="ytick_6">
     <g id="line2d_13">
      <g>
       <use xlink:href="#m7f011c76cc" x="327.061844" y="324.905836" style="stroke: #000000; stroke-width: 0.8"/>
      </g>
     </g>
     <g id="text_13">
      <text style="font-size: 14px; font-family: 'Helvetica'; text-anchor: end" x="320.061844" y="329.927242" transform="rotate(-0 320.061844 329.927242)">−0.25</text>
     </g>
    </g>
    <g id="ytick_7">
     <g id="line2d_14">
      <g>
       <use xlink:href="#m7f011c76cc" x="327.061844" y="285.430545" style="stroke: #000000; stroke-width: 0.8"/>
      </g>
     </g>
     <g id="text_14">
      <text style="font-size: 14px; font-family: 'Helvetica'; text-anchor: end" x="320.061844" y="290.451951" transform="rotate(-0 320.061844 290.451951)">−0.20</text>
     </g>
    </g>
    <g id="ytick_8">
     <g id="line2d_15">
      <g>
       <use xlink:href="#m7f011c76cc" x="327.061844" y="245.955254" style="stroke: #000000; stroke-width: 0.8"/>
      </g>
     </g>
     <g id="text_15">
      <text style="font-size: 14px; font-family: 'Helvetica'; text-anchor: end" x="320.061844" y="250.97666" transform="rotate(-0 320.061844 250.97666)">−0.15</text>
     </g>
    </g>
    <g id="ytick_9">
     <g id="line2d_16">
      <g>
       <use xlink:href="#m7f011c76cc" x="327.061844" y="206.479963" style="stroke: #000000; stroke-width: 0.8"/>
      </g>
     </g>
     <g id="text_16">
      <text style="font-size: 14px; font-family: 'Helvetica'; text-anchor: end" x="320.061844" y="211.501369" transform="rotate(-0 320.061844 211.501369)">−0.10</text>
     </g>
    </g>
    <g id="ytick_10">
     <g id="line2d_17">
      <g>
       <use xlink:href="#m7f011c76cc" x="327.061844" y="167.004672" style="stroke: #000000; stroke-width: 0.8"/>
      </g>
     </g>
     <g id="text_17">
      <text style="font-size: 14px; font-family: 'Helvetica'; text-anchor: end" x="320.061844" y="172.026078" transform="rotate(-0 320.061844 172.026078)">−0.05</text>
     </g>
    </g>
    <g id="ytick_11">
     <g id="line2d_18">
      <g>
       <use xlink:href="#m7f011c76cc" x="327.061844" y="127.529381" style="stroke: #000000; stroke-width: 0.8"/>
      </g>
     </g>
     <g id="text_18">
      <text style="font-size: 14px; font-family: 'Helvetica'; text-anchor: end" x="320.061844" y="132.550787" transform="rotate(-0 320.061844 132.550787)">0.00</text>
     </g>
    </g>
    <g id="ytick_12">
     <g id="line2d_19">
      <g>
       <use xlink:href="#m7f011c76cc" x="327.061844" y="88.05409" style="stroke: #000000; stroke-width: 0.8"/>
      </g>
     </g>
     <g id="text_19">
      <text style="font-size: 14px; font-family: 'Helvetica'; text-anchor: end" x="320.061844" y="93.075496" transform="rotate(-0 320.061844 93.075496)">0.05</text>
     </g>
    </g>
    <g id="ytick_13">
     <g id="line2d_20">
      <g>
       <use xlink:href="#m7f011c76cc" x="327.061844" y="48.578799" style="stroke: #000000; stroke-width: 0.8"/>
      </g>
     </g>
     <g id="text_20">
      <text style="font-size: 14px; font-family: 'Helvetica'; text-anchor: end" x="320.061844" y="53.600205" transform="rotate(-0 320.061844 53.600205)">0.10</text>
     </g>
    </g>
    <g id="text_21">
     <!-- $\Delta$SE -->
     <g transform="translate(277.077625 210.661029) rotate(-90)">
      <text>
       <tspan x="0" y="-0.390625" style="font-size: 17px; font-family: 'DejaVu Sans'">Δ</tspan>
       <tspan x="11.629395" y="-0.390625" style="font-weight: 700; font-size: 17px; font-family: 'Helvetica'">S</tspan>
       <tspan x="22.968262" y="-0.390625" style="font-weight: 700; font-size: 17px; font-family: 'Helvetica'">E</tspan>
      </text>
     </g>
    </g>
   </g>
   <g id="line2d_21">
    <path d="M 327.061844 127.529381 
L 524.270707 127.529381 
" clip-path="url(#pcc2ea1c202)" style="fill: none; stroke-dasharray: 5.55,2.4; stroke-dashoffset: 0; stroke: #808080; stroke-opacity: 0.7; stroke-width: 1.5"/>
   </g>
   <g id="PathCollection_5">
    <defs>
     <path id="C3_0_f674a08628" d="M 0 3.872983 
C 1.027127 3.872983 2.012324 3.464901 2.738613 2.738613 
C 3.464901 2.012324 3.872983 1.027127 3.872983 -0 
C 3.872983 -1.027127 3.464901 -2.012324 2.738613 -2.738613 
C 2.012324 -3.464901 1.027127 -3.872983 0 -3.872983 
C -1.027127 -3.872983 -2.012324 -3.464901 -2.738613 -2.738613 
C -3.464901 -2.012324 -3.872983 -1.027127 -3.872983 0 
C -3.872983 1.027127 -3.464901 2.012324 -2.738613 2.738613 
C -2.012324 3.464901 -1.027127 3.872983 0 3.872983 
z
"/>
    </defs>
    <g clip-path="url(#pcc2ea1c202)">
     <use xlink:href="#C3_0_f674a08628" x="424.016822" y="298.160658" style="fill: #f0e442; fill-opacity: 0.6"/>
    </g>
    <g clip-path="url(#pcc2ea1c202)">
     <use xlink:href="#C3_0_f674a08628" x="431.591933" y="267.485474" style="fill: #f0e442; fill-opacity: 0.6"/>
    </g>
    <g clip-path="url(#pcc2ea1c202)">
     <use xlink:href="#C3_0_f674a08628" x="428.71636" y="320.727174" style="fill: #f0e442; fill-opacity: 0.6"/>
    </g>
    <g clip-path="url(#pcc2ea1c202)">
     <use xlink:href="#C3_0_f674a08628" x="426.963364" y="47.475605" style="fill: #f0e442; fill-opacity: 0.6"/>
    </g>
    <g clip-path="url(#pcc2ea1c202)">
     <use xlink:href="#C3_0_f674a08628" x="421.143864" y="104.507327" style="fill: #f0e442; fill-opacity: 0.6"/>
    </g>
    <g clip-path="url(#pcc2ea1c202)">
     <use xlink:href="#C3_0_f674a08628" x="421.143547" y="118.880827" style="fill: #f0e442; fill-opacity: 0.6"/>
    </g>
    <g clip-path="url(#pcc2ea1c202)">
     <use xlink:href="#C3_0_f674a08628" x="419.856287" y="197.828695" style="fill: #f0e442; fill-opacity: 0.6"/>
    </g>
    <g clip-path="url(#pcc2ea1c202)">
     <use xlink:href="#C3_0_f674a08628" x="430.480488" y="328.386174" style="fill: #f0e442; fill-opacity: 0.6"/>
    </g>
    <g clip-path="url(#pcc2ea1c202)">
     <use xlink:href="#C3_0_f674a08628" x="426.995661" y="175.845358" style="fill: #f0e442; fill-opacity: 0.6"/>
    </g>
    <g clip-path="url(#pcc2ea1c202)">
     <use xlink:href="#C3_0_f674a08628" x="428.401859" y="339.506453" style="fill: #f0e442; fill-opacity: 0.6"/>
    </g>
    <g clip-path="url(#pcc2ea1c202)">
     <use xlink:href="#C3_0_f674a08628" x="419.363276" y="127.683334" style="fill: #f0e442; fill-opacity: 0.6"/>
    </g>
   </g>
   <g id="patch_6">
    <path d="M 327.061844 354.107995 
L 327.061844 32.874062 
" style="fill: none; stroke: #000000; stroke-width: 1.5; stroke-linejoin: miter; stroke-linecap: square"/>
   </g>
   <g id="patch_7">
    <path d="M 327.061844 354.107995 
L 524.270707 354.107995 
" style="fill: none; stroke: #000000; stroke-width: 1.5; stroke-linejoin: miter; stroke-linecap: square"/>
   </g>
   <g id="LineCollection_2">
    <path d="M 425.666276 242.838052 
L 425.666276 180.159599 
" clip-path="url(#pcc2ea1c202)" style="fill: none; stroke: #000000; stroke-width: 2"/>
   </g>
   <g id="line2d_22">
    <g clip-path="url(#pcc2ea1c202)">
     <use xlink:href="#m51cd39994e" x="425.666276" y="242.838052" style="stroke: #000000"/>
    </g>
   </g>
   <g id="line2d_23">
    <g clip-path="url(#pcc2ea1c202)">
     <use xlink:href="#m51cd39994e" x="425.666276" y="180.159599" style="stroke: #000000"/>
    </g>
   </g>
   <g id="text_22">
    <text style="font-weight: 700; font-size: 19px; font-family: 'Helvetica'; text-anchor: start" x="327.061844" y="20.874062" transform="rotate(-0 327.061844 20.874062)">B</text>
   </g>
   <g id="PathCollection_6">
    <g clip-path="url(#pcc2ea1c202)">
     <use xlink:href="#m6a220f0530" x="425.666276" y="211.498825" style="stroke: #000000"/>
    </g>
   </g>
  </g>
  <g id="axes_3">
   <g id="patch_8">
    <path d="M 584.704781 354.107995 
L 781.913645 354.107995 
L 781.913645 32.874062 
L 584.704781 32.874062 
z
" style="fill: #ffffff"/>
   </g>
   <g id="FillBetweenPolyCollection_5">
    <path d="M 699.894628 339.506453 
L 683.496924 339.506453 
L 683.496924 336.556646 
L 683.496924 333.606839 
L 683.496924 330.657033 
L 683.496924 327.707226 
L 683.496924 324.75742 
L 683.496924 321.807613 
L 683.496924 318.857807 
L 683.496924 315.908 
L 683.496924 312.958194 
L 683.496924 310.008387 
L 683.496924 307.058581 
L 683.496924 304.108774 
L 683.496924 301.158967 
L 683.496924 298.209161 
L 683.496924 295.259354 
L 683.496924 292.309548 
L 683.496924 289.359741 
L 683.496924 286.409935 
L 683.496924 283.460128 
L 683.496924 280.510322 
L 683.496924 277.560515 
L 683.496924 274.610709 
L 683.496924 271.660902 
L 683.496924 268.711096 
L 683.496924 265.761289 
L 683.496924 262.811482 
L 683.496924 259.861676 
L 683.496924 256.911869 
L 683.496924 253.962063 
L 683.496924 251.012256 
L 683.496924 248.06245 
L 683.496924 245.112643 
L 683.496924 242.162837 
L 683.496924 239.21303 
L 683.496924 236.263224 
L 683.496924 233.313417 
L 683.496924 230.36361 
L 683.496924 227.413804 
L 683.496924 224.463997 
L 683.496924 221.514191 
L 683.496924 218.564384 
L 683.496924 215.614578 
L 683.496924 212.664771 
L 683.496924 209.714965 
L 683.496924 206.765158 
L 683.496924 203.815352 
L 683.496924 200.865545 
L 683.496924 197.915739 
L 683.496924 194.965932 
L 683.496924 192.016125 
L 683.496924 189.066319 
L 683.496924 186.116512 
L 683.496924 183.166706 
L 683.496924 180.216899 
L 683.496924 177.267093 
L 683.496924 174.317286 
L 683.496924 171.36748 
L 683.496924 168.417673 
L 683.496924 165.467867 
L 683.496924 162.51806 
L 683.496924 159.568253 
L 683.496924 156.618447 
L 683.496924 153.66864 
L 683.496924 150.718834 
L 683.496924 147.769027 
L 683.496924 144.819221 
L 683.496924 141.869414 
L 683.496924 138.919608 
L 683.496924 135.969801 
L 683.496924 133.019995 
L 683.496924 130.070188 
L 683.496924 127.120382 
L 683.496924 124.170575 
L 683.496924 121.220768 
L 683.496924 118.270962 
L 683.496924 115.321155 
L 683.496924 112.371349 
L 683.496924 109.421542 
L 683.496924 106.471736 
L 683.496924 103.521929 
L 683.496924 100.572123 
L 683.496924 97.622316 
L 683.496924 94.67251 
L 683.496924 91.722703 
L 683.496924 88.772896 
L 683.496924 85.82309 
L 683.496924 82.873283 
L 683.496924 79.923477 
L 683.496924 76.97367 
L 683.496924 74.023864 
L 683.496924 71.074057 
L 683.496924 68.124251 
L 683.496924 65.174444 
L 683.496924 62.224638 
L 683.496924 59.274831 
L 683.496924 56.325025 
L 683.496924 53.375218 
L 683.496924 50.425411 
L 683.496924 47.475605 
L 688.24378 47.475605 
L 688.24378 47.475605 
L 688.363982 50.425411 
L 688.481223 53.375218 
L 688.596673 56.325025 
L 688.71169 59.274831 
L 688.827806 62.224638 
L 688.94671 65.174444 
L 689.070223 68.124251 
L 689.200273 71.074057 
L 689.338873 74.023864 
L 689.488091 76.97367 
L 689.650023 79.923477 
L 689.826768 82.873283 
L 690.020401 85.82309 
L 690.232946 88.772896 
L 690.466357 91.722703 
L 690.722495 94.67251 
L 691.003106 97.622316 
L 691.30981 100.572123 
L 691.644077 103.521929 
L 692.007219 106.471736 
L 692.400376 109.421542 
L 692.824501 112.371349 
L 693.280352 115.321155 
L 693.768479 118.270962 
L 694.289211 121.220768 
L 694.842648 124.170575 
L 695.428645 127.120382 
L 696.046797 130.070188 
L 696.696433 133.019995 
L 697.376592 135.969801 
L 698.086017 138.919608 
L 698.823139 141.869414 
L 699.586062 144.819221 
L 700.372559 147.769027 
L 701.180058 150.718834 
L 702.005647 153.66864 
L 702.846068 156.618447 
L 703.697728 159.568253 
L 704.556712 162.51806 
L 705.418801 165.467867 
L 706.279504 168.417673 
L 707.134087 171.36748 
L 707.977624 174.317286 
L 708.805041 177.267093 
L 709.611177 180.216899 
L 710.390844 183.166706 
L 711.138903 186.116512 
L 711.850331 189.066319 
L 712.520297 192.016125 
L 713.144241 194.965932 
L 713.717947 197.915739 
L 714.237617 200.865545 
L 714.699935 203.815352 
L 715.102134 206.765158 
L 715.44204 209.714965 
L 715.718123 212.664771 
L 715.929521 215.614578 
L 716.076063 218.564384 
L 716.158272 221.514191 
L 716.177357 224.463997 
L 716.135189 227.413804 
L 716.034267 230.36361 
L 715.877666 233.313417 
L 715.668979 236.263224 
L 715.412242 239.21303 
L 715.111856 242.162837 
L 714.772495 245.112643 
L 714.399016 248.06245 
L 713.996361 251.012256 
L 713.569462 253.962063 
L 713.123143 256.911869 
L 712.662033 259.861676 
L 712.190476 262.811482 
L 711.712458 265.761289 
L 711.231539 268.711096 
L 710.750799 271.660902 
L 710.272791 274.610709 
L 709.799516 277.560515 
L 709.332404 280.510322 
L 708.872319 283.460128 
L 708.419562 286.409935 
L 707.973909 289.359741 
L 707.534639 292.309548 
L 707.100593 295.259354 
L 706.670227 298.209161 
L 706.241685 301.158967 
L 705.812874 304.108774 
L 705.381537 307.058581 
L 704.945341 310.008387 
L 704.501951 312.958194 
L 704.049114 315.908 
L 703.584731 318.857807 
L 703.106927 321.807613 
L 702.614109 324.75742 
L 702.105022 327.707226 
L 701.578786 330.657033 
L 701.034931 333.606839 
L 700.473415 336.556646 
L 699.894628 339.506453 
z
" clip-path="url(#p87420af8be)" style="fill: #009e73; fill-opacity: 0.25"/>
   </g>
   <g id="matplotlib.axis_5">
    <g id="xtick_5">
     <g id="line2d_24">
      <g>
       <use xlink:href="#mec3b44d115" x="683.309213" y="354.107995" style="stroke: #000000; stroke-width: 0.8"/>
      </g>
     </g>
     <g id="text_23">
      <text style="font-size: 14px; font-family: 'Helvetica'" transform="translate(661.988176 387.466947) rotate(-45)">LSD</text>
     </g>
    </g>
   </g>
   <g id="matplotlib.axis_6">
    <g id="ytick_14">
     <g id="line2d_25">
      <g>
       <use xlink:href="#m7f011c76cc" x="584.704781" y="330.93709" style="stroke: #000000; stroke-width: 0.8"/>
      </g>
     </g>
     <g id="text_24">
      <text style="font-size: 14px; font-family: 'Helvetica'; text-anchor: end" x="577.704781" y="335.958496" transform="rotate(-0 577.704781 335.958496)">−0.1</text>
     </g>
    </g>
    <g id="ytick_15">
     <g id="line2d_26">
      <g>
       <use xlink:href="#m7f011c76cc" x="584.704781" y="273.651697" style="stroke: #000000; stroke-width: 0.8"/>
      </g>
     </g>
     <g id="text_25">
      <text style="font-size: 14px; font-family: 'Helvetica'; text-anchor: end" x="577.704781" y="278.673103" transform="rotate(-0 577.704781 278.673103)">0.0</text>
     </g>
    </g>
    <g id="ytick_16">
     <g id="line2d_27">
      <g>
       <use xlink:href="#m7f011c76cc" x="584.704781" y="216.366304" style="stroke: #000000; stroke-width: 0.8"/>
      </g>
     </g>
     <g id="text_26">
      <text style="font-size: 14px; font-family: 'Helvetica'; text-anchor: end" x="577.704781" y="221.38771" transform="rotate(-0 577.704781 221.38771)">0.1</text>
     </g>
    </g>
    <g id="ytick_17">
     <g id="line2d_28">
      <g>
       <use xlink:href="#m7f011c76cc" x="584.704781" y="159.080911" style="stroke: #000000; stroke-width: 0.8"/>
      </g>
     </g>
     <g id="text_27">
      <text style="font-size: 14px; font-family: 'Helvetica'; text-anchor: end" x="577.704781" y="164.102318" transform="rotate(-0 577.704781 164.102318)">0.2</text>
     </g>
    </g>
    <g id="ytick_18">
     <g id="line2d_29">
      <g>
       <use xlink:href="#m7f011c76cc" x="584.704781" y="101.795519" style="stroke: #000000; stroke-width: 0.8"/>
      </g>
     </g>
     <g id="text_28">
      <text style="font-size: 14px; font-family: 'Helvetica'; text-anchor: end" x="577.704781" y="106.816925" transform="rotate(-0 577.704781 106.816925)">0.3</text>
     </g>
    </g>
    <g id="ytick_19">
     <g id="line2d_30">
      <g>
       <use xlink:href="#m7f011c76cc" x="584.704781" y="44.510126" style="stroke: #000000; stroke-width: 0.8"/>
      </g>
     </g>
     <g id="text_29">
      <text style="font-size: 14px; font-family: 'Helvetica'; text-anchor: end" x="577.704781" y="49.531532" transform="rotate(-0 577.704781 49.531532)">0.4</text>
     </g>
    </g>
    <g id="text_30">
     <!-- $\Delta$SE -->
     <g transform="translate(542.505875 210.661029) rotate(-90)">
      <text>
       <tspan x="0" y="-0.390625" style="font-size: 17px; font-family: 'DejaVu Sans'">Δ</tspan>
       <tspan x="11.629395" y="-0.390625" style="font-weight: 700; font-size: 17px; font-family: 'Helvetica'">S</tspan>
       <tspan x="22.968262" y="-0.390625" style="font-weight: 700; font-size: 17px; font-family: 'Helvetica'">E</tspan>
      </text>
     </g>
    </g>
   </g>
   <g id="line2d_31">
    <path d="M 584.704781 273.651697 
L 781.913645 273.651697 
" clip-path="url(#p87420af8be)" style="fill: none; stroke-dasharray: 5.55,2.4; stroke-dashoffset: 0; stroke: #808080; stroke-opacity: 0.7; stroke-width: 1.5"/>
   </g>
   <g id="PathCollection_7">
    <defs>
     <path id="C4_0_66743b6e46" d="M 0 3.872983 
C 1.027127 3.872983 2.012324 3.464901 2.738613 2.738613 
C 3.464901 2.012324 3.872983 1.027127 3.872983 -0 
C 3.872983 -1.027127 3.464901 -2.012324 2.738613 -2.738613 
C 2.012324 -3.464901 1.027127 -3.872983 0 -3.872983 
C -1.027127 -3.872983 -2.012324 -3.464901 -2.738613 -2.738613 
C -3.464901 -2.012324 -3.872983 -1.027127 -3.872983 0 
C -3.872983 1.027127 -3.464901 2.012324 -2.738613 2.738613 
C -2.012324 3.464901 -1.027127 3.872983 0 3.872983 
z
"/>
    </defs>
    <g clip-path="url(#p87420af8be)">
     <use xlink:href="#C4_0_66743b6e46" x="681.65976" y="327.470917" style="fill: #009e73; fill-opacity: 0.6"/>
    </g>
    <g clip-path="url(#p87420af8be)">
     <use xlink:href="#C4_0_66743b6e46" x="689.23487" y="239.473963" style="fill: #009e73; fill-opacity: 0.6"/>
    </g>
    <g clip-path="url(#p87420af8be)">
     <use xlink:href="#C4_0_66743b6e46" x="686.359297" y="339.506453" style="fill: #009e73; fill-opacity: 0.6"/>
    </g>
    <g clip-path="url(#p87420af8be)">
     <use xlink:href="#C4_0_66743b6e46" x="684.606302" y="130.519415" style="fill: #009e73; fill-opacity: 0.6"/>
    </g>
    <g clip-path="url(#p87420af8be)">
     <use xlink:href="#C4_0_66743b6e46" x="678.786802" y="328.667898" style="fill: #009e73; fill-opacity: 0.6"/>
    </g>
    <g clip-path="url(#p87420af8be)">
     <use xlink:href="#C4_0_66743b6e46" x="678.786484" y="271.902718" style="fill: #009e73; fill-opacity: 0.6"/>
    </g>
    <g clip-path="url(#p87420af8be)">
     <use xlink:href="#C4_0_66743b6e46" x="677.499225" y="189.18282" style="fill: #009e73; fill-opacity: 0.6"/>
    </g>
    <g clip-path="url(#p87420af8be)">
     <use xlink:href="#C4_0_66743b6e46" x="688.123425" y="222.621603" style="fill: #009e73; fill-opacity: 0.6"/>
    </g>
    <g clip-path="url(#p87420af8be)">
     <use xlink:href="#C4_0_66743b6e46" x="684.638598" y="213.325372" style="fill: #009e73; fill-opacity: 0.6"/>
    </g>
    <g clip-path="url(#p87420af8be)">
     <use xlink:href="#C4_0_66743b6e46" x="686.044797" y="169.378197" style="fill: #009e73; fill-opacity: 0.6"/>
    </g>
    <g clip-path="url(#p87420af8be)">
     <use xlink:href="#C4_0_66743b6e46" x="677.006214" y="47.475605" style="fill: #009e73; fill-opacity: 0.6"/>
    </g>
    <g clip-path="url(#p87420af8be)">
     <use xlink:href="#C4_0_66743b6e46" x="689.487239" y="205.679521" style="fill: #009e73; fill-opacity: 0.6"/>
    </g>
    <g clip-path="url(#p87420af8be)">
     <use xlink:href="#C4_0_66743b6e46" x="687.679922" y="216.666552" style="fill: #009e73; fill-opacity: 0.6"/>
    </g>
    <g clip-path="url(#p87420af8be)">
     <use xlink:href="#C4_0_66743b6e46" x="679.527261" y="239.756904" style="fill: #009e73; fill-opacity: 0.6"/>
    </g>
    <g clip-path="url(#p87420af8be)">
     <use xlink:href="#C4_0_66743b6e46" x="679.126084" y="292.296969" style="fill: #009e73; fill-opacity: 0.6"/>
    </g>
   </g>
   <g id="patch_9">
    <path d="M 584.704781 354.107995 
L 584.704781 32.874062 
" style="fill: none; stroke: #000000; stroke-width: 1.5; stroke-linejoin: miter; stroke-linecap: square"/>
   </g>
   <g id="patch_10">
    <path d="M 584.704781 354.107995 
L 781.913645 354.107995 
" style="fill: none; stroke: #000000; stroke-width: 1.5; stroke-linejoin: miter; stroke-linecap: square"/>
   </g>
   <g id="LineCollection_3">
    <path d="M 683.309213 249.245621 
L 683.309213 208.611033 
" clip-path="url(#p87420af8be)" style="fill: none; stroke: #000000; stroke-width: 2"/>
   </g>
   <g id="line2d_32">
    <g clip-path="url(#p87420af8be)">
     <use xlink:href="#m51cd39994e" x="683.309213" y="249.245621" style="stroke: #000000"/>
    </g>
   </g>
   <g id="line2d_33">
    <g clip-path="url(#p87420af8be)">
     <use xlink:href="#m51cd39994e" x="683.309213" y="208.611033" style="stroke: #000000"/>
    </g>
   </g>
   <g id="text_31">
    <text style="font-weight: 700; font-size: 18px; font-family: 'Helvetica'; text-anchor: middle" x="683.309213" y="20.341575" transform="rotate(-0 683.309213 20.341575)">*</text>
   </g>
   <g id="text_32">
    <text style="font-weight: 700; font-size: 19px; font-family: 'Helvetica'; text-anchor: start" x="584.704781" y="20.874062" transform="rotate(-0 584.704781 20.874062)">C</text>
   </g>
   <g id="PathCollection_8">
    <g clip-path="url(#p87420af8be)">
     <use xlink:href="#m6a220f0530" x="683.309213" y="228.928327" style="stroke: #000000"/>
    </g>
   </g>
  </g>
  <g id="axes_4">
   <g id="patch_11">
    <path d="M 842.347719 354.107995 
L 1039.556582 354.107995 
L 1039.556582 32.874062 
L 842.347719 32.874062 
z
" style="fill: #ffffff"/>
   </g>
   <g id="FillBetweenPolyCollection_6">
    <path d="M 945.483266 339.506453 
L 941.090826 339.506453 
L 941.090826 336.556646 
L 941.090826 333.606839 
L 941.090826 330.657033 
L 941.090826 327.707226 
L 941.090826 324.75742 
L 941.090826 321.807613 
L 941.090826 318.857807 
L 941.090826 315.908 
L 941.090826 312.958194 
L 941.090826 310.008387 
L 941.090826 307.058581 
L 941.090826 304.108774 
L 941.090826 301.158967 
L 941.090826 298.209161 
L 941.090826 295.259354 
L 941.090826 292.309548 
L 941.090826 289.359741 
L 941.090826 286.409935 
L 941.090826 283.460128 
L 941.090826 280.510322 
L 941.090826 277.560515 
L 941.090826 274.610709 
L 941.090826 271.660902 
L 941.090826 268.711096 
L 941.090826 265.761289 
L 941.090826 262.811482 
L 941.090826 259.861676 
L 941.090826 256.911869 
L 941.090826 253.962063 
L 941.090826 251.012256 
L 941.090826 248.06245 
L 941.090826 245.112643 
L 941.090826 242.162837 
L 941.090826 239.21303 
L 941.090826 236.263224 
L 941.090826 233.313417 
L 941.090826 230.36361 
L 941.090826 227.413804 
L 941.090826 224.463997 
L 941.090826 221.514191 
L 941.090826 218.564384 
L 941.090826 215.614578 
L 941.090826 212.664771 
L 941.090826 209.714965 
L 941.090826 206.765158 
L 941.090826 203.815352 
L 941.090826 200.865545 
L 941.090826 197.915739 
L 941.090826 194.965932 
L 941.090826 192.016125 
L 941.090826 189.066319 
L 941.090826 186.116512 
L 941.090826 183.166706 
L 941.090826 180.216899 
L 941.090826 177.267093 
L 941.090826 174.317286 
L 941.090826 171.36748 
L 941.090826 168.417673 
L 941.090826 165.467867 
L 941.090826 162.51806 
L 941.090826 159.568253 
L 941.090826 156.618447 
L 941.090826 153.66864 
L 941.090826 150.718834 
L 941.090826 147.769027 
L 941.090826 144.819221 
L 941.090826 141.869414 
L 941.090826 138.919608 
L 941.090826 135.969801 
L 941.090826 133.019995 
L 941.090826 130.070188 
L 941.090826 127.120382 
L 941.090826 124.170575 
L 941.090826 121.220768 
L 941.090826 118.270962 
L 941.090826 115.321155 
L 941.090826 112.371349 
L 941.090826 109.421542 
L 941.090826 106.471736 
L 941.090826 103.521929 
L 941.090826 100.572123 
L 941.090826 97.622316 
L 941.090826 94.67251 
L 941.090826 91.722703 
L 941.090826 88.772896 
L 941.090826 85.82309 
L 941.090826 82.873283 
L 941.090826 79.923477 
L 941.090826 76.97367 
L 941.090826 74.023864 
L 941.090826 71.074057 
L 941.090826 68.124251 
L 941.090826 65.174444 
L 941.090826 62.224638 
L 941.090826 59.274831 
L 941.090826 56.325025 
L 941.090826 53.375218 
L 941.090826 50.425411 
L 941.090826 47.475605 
L 960.041023 47.475605 
L 960.041023 47.475605 
L 961.0303 50.425411 
L 962.014518 53.375218 
L 962.988646 56.325025 
L 963.947598 59.274831 
L 964.886279 62.224638 
L 965.799648 65.174444 
L 966.682768 68.124251 
L 967.530865 71.074057 
L 968.33938 74.023864 
L 969.104015 76.97367 
L 969.82079 79.923477 
L 970.486076 82.873283 
L 971.096638 85.82309 
L 971.649666 88.772896 
L 972.142801 91.722703 
L 972.574157 94.67251 
L 972.942328 97.622316 
L 973.246399 100.572123 
L 973.485945 103.521929 
L 973.66102 106.471736 
L 973.772147 109.421542 
L 973.820295 112.371349 
L 973.806856 115.321155 
L 973.733613 118.270962 
L 973.602709 121.220768 
L 973.416605 124.170575 
L 973.178039 127.120382 
L 972.88999 130.070188 
L 972.555625 133.019995 
L 972.178264 135.969801 
L 971.761327 138.919608 
L 971.308299 141.869414 
L 970.822682 144.819221 
L 970.307962 147.769027 
L 969.767568 150.718834 
L 969.204841 153.66864 
L 968.623003 156.618447 
L 968.025135 159.568253 
L 967.414152 162.51806 
L 966.792787 165.467867 
L 966.163578 168.417673 
L 965.528861 171.36748 
L 964.890763 174.317286 
L 964.251205 177.267093 
L 963.611903 180.216899 
L 962.974374 183.166706 
L 962.33995 186.116512 
L 961.709787 189.066319 
L 961.08488 192.016125 
L 960.466082 194.965932 
L 959.854121 197.915739 
L 959.249619 200.865545 
L 958.653108 203.815352 
L 958.065055 206.765158 
L 957.485877 209.714965 
L 956.915958 212.664771 
L 956.355668 215.614578 
L 955.805375 218.564384 
L 955.265461 221.514191 
L 954.736331 224.463997 
L 954.218418 227.413804 
L 953.712197 230.36361 
L 953.218179 233.313417 
L 952.736917 236.263224 
L 952.269003 239.21303 
L 951.81506 242.162837 
L 951.375739 245.112643 
L 950.951705 248.06245 
L 950.543627 251.012256 
L 950.152162 253.962063 
L 949.777944 256.911869 
L 949.421561 259.861676 
L 949.083541 262.811482 
L 948.764333 265.761289 
L 948.46429 268.711096 
L 948.18365 271.660902 
L 947.922522 274.610709 
L 947.680872 277.560515 
L 947.458509 280.510322 
L 947.25508 283.460128 
L 947.070059 286.409935 
L 946.902748 289.359741 
L 946.752279 292.309548 
L 946.617618 295.259354 
L 946.497573 298.209161 
L 946.390812 301.158967 
L 946.295874 304.108774 
L 946.211196 307.058581 
L 946.135131 310.008387 
L 946.065978 312.958194 
L 946.002009 315.908 
L 945.941496 318.857807 
L 945.882743 321.807613 
L 945.824115 324.75742 
L 945.764067 327.707226 
L 945.701167 330.657033 
L 945.634125 333.606839 
L 945.561809 336.556646 
L 945.483266 339.506453 
z
" clip-path="url(#p6eb8e83e70)" style="fill: #cc79a7; fill-opacity: 0.25"/>
   </g>
   <g id="matplotlib.axis_7">
    <g id="xtick_6">
     <g id="line2d_34">
      <g>
       <use xlink:href="#mec3b44d115" x="940.952151" y="354.107995" style="stroke: #000000; stroke-width: 0.8"/>
      </g>
     </g>
     <g id="text_33">
      <text style="font-size: 14px; font-family: 'Helvetica'" transform="translate(917.447037 389.651023) rotate(-45)">DMT</text>
     </g>
    </g>
   </g>
   <g id="matplotlib.axis_8">
    <g id="ytick_20">
     <g id="line2d_35">
      <g>
       <use xlink:href="#m7f011c76cc" x="842.347719" y="314.199109" style="stroke: #000000; stroke-width: 0.8"/>
      </g>
     </g>
     <g id="text_34">
      <text style="font-size: 14px; font-family: 'Helvetica'; text-anchor: end" x="835.347719" y="319.220515" transform="rotate(-0 835.347719 319.220515)">−0.2</text>
     </g>
    </g>
    <g id="ytick_21">
     <g id="line2d_36">
      <g>
       <use xlink:href="#m7f011c76cc" x="842.347719" y="248.485897" style="stroke: #000000; stroke-width: 0.8"/>
      </g>
     </g>
     <g id="text_35">
      <text style="font-size: 14px; font-family: 'Helvetica'; text-anchor: end" x="835.347719" y="253.507303" transform="rotate(-0 835.347719 253.507303)">−0.1</text>
     </g>
    </g>
    <g id="ytick_22">
     <g id="line2d_37">
      <g>
       <use xlink:href="#m7f011c76cc" x="842.347719" y="182.772685" style="stroke: #000000; stroke-width: 0.8"/>
      </g>
     </g>
     <g id="text_36">
      <text style="font-size: 14px; font-family: 'Helvetica'; text-anchor: end" x="835.347719" y="187.794091" transform="rotate(-0 835.347719 187.794091)">0.0</text>
     </g>
    </g>
    <g id="ytick_23">
     <g id="line2d_38">
      <g>
       <use xlink:href="#m7f011c76cc" x="842.347719" y="117.059472" style="stroke: #000000; stroke-width: 0.8"/>
      </g>
     </g>
     <g id="text_37">
      <text style="font-size: 14px; font-family: 'Helvetica'; text-anchor: end" x="835.347719" y="122.080879" transform="rotate(-0 835.347719 122.080879)">0.1</text>
     </g>
    </g>
    <g id="ytick_24">
     <g id="line2d_39">
      <g>
       <use xlink:href="#m7f011c76cc" x="842.347719" y="51.34626" style="stroke: #000000; stroke-width: 0.8"/>
      </g>
     </g>
     <g id="text_38">
      <text style="font-size: 14px; font-family: 'Helvetica'; text-anchor: end" x="835.347719" y="56.367666" transform="rotate(-0 835.347719 56.367666)">0.2</text>
     </g>
    </g>
    <g id="text_39">
     <!-- $\Delta$SE -->
     <g transform="translate(800.148812 210.661029) rotate(-90)">
      <text>
       <tspan x="0" y="-0.390625" style="font-size: 17px; font-family: 'DejaVu Sans'">Δ</tspan>
       <tspan x="11.629395" y="-0.390625" style="font-weight: 700; font-size: 17px; font-family: 'Helvetica'">S</tspan>
       <tspan x="22.968262" y="-0.390625" style="font-weight: 700; font-size: 17px; font-family: 'Helvetica'">E</tspan>
      </text>
     </g>
    </g>
   </g>
   <g id="line2d_40">
    <path d="M 842.347719 182.772685 
L 1039.556582 182.772685 
" clip-path="url(#p6eb8e83e70)" style="fill: none; stroke-dasharray: 5.55,2.4; stroke-dashoffset: 0; stroke: #808080; stroke-opacity: 0.7; stroke-width: 1.5"/>
   </g>
   <g id="PathCollection_9">
    <defs>
     <path id="C5_0_550f1ccd05" d="M 0 3.872983 
C 1.027127 3.872983 2.012324 3.464901 2.738613 2.738613 
C 3.464901 2.012324 3.872983 1.027127 3.872983 -0 
C 3.872983 -1.027127 3.464901 -2.012324 2.738613 -2.738613 
C 2.012324 -3.464901 1.027127 -3.872983 0 -3.872983 
C -1.027127 -3.872983 -2.012324 -3.464901 -2.738613 -2.738613 
C -3.464901 -2.012324 -3.872983 -1.027127 -3.872983 0 
C -3.872983 1.027127 -3.464901 2.012324 -2.738613 2.738613 
C -2.012324 3.464901 -1.027127 3.872983 0 3.872983 
z
"/>
    </defs>
    <g clip-path="url(#p6eb8e83e70)">
     <use xlink:href="#C5_0_550f1ccd05" x="939.302697" y="150.066265" style="fill: #cc79a7; fill-opacity: 0.6"/>
    </g>
    <g clip-path="url(#p6eb8e83e70)">
     <use xlink:href="#C5_0_550f1ccd05" x="946.877808" y="75.987952" style="fill: #cc79a7; fill-opacity: 0.6"/>
    </g>
    <g clip-path="url(#p6eb8e83e70)">
     <use xlink:href="#C5_0_550f1ccd05" x="944.002235" y="197.631808" style="fill: #cc79a7; fill-opacity: 0.6"/>
    </g>
    <g clip-path="url(#p6eb8e83e70)">
     <use xlink:href="#C5_0_550f1ccd05" x="942.249239" y="118.466976" style="fill: #cc79a7; fill-opacity: 0.6"/>
    </g>
    <g clip-path="url(#p6eb8e83e70)">
     <use xlink:href="#C5_0_550f1ccd05" x="936.429739" y="106.806268" style="fill: #cc79a7; fill-opacity: 0.6"/>
    </g>
    <g clip-path="url(#p6eb8e83e70)">
     <use xlink:href="#C5_0_550f1ccd05" x="936.429422" y="94.235574" style="fill: #cc79a7; fill-opacity: 0.6"/>
    </g>
    <g clip-path="url(#p6eb8e83e70)">
     <use xlink:href="#C5_0_550f1ccd05" x="935.142162" y="150.341788" style="fill: #cc79a7; fill-opacity: 0.6"/>
    </g>
    <g clip-path="url(#p6eb8e83e70)">
     <use xlink:href="#C5_0_550f1ccd05" x="945.766363" y="139.129723" style="fill: #cc79a7; fill-opacity: 0.6"/>
    </g>
    <g clip-path="url(#p6eb8e83e70)">
     <use xlink:href="#C5_0_550f1ccd05" x="942.281536" y="98.680031" style="fill: #cc79a7; fill-opacity: 0.6"/>
    </g>
    <g clip-path="url(#p6eb8e83e70)">
     <use xlink:href="#C5_0_550f1ccd05" x="943.687734" y="339.506453" style="fill: #cc79a7; fill-opacity: 0.6"/>
    </g>
    <g clip-path="url(#p6eb8e83e70)">
     <use xlink:href="#C5_0_550f1ccd05" x="934.649151" y="75.887536" style="fill: #cc79a7; fill-opacity: 0.6"/>
    </g>
    <g clip-path="url(#p6eb8e83e70)">
     <use xlink:href="#C5_0_550f1ccd05" x="947.130176" y="47.475605" style="fill: #cc79a7; fill-opacity: 0.6"/>
    </g>
    <g clip-path="url(#p6eb8e83e70)">
     <use xlink:href="#C5_0_550f1ccd05" x="945.32286" y="196.707877" style="fill: #cc79a7; fill-opacity: 0.6"/>
    </g>
    <g clip-path="url(#p6eb8e83e70)">
     <use xlink:href="#C5_0_550f1ccd05" x="937.170199" y="247.128582" style="fill: #cc79a7; fill-opacity: 0.6"/>
    </g>
   </g>
   <g id="patch_12">
    <path d="M 842.347719 354.107995 
L 842.347719 32.874062 
" style="fill: none; stroke: #000000; stroke-width: 1.5; stroke-linejoin: miter; stroke-linecap: square"/>
   </g>
   <g id="patch_13">
    <path d="M 842.347719 354.107995 
L 1039.556582 354.107995 
" style="fill: none; stroke: #000000; stroke-width: 1.5; stroke-linejoin: miter; stroke-linecap: square"/>
   </g>
   <g id="LineCollection_4">
    <path d="M 940.952151 166.504986 
L 940.952151 124.645362 
" clip-path="url(#p6eb8e83e70)" style="fill: none; stroke: #000000; stroke-width: 2"/>
   </g>
   <g id="line2d_41">
    <g clip-path="url(#p6eb8e83e70)">
     <use xlink:href="#m51cd39994e" x="940.952151" y="166.504986" style="stroke: #000000"/>
    </g>
   </g>
   <g id="line2d_42">
    <g clip-path="url(#p6eb8e83e70)">
     <use xlink:href="#m51cd39994e" x="940.952151" y="124.645362" style="stroke: #000000"/>
    </g>
   </g>
   <g id="text_40">
    <text style="font-weight: 700; font-size: 19px; font-family: 'Helvetica'; text-anchor: start" x="842.347719" y="20.874062" transform="rotate(-0 842.347719 20.874062)">D</text>
   </g>
   <g id="PathCollection_10">
    <g clip-path="url(#p6eb8e83e70)">
     <use xlink:href="#m6a220f0530" x="940.952151" y="145.575174" style="stroke: #000000"/>
    </g>
   </g>
  </g>
  <g id="axes_5">
   <g id="patch_14">
    <path d="M 1099.990656 354.107995 
L 1297.19952 354.107995 
L 1297.19952 32.874062 
L 1099.990656 32.874062 
z
" style="fill: #ffffff"/>
   </g>
   <g id="FillBetweenPolyCollection_7">
    <path d="M 1203.419111 339.506453 
L 1198.666465 339.506453 
L 1198.666465 336.556646 
L 1198.666465 333.606839 
L 1198.666465 330.657033 
L 1198.666465 327.707226 
L 1198.666465 324.75742 
L 1198.666465 321.807613 
L 1198.666465 318.857807 
L 1198.666465 315.908 
L 1198.666465 312.958194 
L 1198.666465 310.008387 
L 1198.666465 307.058581 
L 1198.666465 304.108774 
L 1198.666465 301.158967 
L 1198.666465 298.209161 
L 1198.666465 295.259354 
L 1198.666465 292.309548 
L 1198.666465 289.359741 
L 1198.666465 286.409935 
L 1198.666465 283.460128 
L 1198.666465 280.510322 
L 1198.666465 277.560515 
L 1198.666465 274.610709 
L 1198.666465 271.660902 
L 1198.666465 268.711096 
L 1198.666465 265.761289 
L 1198.666465 262.811482 
L 1198.666465 259.861676 
L 1198.666465 256.911869 
L 1198.666465 253.962063 
L 1198.666465 251.012256 
L 1198.666465 248.06245 
L 1198.666465 245.112643 
L 1198.666465 242.162837 
L 1198.666465 239.21303 
L 1198.666465 236.263224 
L 1198.666465 233.313417 
L 1198.666465 230.36361 
L 1198.666465 227.413804 
L 1198.666465 224.463997 
L 1198.666465 221.514191 
L 1198.666465 218.564384 
L 1198.666465 215.614578 
L 1198.666465 212.664771 
L 1198.666465 209.714965 
L 1198.666465 206.765158 
L 1198.666465 203.815352 
L 1198.666465 200.865545 
L 1198.666465 197.915739 
L 1198.666465 194.965932 
L 1198.666465 192.016125 
L 1198.666465 189.066319 
L 1198.666465 186.116512 
L 1198.666465 183.166706 
L 1198.666465 180.216899 
L 1198.666465 177.267093 
L 1198.666465 174.317286 
L 1198.666465 171.36748 
L 1198.666465 168.417673 
L 1198.666465 165.467867 
L 1198.666465 162.51806 
L 1198.666465 159.568253 
L 1198.666465 156.618447 
L 1198.666465 153.66864 
L 1198.666465 150.718834 
L 1198.666465 147.769027 
L 1198.666465 144.819221 
L 1198.666465 141.869414 
L 1198.666465 138.919608 
L 1198.666465 135.969801 
L 1198.666465 133.019995 
L 1198.666465 130.070188 
L 1198.666465 127.120382 
L 1198.666465 124.170575 
L 1198.666465 121.220768 
L 1198.666465 118.270962 
L 1198.666465 115.321155 
L 1198.666465 112.371349 
L 1198.666465 109.421542 
L 1198.666465 106.471736 
L 1198.666465 103.521929 
L 1198.666465 100.572123 
L 1198.666465 97.622316 
L 1198.666465 94.67251 
L 1198.666465 91.722703 
L 1198.666465 88.772896 
L 1198.666465 85.82309 
L 1198.666465 82.873283 
L 1198.666465 79.923477 
L 1198.666465 76.97367 
L 1198.666465 74.023864 
L 1198.666465 71.074057 
L 1198.666465 68.124251 
L 1198.666465 65.174444 
L 1198.666465 62.224638 
L 1198.666465 59.274831 
L 1198.666465 56.325025 
L 1198.666465 53.375218 
L 1198.666465 50.425411 
L 1198.666465 47.475605 
L 1203.436591 47.475605 
L 1203.436591 47.475605 
L 1203.855378 50.425411 
L 1204.28795 53.375218 
L 1204.733321 56.325025 
L 1205.190647 59.274831 
L 1205.659296 62.224638 
L 1206.138916 65.174444 
L 1206.629491 68.124251 
L 1207.131398 71.074057 
L 1207.64543 74.023864 
L 1208.172812 76.97367 
L 1208.715172 79.923477 
L 1209.274484 82.873283 
L 1209.852969 85.82309 
L 1210.452957 88.772896 
L 1211.076713 91.722703 
L 1211.726235 94.67251 
L 1212.40303 97.622316 
L 1213.107886 100.572123 
L 1213.840655 103.521929 
L 1214.600066 106.471736 
L 1215.383584 109.421542 
L 1216.187333 112.371349 
L 1217.00609 115.321155 
L 1217.833379 118.270962 
L 1218.661635 121.220768 
L 1219.482469 124.170575 
L 1220.286995 127.120382 
L 1221.066226 130.070188 
L 1221.811497 133.019995 
L 1222.514905 135.969801 
L 1223.169722 138.919608 
L 1223.770775 141.869414 
L 1224.314739 144.819221 
L 1224.800348 147.769027 
L 1225.228492 150.718834 
L 1225.602194 153.66864 
L 1225.926472 156.618447 
L 1226.20808 159.568253 
L 1226.455161 162.51806 
L 1226.676807 165.467867 
L 1226.882573 168.417673 
L 1227.081961 171.36748 
L 1227.283899 174.317286 
L 1227.496255 177.267093 
L 1227.725399 180.216899 
L 1227.975845 183.166706 
L 1228.249983 186.116512 
L 1228.547915 189.066319 
L 1228.867402 192.016125 
L 1229.203924 194.965932 
L 1229.550835 197.915739 
L 1229.899623 200.865545 
L 1230.240243 203.815352 
L 1230.561516 206.765158 
L 1230.851562 209.714965 
L 1231.098269 212.664771 
L 1231.289747 215.614578 
L 1231.414781 218.564384 
L 1231.463232 221.514191 
L 1231.426404 224.463997 
L 1231.297336 227.413804 
L 1231.071032 230.36361 
L 1230.744607 233.313417 
L 1230.317366 236.263224 
L 1229.79079 239.21303 
L 1229.168466 242.162837 
L 1228.455931 245.112643 
L 1227.660472 248.06245 
L 1226.790866 251.012256 
L 1225.857087 253.962063 
L 1224.869985 256.911869 
L 1223.84095 259.861676 
L 1222.781576 262.811482 
L 1221.703337 265.761289 
L 1220.617283 268.711096 
L 1219.533769 271.660902 
L 1218.462228 274.610709 
L 1217.410989 277.560515 
L 1216.387142 280.510322 
L 1215.396468 283.460128 
L 1214.443407 286.409935 
L 1213.531087 289.359741 
L 1212.661391 292.309548 
L 1211.835063 295.259354 
L 1211.051843 298.209161 
L 1210.310623 301.158967 
L 1209.609614 304.108774 
L 1208.94652 307.058581 
L 1208.318706 310.008387 
L 1207.723351 312.958194 
L 1207.157597 315.908 
L 1206.61867 318.857807 
L 1206.103983 321.807613 
L 1205.611214 324.75742 
L 1205.138368 327.707226 
L 1204.683809 330.657033 
L 1204.246278 333.606839 
L 1203.824889 336.556646 
L 1203.419111 339.506453 
z
" clip-path="url(#pf715825359)" style="fill: #0072b2; fill-opacity: 0.25"/>
   </g>
   <g id="matplotlib.axis_9">
    <g id="xtick_7">
     <g id="line2d_43">
      <g>
       <use xlink:href="#mec3b44d115" x="1198.595088" y="354.107995" style="stroke: #000000; stroke-width: 0.8"/>
      </g>
     </g>
     <g id="text_41">
      <text style="font-size: 14px; font-family: 'Helvetica'" transform="translate(1133.798253 431.136094) rotate(-45)">Schizophrenia</text>
     </g>
    </g>
   </g>
   <g id="matplotlib.axis_10">
    <g id="ytick_25">
     <g id="line2d_44">
      <g>
       <use xlink:href="#m7f011c76cc" x="1099.990656" y="306.571785" style="stroke: #000000; stroke-width: 0.8"/>
      </g>
     </g>
     <g id="text_42">
      <text style="font-size: 14px; font-family: 'Helvetica'; text-anchor: end" x="1092.990656" y="311.593191" transform="rotate(-0 1092.990656 311.593191)">−0.2</text>
     </g>
    </g>
    <g id="ytick_26">
     <g id="line2d_45">
      <g>
       <use xlink:href="#m7f011c76cc" x="1099.990656" y="246.276972" style="stroke: #000000; stroke-width: 0.8"/>
      </g>
     </g>
     <g id="text_43">
      <text style="font-size: 14px; font-family: 'Helvetica'; text-anchor: end" x="1092.990656" y="251.298378" transform="rotate(-0 1092.990656 251.298378)">0.0</text>
     </g>
    </g>
    <g id="ytick_27">
     <g id="line2d_46">
      <g>
       <use xlink:href="#m7f011c76cc" x="1099.990656" y="185.98216" style="stroke: #000000; stroke-width: 0.8"/>
      </g>
     </g>
     <g id="text_44">
      <text style="font-size: 14px; font-family: 'Helvetica'; text-anchor: end" x="1092.990656" y="191.003566" transform="rotate(-0 1092.990656 191.003566)">0.2</text>
     </g>
    </g>
    <g id="ytick_28">
     <g id="line2d_47">
      <g>
       <use xlink:href="#m7f011c76cc" x="1099.990656" y="125.687347" style="stroke: #000000; stroke-width: 0.8"/>
      </g>
     </g>
     <g id="text_45">
      <text style="font-size: 14px; font-family: 'Helvetica'; text-anchor: end" x="1092.990656" y="130.708753" transform="rotate(-0 1092.990656 130.708753)">0.4</text>
     </g>
    </g>
    <g id="ytick_29">
     <g id="line2d_48">
      <g>
       <use xlink:href="#m7f011c76cc" x="1099.990656" y="65.392534" style="stroke: #000000; stroke-width: 0.8"/>
      </g>
     </g>
     <g id="text_46">
      <text style="font-size: 14px; font-family: 'Helvetica'; text-anchor: end" x="1092.990656" y="70.41394" transform="rotate(-0 1092.990656 70.41394)">0.6</text>
     </g>
    </g>
    <g id="text_47">
     <!-- $\Delta$SE -->
     <g transform="translate(1057.79175 210.661029) rotate(-90)">
      <text>
       <tspan x="0" y="-0.390625" style="font-size: 17px; font-family: 'DejaVu Sans'">Δ</tspan>
       <tspan x="11.629395" y="-0.390625" style="font-weight: 700; font-size: 17px; font-family: 'Helvetica'">S</tspan>
       <tspan x="22.968262" y="-0.390625" style="font-weight: 700; font-size: 17px; font-family: 'Helvetica'">E</tspan>
      </text>
     </g>
    </g>
   </g>
   <g id="line2d_49">
    <path d="M 1099.990656 246.276972 
L 1297.19952 246.276972 
" clip-path="url(#pf715825359)" style="fill: none; stroke-dasharray: 5.55,2.4; stroke-dashoffset: 0; stroke: #808080; stroke-opacity: 0.7; stroke-width: 1.5"/>
   </g>
   <g id="PathCollection_11">
    <defs>
     <path id="C6_0_86da44bc72" d="M 0 3.872983 
C 1.027127 3.872983 2.012324 3.464901 2.738613 2.738613 
C 3.464901 2.012324 3.872983 1.027127 3.872983 -0 
C 3.872983 -1.027127 3.464901 -2.012324 2.738613 -2.738613 
C 2.012324 -3.464901 1.027127 -3.872983 0 -3.872983 
C -1.027127 -3.872983 -2.012324 -3.464901 -2.738613 -2.738613 
C -3.464901 -2.012324 -3.872983 -1.027127 -3.872983 0 
C -3.872983 1.027127 -3.464901 2.012324 -2.738613 2.738613 
C -2.012324 3.464901 -1.027127 3.872983 0 3.872983 
z
"/>
    </defs>
    <g clip-path="url(#pf715825359)">
     <use xlink:href="#C6_0_86da44bc72" x="1196.945635" y="210.503683" style="fill: #0072b2; fill-opacity: 0.6"/>
    </g>
    <g clip-path="url(#pf715825359)">
     <use xlink:href="#C6_0_86da44bc72" x="1204.520745" y="225.660086" style="fill: #0072b2; fill-opacity: 0.6"/>
    </g>
    <g clip-path="url(#pf715825359)">
     <use xlink:href="#C6_0_86da44bc72" x="1201.645172" y="207.733713" style="fill: #0072b2; fill-opacity: 0.6"/>
    </g>
    <g clip-path="url(#pf715825359)">
     <use xlink:href="#C6_0_86da44bc72" x="1199.892177" y="198.683802" style="fill: #0072b2; fill-opacity: 0.6"/>
    </g>
    <g clip-path="url(#pf715825359)">
     <use xlink:href="#C6_0_86da44bc72" x="1194.072677" y="270.820592" style="fill: #0072b2; fill-opacity: 0.6"/>
    </g>
    <g clip-path="url(#pf715825359)">
     <use xlink:href="#C6_0_86da44bc72" x="1194.072359" y="161.218045" style="fill: #0072b2; fill-opacity: 0.6"/>
    </g>
    <g clip-path="url(#pf715825359)">
     <use xlink:href="#C6_0_86da44bc72" x="1192.7851" y="129.49819" style="fill: #0072b2; fill-opacity: 0.6"/>
    </g>
    <g clip-path="url(#pf715825359)">
     <use xlink:href="#C6_0_86da44bc72" x="1203.4093" y="82.285685" style="fill: #0072b2; fill-opacity: 0.6"/>
    </g>
    <g clip-path="url(#pf715825359)">
     <use xlink:href="#C6_0_86da44bc72" x="1199.924473" y="216.830897" style="fill: #0072b2; fill-opacity: 0.6"/>
    </g>
    <g clip-path="url(#pf715825359)">
     <use xlink:href="#C6_0_86da44bc72" x="1201.330672" y="134.751529" style="fill: #0072b2; fill-opacity: 0.6"/>
    </g>
    <g clip-path="url(#pf715825359)">
     <use xlink:href="#C6_0_86da44bc72" x="1192.292089" y="244.569453" style="fill: #0072b2; fill-opacity: 0.6"/>
    </g>
    <g clip-path="url(#pf715825359)">
     <use xlink:href="#C6_0_86da44bc72" x="1204.773114" y="105.116243" style="fill: #0072b2; fill-opacity: 0.6"/>
    </g>
    <g clip-path="url(#pf715825359)">
     <use xlink:href="#C6_0_86da44bc72" x="1202.965797" y="239.402815" style="fill: #0072b2; fill-opacity: 0.6"/>
    </g>
    <g clip-path="url(#pf715825359)">
     <use xlink:href="#C6_0_86da44bc72" x="1194.813136" y="156.028811" style="fill: #0072b2; fill-opacity: 0.6"/>
    </g>
    <g clip-path="url(#pf715825359)">
     <use xlink:href="#C6_0_86da44bc72" x="1194.411959" y="223.951228" style="fill: #0072b2; fill-opacity: 0.6"/>
    </g>
    <g clip-path="url(#pf715825359)">
     <use xlink:href="#C6_0_86da44bc72" x="1194.432726" y="177.242168" style="fill: #0072b2; fill-opacity: 0.6"/>
    </g>
    <g clip-path="url(#pf715825359)">
     <use xlink:href="#C6_0_86da44bc72" x="1196.02141" y="243.503529" style="fill: #0072b2; fill-opacity: 0.6"/>
    </g>
    <g clip-path="url(#pf715825359)">
     <use xlink:href="#C6_0_86da44bc72" x="1198.920567" y="213.264424" style="fill: #0072b2; fill-opacity: 0.6"/>
    </g>
    <g clip-path="url(#pf715825359)">
     <use xlink:href="#C6_0_86da44bc72" x="1197.700352" y="137.284996" style="fill: #0072b2; fill-opacity: 0.6"/>
    </g>
    <g clip-path="url(#pf715825359)">
     <use xlink:href="#C6_0_86da44bc72" x="1195.850324" y="209.782072" style="fill: #0072b2; fill-opacity: 0.6"/>
    </g>
    <g clip-path="url(#pf715825359)">
     <use xlink:href="#C6_0_86da44bc72" x="1200.065647" y="166.171426" style="fill: #0072b2; fill-opacity: 0.6"/>
    </g>
    <g clip-path="url(#pf715825359)">
     <use xlink:href="#C6_0_86da44bc72" x="1193.855421" y="136.384279" style="fill: #0072b2; fill-opacity: 0.6"/>
    </g>
    <g clip-path="url(#pf715825359)">
     <use xlink:href="#C6_0_86da44bc72" x="1195.86236" y="339.506453" style="fill: #0072b2; fill-opacity: 0.6"/>
    </g>
    <g clip-path="url(#pf715825359)">
     <use xlink:href="#C6_0_86da44bc72" x="1196.838113" y="188.516413" style="fill: #0072b2; fill-opacity: 0.6"/>
    </g>
    <g clip-path="url(#pf715825359)">
     <use xlink:href="#C6_0_86da44bc72" x="1198.017529" y="223.824938" style="fill: #0072b2; fill-opacity: 0.6"/>
    </g>
    <g clip-path="url(#pf715825359)">
     <use xlink:href="#C6_0_86da44bc72" x="1202.34437" y="143.517314" style="fill: #0072b2; fill-opacity: 0.6"/>
    </g>
    <g clip-path="url(#pf715825359)">
     <use xlink:href="#C6_0_86da44bc72" x="1194.646622" y="103.146689" style="fill: #0072b2; fill-opacity: 0.6"/>
    </g>
    <g clip-path="url(#pf715825359)">
     <use xlink:href="#C6_0_86da44bc72" x="1198.782232" y="299.120218" style="fill: #0072b2; fill-opacity: 0.6"/>
    </g>
    <g clip-path="url(#pf715825359)">
     <use xlink:href="#C6_0_86da44bc72" x="1199.810086" y="179.215339" style="fill: #0072b2; fill-opacity: 0.6"/>
    </g>
    <g clip-path="url(#pf715825359)">
     <use xlink:href="#C6_0_86da44bc72" x="1192.632155" y="236.431326" style="fill: #0072b2; fill-opacity: 0.6"/>
    </g>
    <g clip-path="url(#pf715825359)">
     <use xlink:href="#C6_0_86da44bc72" x="1200.009008" y="171.34409" style="fill: #0072b2; fill-opacity: 0.6"/>
    </g>
    <g clip-path="url(#pf715825359)">
     <use xlink:href="#C6_0_86da44bc72" x="1194.263384" y="282.345791" style="fill: #0072b2; fill-opacity: 0.6"/>
    </g>
    <g clip-path="url(#pf715825359)">
     <use xlink:href="#C6_0_86da44bc72" x="1192.876709" y="146.278223" style="fill: #0072b2; fill-opacity: 0.6"/>
    </g>
    <g clip-path="url(#pf715825359)">
     <use xlink:href="#C6_0_86da44bc72" x="1204.496702" y="149.543824" style="fill: #0072b2; fill-opacity: 0.6"/>
    </g>
    <g clip-path="url(#pf715825359)">
     <use xlink:href="#C6_0_86da44bc72" x="1204.716872" y="259.472146" style="fill: #0072b2; fill-opacity: 0.6"/>
    </g>
    <g clip-path="url(#pf715825359)">
     <use xlink:href="#C6_0_86da44bc72" x="1202.649667" y="247.206089" style="fill: #0072b2; fill-opacity: 0.6"/>
    </g>
    <g clip-path="url(#pf715825359)">
     <use xlink:href="#C6_0_86da44bc72" x="1196.026295" y="231.88104" style="fill: #0072b2; fill-opacity: 0.6"/>
    </g>
    <g clip-path="url(#pf715825359)">
     <use xlink:href="#C6_0_86da44bc72" x="1193.30558" y="229.513789" style="fill: #0072b2; fill-opacity: 0.6"/>
    </g>
    <g clip-path="url(#pf715825359)">
     <use xlink:href="#C6_0_86da44bc72" x="1201.017247" y="146.68609" style="fill: #0072b2; fill-opacity: 0.6"/>
    </g>
    <g clip-path="url(#pf715825359)">
     <use xlink:href="#C6_0_86da44bc72" x="1197.808258" y="72.674828" style="fill: #0072b2; fill-opacity: 0.6"/>
    </g>
    <g clip-path="url(#pf715825359)">
     <use xlink:href="#C6_0_86da44bc72" x="1193.625927" y="263.653371" style="fill: #0072b2; fill-opacity: 0.6"/>
    </g>
    <g clip-path="url(#pf715825359)">
     <use xlink:href="#C6_0_86da44bc72" x="1198.531678" y="47.475605" style="fill: #0072b2; fill-opacity: 0.6"/>
    </g>
    <g clip-path="url(#pf715825359)">
     <use xlink:href="#C6_0_86da44bc72" x="1192.473574" y="143.740569" style="fill: #0072b2; fill-opacity: 0.6"/>
    </g>
    <g clip-path="url(#pf715825359)">
     <use xlink:href="#C6_0_86da44bc72" x="1203.976529" y="319.065148" style="fill: #0072b2; fill-opacity: 0.6"/>
    </g>
    <g clip-path="url(#pf715825359)">
     <use xlink:href="#C6_0_86da44bc72" x="1195.423706" y="256.696776" style="fill: #0072b2; fill-opacity: 0.6"/>
    </g>
    <g clip-path="url(#pf715825359)">
     <use xlink:href="#C6_0_86da44bc72" x="1200.73181" y="252.658257" style="fill: #0072b2; fill-opacity: 0.6"/>
    </g>
    <g clip-path="url(#pf715825359)">
     <use xlink:href="#C6_0_86da44bc72" x="1196.119605" y="186.913613" style="fill: #0072b2; fill-opacity: 0.6"/>
    </g>
    <g clip-path="url(#pf715825359)">
     <use xlink:href="#C6_0_86da44bc72" x="1198.858928" y="298.359849" style="fill: #0072b2; fill-opacity: 0.6"/>
    </g>
    <g clip-path="url(#pf715825359)">
     <use xlink:href="#C6_0_86da44bc72" x="1199.2092" y="91.782803" style="fill: #0072b2; fill-opacity: 0.6"/>
    </g>
    <g clip-path="url(#pf715825359)">
     <use xlink:href="#C6_0_86da44bc72" x="1194.451788" y="208.462062" style="fill: #0072b2; fill-opacity: 0.6"/>
    </g>
   </g>
   <g id="patch_15">
    <path d="M 1099.990656 354.107995 
L 1099.990656 32.874062 
" style="fill: none; stroke: #000000; stroke-width: 1.5; stroke-linejoin: miter; stroke-linecap: square"/>
   </g>
   <g id="patch_16">
    <path d="M 1099.990656 354.107995 
L 1297.19952 354.107995 
" style="fill: none; stroke: #000000; stroke-width: 1.5; stroke-linejoin: miter; stroke-linecap: square"/>
   </g>
   <g id="LineCollection_5">
    <path d="M 1198.595088 205.52243 
L 1198.595088 186.866383 
" clip-path="url(#pf715825359)" style="fill: none; stroke: #000000; stroke-width: 2"/>
   </g>
   <g id="line2d_50">
    <g clip-path="url(#pf715825359)">
     <use xlink:href="#m51cd39994e" x="1198.595088" y="205.52243" style="stroke: #000000"/>
    </g>
   </g>
   <g id="line2d_51">
    <g clip-path="url(#pf715825359)">
     <use xlink:href="#m51cd39994e" x="1198.595088" y="186.866383" style="stroke: #000000"/>
    </g>
   </g>
   <g id="text_48">
    <text style="font-weight: 700; font-size: 18px; font-family: 'Helvetica'; text-anchor: middle" x="1198.595088" y="20.341575" transform="rotate(-0 1198.595088 20.341575)">***</text>
   </g>
   <g id="text_49">
    <text style="font-weight: 700; font-size: 19px; font-family: 'Helvetica'; text-anchor: start" x="1099.990656" y="20.874062" transform="rotate(-0 1099.990656 20.874062)">E</text>
   </g>
   <g id="PathCollection_12">
    <g clip-path="url(#pf715825359)">
     <use xlink:href="#m6a220f0530" x="1198.595088" y="196.194406" style="stroke: #000000"/>
    </g>
   </g>
  </g>
 </g>
 <defs>
  <clipPath id="p2e880aee8e">
   <rect x="61.633594" y="32.874062" width="197.208864" height="321.233932"/>
  </clipPath>
  <clipPath id="pcc2ea1c202">
   <rect x="327.061844" y="32.874062" width="197.208864" height="321.233932"/>
  </clipPath>
  <clipPath id="p87420af8be">
   <rect x="584.704781" y="32.874062" width="197.208864" height="321.233932"/>
  </clipPath>
  <clipPath id="p6eb8e83e70">
   <rect x="842.347719" y="32.874062" width="197.208864" height="321.233932"/>
  </clipPath>
  <clipPath id="pf715825359">
   <rect x="1099.990656" y="32.874062" width="197.208864" height="321.233932"/>
  </clipPath>
 </defs>
</svg>
