<?xml version="1.0" encoding="utf-8" standalone="no"?>
<!DOCTYPE svg PUBLIC "-//W3C//DTD SVG 1.1//EN"
  "http://www.w3.org/Graphics/SVG/1.1/DTD/svg11.dtd">
<svg xmlns:xlink="http://www.w3.org/1999/xlink" width="560.085625pt" height="560.122187pt" viewBox="0 0 560.085625 560.122187" xmlns="http://www.w3.org/2000/svg" version="1.1">
 <metadata>
  <rdf:RDF xmlns:dc="http://purl.org/dc/elements/1.1/" xmlns:cc="http://creativecommons.org/ns#" xmlns:rdf="http://www.w3.org/1999/02/22-rdf-syntax-ns#">
   <cc:Work>
    <dc:type rdf:resource="http://purl.org/dc/dcmitype/StillImage"/>
    <dc:date>2026-05-20T21:30:07.695791</dc:date>
    <dc:format>image/svg+xml</dc:format>
    <dc:creator>
     <cc:Agent>
      <dc:title>Matplotlib v3.10.0, https://matplotlib.org/</dc:title>
     </cc:Agent>
    </dc:creator>
   </cc:Work>
  </rdf:RDF>
 </metadata>
 <defs>
  <style type="text/css">*{stroke-linejoin: round; stroke-linecap: butt}</style>
 </defs>
 <g id="figure_1">
  <g id="patch_1">
   <path d="M 0 560.122187 
L 560.085625 560.122187 
L 560.085625 0 
L 0 0 
z
" style="fill: #ffffff"/>
  </g>
  <g id="axes_1">
   <g id="patch_2">
    <path d="M 60.88875 516.759062 
L 543.34375 516.759062 
L 543.34375 11.759062 
L 60.88875 11.759062 
z
" style="fill: #ffffff"/>
   </g>
   <g id="matplotlib.axis_1">
    <g id="xtick_1">
     <g id="line2d_1">
      <defs>
       <path id="ma7aceec848" d="M 0 0 
L 0 3.5 
" style="stroke: #000000; stroke-width: 0.8"/>
      </defs>
      <g>
       <use xlink:href="#ma7aceec848" x="104.748295" y="516.759062" style="stroke: #000000; stroke-width: 0.8"/>
      </g>
     </g>
     <g id="text_1">
      <text style="font-size: 12px; font-family: 'Arial'; text-anchor: middle" x="104.748295" y="532.877187" transform="rotate(-0 104.748295 532.877187)">−1.5</text>
     </g>
    </g>
    <g id="xtick_2">
     <g id="line2d_2">
      <g>
       <use xlink:href="#ma7aceec848" x="177.847538" y="516.759062" style="stroke: #000000; stroke-width: 0.8"/>
      </g>
     </g>
     <g id="text_2">
      <text style="font-size: 12px; font-family: 'Arial'; text-anchor: middle" x="177.847538" y="532.877187" transform="rotate(-0 177.847538 532.877187)">−1.0</text>
     </g>
    </g>
    <g id="xtick_3">
     <g id="line2d_3">
      <g>
       <use xlink:href="#ma7aceec848" x="250.94678" y="516.759062" style="stroke: #000000; stroke-width: 0.8"/>
      </g>
     </g>
     <g id="text_3">
      <text style="font-size: 12px; font-family: 'Arial'; text-anchor: middle" x="250.94678" y="532.877187" transform="rotate(-0 250.94678 532.877187)">−0.5</text>
     </g>
    </g>
    <g id="xtick_4">
     <g id="line2d_4">
      <g>
       <use xlink:href="#ma7aceec848" x="324.046023" y="516.759062" style="stroke: #000000; stroke-width: 0.8"/>
      </g>
     </g>
     <g id="text_4">
      <text style="font-size: 12px; font-family: 'Arial'; text-anchor: middle" x="324.046023" y="532.877187" transform="rotate(-0 324.046023 532.877187)">0.0</text>
     </g>
    </g>
    <g id="xtick_5">
     <g id="line2d_5">
      <g>
       <use xlink:href="#ma7aceec848" x="397.145265" y="516.759062" style="stroke: #000000; stroke-width: 0.8"/>
      </g>
     </g>
     <g id="text_5">
      <text style="font-size: 12px; font-family: 'Arial'; text-anchor: middle" x="397.145265" y="532.877187" transform="rotate(-0 397.145265 532.877187)">0.5</text>
     </g>
    </g>
    <g id="xtick_6">
     <g id="line2d_6">
      <g>
       <use xlink:href="#ma7aceec848" x="470.244508" y="516.759062" style="stroke: #000000; stroke-width: 0.8"/>
      </g>
     </g>
     <g id="text_6">
      <text style="font-size: 12px; font-family: 'Arial'; text-anchor: middle" x="470.244508" y="532.877187" transform="rotate(-0 470.244508 532.877187)">1.0</text>
     </g>
    </g>
    <g id="xtick_7">
     <g id="line2d_7">
      <g>
       <use xlink:href="#ma7aceec848" x="543.34375" y="516.759062" style="stroke: #000000; stroke-width: 0.8"/>
      </g>
     </g>
     <g id="text_7">
      <text style="font-size: 12px; font-family: 'Arial'; text-anchor: middle" x="543.34375" y="532.877187" transform="rotate(-0 543.34375 532.877187)">1.5</text>
     </g>
    </g>
    <g id="text_8">
     <text style="font-size: 14px; font-family: 'Arial'; text-anchor: middle" x="302.11625" y="550.010625" transform="rotate(-0 302.11625 550.010625)">SE dFC (Z-Score)</text>
    </g>
   </g>
   <g id="matplotlib.axis_2">
    <g id="ytick_1">
     <g id="line2d_8">
      <defs>
       <path id="m24b1592911" d="M 0 0 
L -3.5 0 
" style="stroke: #000000; stroke-width: 0.8"/>
      </defs>
      <g>
       <use xlink:href="#m24b1592911" x="60.88875" y="516.759062" style="stroke: #000000; stroke-width: 0.8"/>
      </g>
     </g>
     <g id="text_9">
      <text style="font-size: 12px; font-family: 'Arial'; text-anchor: end" x="53.88875" y="521.318125" transform="rotate(-0 53.88875 521.318125)">−1.5</text>
     </g>
    </g>
    <g id="ytick_2">
     <g id="line2d_9">
      <g>
       <use xlink:href="#m24b1592911" x="60.88875" y="432.592396" style="stroke: #000000; stroke-width: 0.8"/>
      </g>
     </g>
     <g id="text_10">
      <text style="font-size: 12px; font-family: 'Arial'; text-anchor: end" x="53.88875" y="437.151458" transform="rotate(-0 53.88875 437.151458)">−1.0</text>
     </g>
    </g>
    <g id="ytick_3">
     <g id="line2d_10">
      <g>
       <use xlink:href="#m24b1592911" x="60.88875" y="348.425729" style="stroke: #000000; stroke-width: 0.8"/>
      </g>
     </g>
     <g id="text_11">
      <text style="font-size: 12px; font-family: 'Arial'; text-anchor: end" x="53.88875" y="352.984792" transform="rotate(-0 53.88875 352.984792)">−0.5</text>
     </g>
    </g>
    <g id="ytick_4">
     <g id="line2d_11">
      <g>
       <use xlink:href="#m24b1592911" x="60.88875" y="264.259062" style="stroke: #000000; stroke-width: 0.8"/>
      </g>
     </g>
     <g id="text_12">
      <text style="font-size: 12px; font-family: 'Arial'; text-anchor: end" x="53.88875" y="268.818125" transform="rotate(-0 53.88875 268.818125)">0.0</text>
     </g>
    </g>
    <g id="ytick_5">
     <g id="line2d_12">
      <g>
       <use xlink:href="#m24b1592911" x="60.88875" y="180.092396" style="stroke: #000000; stroke-width: 0.8"/>
      </g>
     </g>
     <g id="text_13">
      <text style="font-size: 12px; font-family: 'Arial'; text-anchor: end" x="53.88875" y="184.651458" transform="rotate(-0 53.88875 184.651458)">0.5</text>
     </g>
    </g>
    <g id="ytick_6">
     <g id="line2d_13">
      <g>
       <use xlink:href="#m24b1592911" x="60.88875" y="95.925729" style="stroke: #000000; stroke-width: 0.8"/>
      </g>
     </g>
     <g id="text_14">
      <text style="font-size: 12px; font-family: 'Arial'; text-anchor: end" x="53.88875" y="100.484792" transform="rotate(-0 53.88875 100.484792)">1.0</text>
     </g>
    </g>
    <g id="ytick_7">
     <g id="line2d_14">
      <g>
       <use xlink:href="#m24b1592911" x="60.88875" y="11.759062" style="stroke: #000000; stroke-width: 0.8"/>
      </g>
     </g>
     <g id="text_15">
      <text style="font-size: 12px; font-family: 'Arial'; text-anchor: end" x="53.88875" y="16.318125" transform="rotate(-0 53.88875 16.318125)">1.5</text>
     </g>
    </g>
    <g id="text_16">
     <text style="font-size: 14px; font-family: 'Arial'; text-anchor: middle" x="17.837813" y="264.259062" transform="rotate(-90 17.837813 264.259062)">SE dSW (Z-Score)</text>
    </g>
   </g>
   <g id="line2d_15">
    <path d="M 60.88875 264.259062 
L 543.34375 264.259062 
" clip-path="url(#p255158e2e9)" style="fill: none; stroke-dasharray: 1,1.65; stroke-dashoffset: 0; stroke: #808080; stroke-opacity: 0.4"/>
   </g>
   <g id="line2d_16">
    <path d="M 324.046023 516.759062 
L 324.046023 11.759062 
" clip-path="url(#p255158e2e9)" style="fill: none; stroke-dasharray: 1,1.65; stroke-dashoffset: 0; stroke: #808080; stroke-opacity: 0.4"/>
   </g>
   <g id="LineCollection_1">
    <path d="M 175.569144 361.630579 
L 237.903274 361.630579 
" clip-path="url(#p255158e2e9)" style="fill: none; stroke: #e69f00; stroke-width: 2"/>
   </g>
   <g id="LineCollection_2">
    <path d="M 206.736209 387.497755 
L 206.736209 335.763403 
" clip-path="url(#p255158e2e9)" style="fill: none; stroke: #e69f00; stroke-width: 2"/>
   </g>
   <g id="line2d_17">
    <defs>
     <path id="mcf2afd76f2" d="M 0 5 
L 0 -5 
" style="stroke: #e69f00"/>
    </defs>
    <g clip-path="url(#p255158e2e9)">
     <use xlink:href="#mcf2afd76f2" x="175.569144" y="361.630579" style="fill: #e69f00; stroke: #e69f00"/>
    </g>
   </g>
   <g id="line2d_18">
    <g clip-path="url(#p255158e2e9)">
     <use xlink:href="#mcf2afd76f2" x="237.903274" y="361.630579" style="fill: #e69f00; stroke: #e69f00"/>
    </g>
   </g>
   <g id="line2d_19">
    <defs>
     <path id="m4d2e8bf220" d="M 5 0 
L -5 -0 
" style="stroke: #e69f00"/>
    </defs>
    <g clip-path="url(#p255158e2e9)">
     <use xlink:href="#m4d2e8bf220" x="206.736209" y="387.497755" style="fill: #e69f00; stroke: #e69f00"/>
    </g>
   </g>
   <g id="line2d_20">
    <g clip-path="url(#p255158e2e9)">
     <use xlink:href="#m4d2e8bf220" x="206.736209" y="335.763403" style="fill: #e69f00; stroke: #e69f00"/>
    </g>
   </g>
   <g id="LineCollection_3">
    <path d="M 161.349263 399.047389 
L 242.134036 399.047389 
" clip-path="url(#p255158e2e9)" style="fill: none; stroke: #e69f00; stroke-width: 2"/>
   </g>
   <g id="LineCollection_4">
    <path d="M 201.741649 430.953463 
L 201.741649 367.141316 
" clip-path="url(#p255158e2e9)" style="fill: none; stroke: #e69f00; stroke-width: 2"/>
   </g>
   <g id="line2d_21">
    <g clip-path="url(#p255158e2e9)">
     <use xlink:href="#mcf2afd76f2" x="161.349263" y="399.047389" style="fill: #e69f00; stroke: #e69f00"/>
    </g>
   </g>
   <g id="line2d_22">
    <g clip-path="url(#p255158e2e9)">
     <use xlink:href="#mcf2afd76f2" x="242.134036" y="399.047389" style="fill: #e69f00; stroke: #e69f00"/>
    </g>
   </g>
   <g id="line2d_23">
    <g clip-path="url(#p255158e2e9)">
     <use xlink:href="#m4d2e8bf220" x="201.741649" y="430.953463" style="fill: #e69f00; stroke: #e69f00"/>
    </g>
   </g>
   <g id="line2d_24">
    <g clip-path="url(#p255158e2e9)">
     <use xlink:href="#m4d2e8bf220" x="201.741649" y="367.141316" style="fill: #e69f00; stroke: #e69f00"/>
    </g>
   </g>
   <g id="LineCollection_5">
    <path d="M 139.451435 133.007345 
L 219.570179 133.007345 
" clip-path="url(#p255158e2e9)" style="fill: none; stroke: #009e73; stroke-width: 2"/>
   </g>
   <g id="LineCollection_6">
    <path d="M 179.510807 182.774411 
L 179.510807 83.240279 
" clip-path="url(#p255158e2e9)" style="fill: none; stroke: #009e73; stroke-width: 2"/>
   </g>
   <g id="line2d_25">
    <defs>
     <path id="med72239f66" d="M 0 5 
L 0 -5 
" style="stroke: #009e73"/>
    </defs>
    <g clip-path="url(#p255158e2e9)">
     <use xlink:href="#med72239f66" x="139.451435" y="133.007345" style="fill: #009e73; stroke: #009e73"/>
    </g>
   </g>
   <g id="line2d_26">
    <g clip-path="url(#p255158e2e9)">
     <use xlink:href="#med72239f66" x="219.570179" y="133.007345" style="fill: #009e73; stroke: #009e73"/>
    </g>
   </g>
   <g id="line2d_27">
    <defs>
     <path id="m9babcb1597" d="M 5 0 
L -5 -0 
" style="stroke: #009e73"/>
    </defs>
    <g clip-path="url(#p255158e2e9)">
     <use xlink:href="#m9babcb1597" x="179.510807" y="182.774411" style="fill: #009e73; stroke: #009e73"/>
    </g>
   </g>
   <g id="line2d_28">
    <g clip-path="url(#p255158e2e9)">
     <use xlink:href="#m9babcb1597" x="179.510807" y="83.240279" style="fill: #009e73; stroke: #009e73"/>
    </g>
   </g>
   <g id="LineCollection_7">
    <path d="M 71.951049 136.759862 
L 174.078723 136.759862 
" clip-path="url(#p255158e2e9)" style="fill: none; stroke: #cc79a7; stroke-width: 2"/>
   </g>
   <g id="LineCollection_8">
    <path d="M 123.014886 194.013651 
L 123.014886 79.506073 
" clip-path="url(#p255158e2e9)" style="fill: none; stroke: #cc79a7; stroke-width: 2"/>
   </g>
   <g id="line2d_29">
    <defs>
     <path id="m6ef70d44e9" d="M 0 5 
L 0 -5 
" style="stroke: #cc79a7"/>
    </defs>
    <g clip-path="url(#p255158e2e9)">
     <use xlink:href="#m6ef70d44e9" x="71.951049" y="136.759862" style="fill: #cc79a7; stroke: #cc79a7"/>
    </g>
   </g>
   <g id="line2d_30">
    <g clip-path="url(#p255158e2e9)">
     <use xlink:href="#m6ef70d44e9" x="174.078723" y="136.759862" style="fill: #cc79a7; stroke: #cc79a7"/>
    </g>
   </g>
   <g id="line2d_31">
    <defs>
     <path id="mb0812c9ec8" d="M 5 0 
L -5 -0 
" style="stroke: #cc79a7"/>
    </defs>
    <g clip-path="url(#p255158e2e9)">
     <use xlink:href="#mb0812c9ec8" x="123.014886" y="194.013651" style="fill: #cc79a7; stroke: #cc79a7"/>
    </g>
   </g>
   <g id="line2d_32">
    <g clip-path="url(#p255158e2e9)">
     <use xlink:href="#mb0812c9ec8" x="123.014886" y="79.506073" style="fill: #cc79a7; stroke: #cc79a7"/>
    </g>
   </g>
   <g id="LineCollection_9">
    <path d="M 285.207624 378.155353 
L 367.385538 378.155353 
" clip-path="url(#p255158e2e9)" style="fill: none; stroke: #f0e442; stroke-width: 2"/>
   </g>
   <g id="LineCollection_10">
    <path d="M 326.296581 420.663931 
L 326.296581 335.646775 
" clip-path="url(#p255158e2e9)" style="fill: none; stroke: #f0e442; stroke-width: 2"/>
   </g>
   <g id="line2d_33">
    <defs>
     <path id="mbd7dc64bb1" d="M 0 5 
L 0 -5 
" style="stroke: #f0e442"/>
    </defs>
    <g clip-path="url(#p255158e2e9)">
     <use xlink:href="#mbd7dc64bb1" x="285.207624" y="378.155353" style="fill: #f0e442; stroke: #f0e442"/>
    </g>
   </g>
   <g id="line2d_34">
    <g clip-path="url(#p255158e2e9)">
     <use xlink:href="#mbd7dc64bb1" x="367.385538" y="378.155353" style="fill: #f0e442; stroke: #f0e442"/>
    </g>
   </g>
   <g id="line2d_35">
    <defs>
     <path id="me122d152bb" d="M 5 0 
L -5 -0 
" style="stroke: #f0e442"/>
    </defs>
    <g clip-path="url(#p255158e2e9)">
     <use xlink:href="#me122d152bb" x="326.296581" y="420.663931" style="fill: #f0e442; stroke: #f0e442"/>
    </g>
   </g>
   <g id="line2d_36">
    <g clip-path="url(#p255158e2e9)">
     <use xlink:href="#me122d152bb" x="326.296581" y="335.646775" style="fill: #f0e442; stroke: #f0e442"/>
    </g>
   </g>
   <g id="LineCollection_11">
    <path d="M 413.933014 93.401444 
L 450.351768 93.401444 
" clip-path="url(#p255158e2e9)" style="fill: none; stroke: #0072b2; stroke-width: 2"/>
   </g>
   <g id="LineCollection_12">
    <path d="M 432.142391 125.224171 
L 432.142391 61.578716 
" clip-path="url(#p255158e2e9)" style="fill: none; stroke: #0072b2; stroke-width: 2"/>
   </g>
   <g id="line2d_37">
    <defs>
     <path id="mec956bde30" d="M 0 5 
L 0 -5 
" style="stroke: #0072b2"/>
    </defs>
    <g clip-path="url(#p255158e2e9)">
     <use xlink:href="#mec956bde30" x="413.933014" y="93.401444" style="fill: #0072b2; stroke: #0072b2"/>
    </g>
   </g>
   <g id="line2d_38">
    <g clip-path="url(#p255158e2e9)">
     <use xlink:href="#mec956bde30" x="450.351768" y="93.401444" style="fill: #0072b2; stroke: #0072b2"/>
    </g>
   </g>
   <g id="line2d_39">
    <defs>
     <path id="m5d0dc35335" d="M 5 0 
L -5 -0 
" style="stroke: #0072b2"/>
    </defs>
    <g clip-path="url(#p255158e2e9)">
     <use xlink:href="#m5d0dc35335" x="432.142391" y="125.224171" style="fill: #0072b2; stroke: #0072b2"/>
    </g>
   </g>
   <g id="line2d_40">
    <g clip-path="url(#p255158e2e9)">
     <use xlink:href="#m5d0dc35335" x="432.142391" y="61.578716" style="fill: #0072b2; stroke: #0072b2"/>
    </g>
   </g>
   <g id="line2d_41">
    <defs>
     <path id="m00a984ee17" d="M 0 6 
C 1.591219 6 3.117479 5.367802 4.242641 4.242641 
C 5.367802 3.117479 6 1.591219 6 0 
C 6 -1.591219 5.367802 -3.117479 4.242641 -4.242641 
C 3.117479 -5.367802 1.591219 -6 0 -6 
C -1.591219 -6 -3.117479 -5.367802 -4.242641 -4.242641 
C -5.367802 -3.117479 -6 -1.591219 -6 0 
C -6 1.591219 -5.367802 3.117479 -4.242641 4.242641 
C -3.117479 5.367802 -1.591219 6 0 6 
z
" style="stroke: #000000; stroke-opacity: 0"/>
    </defs>
    <g clip-path="url(#p255158e2e9)">
     <use xlink:href="#m00a984ee17" x="206.736209" y="361.630579" style="fill: #e69f00; stroke: #000000; stroke-opacity: 0"/>
    </g>
   </g>
   <g id="line2d_42">
    <g clip-path="url(#p255158e2e9)">
     <use xlink:href="#m00a984ee17" x="201.741649" y="399.047389" style="fill: #e69f00; stroke: #000000; stroke-opacity: 0"/>
    </g>
   </g>
   <g id="line2d_43">
    <defs>
     <path id="ma32affe91b" d="M 0 6 
C 1.591219 6 3.117479 5.367802 4.242641 4.242641 
C 5.367802 3.117479 6 1.591219 6 0 
C 6 -1.591219 5.367802 -3.117479 4.242641 -4.242641 
C 3.117479 -5.367802 1.591219 -6 0 -6 
C -1.591219 -6 -3.117479 -5.367802 -4.242641 -4.242641 
C -5.367802 -3.117479 -6 -1.591219 -6 0 
C -6 1.591219 -5.367802 3.117479 -4.242641 4.242641 
C -3.117479 5.367802 -1.591219 6 0 6 
z
" style="stroke: #000000; stroke-opacity: 0"/>
    </defs>
    <g clip-path="url(#p255158e2e9)">
     <use xlink:href="#ma32affe91b" x="179.510807" y="133.007345" style="fill: #009e73; stroke: #000000; stroke-opacity: 0"/>
    </g>
   </g>
   <g id="line2d_44">
    <defs>
     <path id="m154be23a4e" d="M 0 6 
C 1.591219 6 3.117479 5.367802 4.242641 4.242641 
C 5.367802 3.117479 6 1.591219 6 0 
C 6 -1.591219 5.367802 -3.117479 4.242641 -4.242641 
C 3.117479 -5.367802 1.591219 -6 0 -6 
C -1.591219 -6 -3.117479 -5.367802 -4.242641 -4.242641 
C -5.367802 -3.117479 -6 -1.591219 -6 0 
C -6 1.591219 -5.367802 3.117479 -4.242641 4.242641 
C -3.117479 5.367802 -1.591219 6 0 6 
z
" style="stroke: #000000; stroke-opacity: 0"/>
    </defs>
    <g clip-path="url(#p255158e2e9)">
     <use xlink:href="#m154be23a4e" x="123.014886" y="136.759862" style="fill: #cc79a7; stroke: #000000; stroke-opacity: 0"/>
    </g>
   </g>
   <g id="line2d_45">
    <defs>
     <path id="m2e6f211cc8" d="M 0 6 
C 1.591219 6 3.117479 5.367802 4.242641 4.242641 
C 5.367802 3.117479 6 1.591219 6 0 
C 6 -1.591219 5.367802 -3.117479 4.242641 -4.242641 
C 3.117479 -5.367802 1.591219 -6 0 -6 
C -1.591219 -6 -3.117479 -5.367802 -4.242641 -4.242641 
C -5.367802 -3.117479 -6 -1.591219 -6 0 
C -6 1.591219 -5.367802 3.117479 -4.242641 4.242641 
C -3.117479 5.367802 -1.591219 6 0 6 
z
" style="stroke: #000000; stroke-opacity: 0"/>
    </defs>
    <g clip-path="url(#p255158e2e9)">
     <use xlink:href="#m2e6f211cc8" x="326.296581" y="378.155353" style="fill: #f0e442; stroke: #000000; stroke-opacity: 0"/>
    </g>
   </g>
   <g id="line2d_46">
    <defs>
     <path id="mfd5fedfc6a" d="M 0 6 
C 1.591219 6 3.117479 5.367802 4.242641 4.242641 
C 5.367802 3.117479 6 1.591219 6 0 
C 6 -1.591219 5.367802 -3.117479 4.242641 -4.242641 
C 3.117479 -5.367802 1.591219 -6 0 -6 
C -1.591219 -6 -3.117479 -5.367802 -4.242641 -4.242641 
C -5.367802 -3.117479 -6 -1.591219 -6 0 
C -6 1.591219 -5.367802 3.117479 -4.242641 4.242641 
C -3.117479 5.367802 -1.591219 6 0 6 
z
" style="stroke: #000000; stroke-opacity: 0"/>
    </defs>
    <g clip-path="url(#p255158e2e9)">
     <use xlink:href="#mfd5fedfc6a" x="432.142391" y="93.401444" style="fill: #0072b2; stroke: #000000; stroke-opacity: 0"/>
    </g>
   </g>
   <g id="patch_3">
    <path d="M 60.88875 516.759062 
L 60.88875 11.759062 
" style="fill: none; stroke: #000000; stroke-width: 1.5; stroke-linejoin: miter; stroke-linecap: square"/>
   </g>
   <g id="patch_4">
    <path d="M 60.88875 516.759062 
L 543.34375 516.759062 
" style="fill: none; stroke: #000000; stroke-width: 1.5; stroke-linejoin: miter; stroke-linecap: square"/>
   </g>
   <g id="text_17">
    <text style="font-weight: 700; font-size: 12px; font-family: 'Arial'; text-anchor: start" x="338.665871" y="244.930104" transform="rotate(-0 338.665871 244.930104)">Wake</text>
   </g>
   <g id="patch_5">
    <path d="M 322.510198 265.533854 
Q 265.391662 312.944368 210.423852 358.569698 
" style="fill: none; opacity: 0.4; stroke: #e69f00; stroke-width: 2.5; stroke-linecap: round"/>
    <path d="M 216.521189 357.147562 
L 210.423852 358.569698 
L 212.944546 352.838546 
" style="fill: none; opacity: 0.4; stroke: #e69f00; stroke-width: 2.5; stroke-linecap: round"/>
   </g>
   <g id="text_18">
    <text style="font-weight: 700; font-size: 12px; font-family: 'Arial'; text-anchor: start; fill: #e69f00" x="133.636966" y="395.297246" transform="rotate(-0 133.636966 395.297246)">Sedation</text>
   </g>
   <g id="patch_6">
    <path d="M 322.700481 265.741948 
Q 262.893817 331.653247 204.965393 395.494589 
" style="fill: none; opacity: 0.4; stroke: #e69f00; stroke-width: 2.5; stroke-linecap: round"/>
    <path d="M 210.802072 393.228939 
L 204.965393 395.494589 
L 206.65488 389.465855 
" style="fill: none; opacity: 0.4; stroke: #e69f00; stroke-width: 2.5; stroke-linecap: round"/>
   </g>
   <g id="text_19">
    <text style="font-weight: 700; font-size: 12px; font-family: 'Arial'; text-anchor: start; fill: #e69f00" x="143.262255" y="449.547389" transform="rotate(-0 143.262255 449.547389)">Deep</text>
   </g>
   <g id="patch_7">
    <path d="M 322.566178 262.915222 
Q 251.779571 198.634253 183.062184 136.232333 
" style="fill: none; opacity: 0.4; stroke: #009e73; stroke-width: 2.5; stroke-linecap: round"/>
    <path d="M 185.325549 142.069899 
L 183.062184 136.232333 
L 189.090256 137.92418 
" style="fill: none; opacity: 0.4; stroke: #009e73; stroke-width: 2.5; stroke-linecap: round"/>
   </g>
   <g id="text_20">
    <text style="font-weight: 700; font-size: 12px; font-family: 'Arial'; text-anchor: start; fill: #009e73" x="121.031413" y="99.340678" transform="rotate(-0 121.031413 99.340678)">LSD</text>
   </g>
   <g id="patch_8">
    <path d="M 322.355835 263.187101 
Q 223.529433 200.508814 127.063419 139.327547 
" style="fill: none; opacity: 0.4; stroke: #cc79a7; stroke-width: 2.5; stroke-linecap: round"/>
    <path d="M 130.292844 144.69139 
L 127.063419 139.327547 
L 133.292148 139.962313 
" style="fill: none; opacity: 0.4; stroke: #cc79a7; stroke-width: 2.5; stroke-linecap: round"/>
   </g>
   <g id="text_21">
    <text style="font-weight: 700; font-size: 12px; font-family: 'Arial'; text-anchor: start; fill: #cc79a7" x="137.634735" y="153.593195" transform="rotate(-0 137.634735 153.593195)">DMT</text>
   </g>
   <g id="patch_9">
    <path d="M 324.085515 266.25767 
Q 325.171311 321.207669 326.201888 373.363128 
" style="fill: none; opacity: 0.4; stroke: #f0e442; stroke-width: 2.5; stroke-linecap: round"/>
    <path d="M 328.890709 367.708905 
L 326.201888 373.363128 
L 323.291801 367.819538 
" style="fill: none; opacity: 0.4; stroke: #f0e442; stroke-width: 2.5; stroke-linecap: round"/>
   </g>
   <g id="text_22">
    <text style="font-weight: 700; font-size: 12px; font-family: 'Arial'; text-anchor: start; fill: #f0e442" x="348.226354" y="352.905353" transform="rotate(-0 348.226354 352.905353)">Modafinil</text>
   </g>
   <g id="patch_10">
    <path d="M 325.116496 262.567067 
Q 378.094608 178.829619 429.578324 97.45422 
" style="fill: none; opacity: 0.4; stroke: #0072b2; stroke-width: 2.5; stroke-linecap: round"/>
    <path d="M 424.218072 100.689603 
L 429.578324 97.45422 
L 428.950479 103.683651 
" style="fill: none; opacity: 0.4; stroke: #0072b2; stroke-width: 2.5; stroke-linecap: round"/>
   </g>
   <g id="text_23">
    <text style="font-weight: 700; font-size: 12px; font-family: 'Arial'; text-anchor: start; fill: #0072b2" x="446.76224" y="76.56811" transform="rotate(-0 446.76224 76.56811)">Schizophrenia</text>
   </g>
   <g id="LineCollection_13">
    <path d="M 324.046023 264.259062 
L 324.046023 264.259062 
" clip-path="url(#p255158e2e9)" style="fill: none; stroke: #000000; stroke-width: 1.5"/>
   </g>
   <g id="LineCollection_14">
    <path d="M 324.046023 264.259062 
L 324.046023 264.259062 
" clip-path="url(#p255158e2e9)" style="fill: none; stroke: #000000; stroke-width: 1.5"/>
   </g>
   <g id="line2d_47">
    <defs>
     <path id="mae4b2204b0" d="M 0 6 
C 1.591219 6 3.117479 5.367802 4.242641 4.242641 
C 5.367802 3.117479 6 1.591219 6 0 
C 6 -1.591219 5.367802 -3.117479 4.242641 -4.242641 
C 3.117479 -5.367802 1.591219 -6 0 -6 
C -1.591219 -6 -3.117479 -5.367802 -4.242641 -4.242641 
C -5.367802 -3.117479 -6 -1.591219 -6 0 
C -6 1.591219 -5.367802 3.117479 -4.242641 4.242641 
C -3.117479 5.367802 -1.591219 6 0 6 
z
" style="stroke: #000000"/>
    </defs>
    <g clip-path="url(#p255158e2e9)">
     <use xlink:href="#mae4b2204b0" x="324.046023" y="264.259062" style="stroke: #000000"/>
    </g>
   </g>
  </g>
 </g>
 <defs>
  <clipPath id="p255158e2e9">
   <rect x="60.88875" y="11.759062" width="482.455" height="505"/>
  </clipPath>
 </defs>
</svg>
